<?xml version="1.0" encoding="UTF-8" standalone="no"?>
<!-- Created with Inkscape (http://www.inkscape.org/) -->

<svg
   xmlns:dc="http://purl.org/dc/elements/1.1/"
   xmlns:cc="http://creativecommons.org/ns#"
   xmlns:rdf="http://www.w3.org/1999/02/22-rdf-syntax-ns#"
   xmlns:svg="http://www.w3.org/2000/svg"
   xmlns="http://www.w3.org/2000/svg"
   xmlns:xlink="http://www.w3.org/1999/xlink"
   xmlns:sodipodi="http://sodipodi.sourceforge.net/DTD/sodipodi-0.dtd"
   xmlns:inkscape="http://www.inkscape.org/namespaces/inkscape"
   width="128"
   height="128"
   id="svg7115"
   version="1.1"
   inkscape:version="0.48.1 r9760"
   sodipodi:docname="darkgrey_dot.svg">
  <defs
     id="defs7117">
    <inkscape:perspective
       sodipodi:type="inkscape:persp3d"
       inkscape:vp_x="0 : 526.18109 : 1"
       inkscape:vp_y="0 : 1000 : 0"
       inkscape:vp_z="744.09448 : 526.18109 : 1"
       inkscape:persp3d-origin="372.04724 : 350.78739 : 1"
       id="perspective7123" />
    <inkscape:perspective
       id="perspective7133"
       inkscape:persp3d-origin="0.5 : 0.33333333 : 1"
       inkscape:vp_z="1 : 0.5 : 1"
       inkscape:vp_y="0 : 1000 : 0"
       inkscape:vp_x="0 : 0.5 : 1"
       sodipodi:type="inkscape:persp3d" />
    <radialGradient
       r="57.578693"
       fy="-44.736084"
       fx="81.822357"
       cy="-44.736084"
       cx="81.822357"
       gradientUnits="userSpaceOnUse"
       id="radialGradient6556"
       xlink:href="#linearGradient4065-7"
       inkscape:collect="always" />
    <linearGradient
       id="linearGradient4065-7">
      <stop
         style="stop-color:#3e6e8d;stop-opacity:1;"
         offset="0"
         id="stop4067-3" />
      <stop
         style="stop-color:#005994;stop-opacity:1;"
         offset="1"
         id="stop4069-38" />
    </linearGradient>
    <linearGradient
       y2="303.14029"
       x2="606.91248"
       y1="104.50665"
       x1="541.33502"
       gradientTransform="matrix(-0.3937741,0,0,0.3937521,978.34966,416.9815)"
       gradientUnits="userSpaceOnUse"
       id="linearGradient2966"
       xlink:href="#path1082_2_"
       inkscape:collect="always" />
    <linearGradient
       gradientUnits="userSpaceOnUse"
       id="path1082_2_"
       y2="129.3468"
       x2="112.49853"
       y1="6.1372099"
       x1="112.49854"
       gradientTransform="translate(287,-83)">
      <stop
         id="stop193"
         offset="0"
         style="stop-color:#ffffff;stop-opacity:0" />
      <stop
         id="stop195"
         offset="1"
         style="stop-color:#ffffff;stop-opacity:0.27450982;" />
      <midPointStop
         id="midPointStop197"
         style="stop-color:#FFFFFF"
         offset="0" />
      <midPointStop
         id="midPointStop199"
         style="stop-color:#FFFFFF"
         offset="0.5" />
      <midPointStop
         id="midPointStop201"
         style="stop-color:#000000"
         offset="1" />
    </linearGradient>
    <linearGradient
       y2="303.14029"
       x2="606.91248"
       y1="104.50665"
       x1="541.33502"
       gradientTransform="matrix(-0.3937741,0,0,0.3937521,978.34966,416.9815)"
       gradientUnits="userSpaceOnUse"
       id="linearGradient3298"
       xlink:href="#path1082_2_"
       inkscape:collect="always" />
  </defs>
  <sodipodi:namedview
     id="base"
     pagecolor="#ffffff"
     bordercolor="#666666"
     borderopacity="1.0"
     inkscape:pageopacity="0.0"
     inkscape:pageshadow="2"
     inkscape:zoom="2.8"
     inkscape:cx="9.3127315"
     inkscape:cy="62.857143"
     inkscape:document-units="px"
     inkscape:current-layer="layer1"
     showgrid="false"
     inkscape:window-width="1280"
     inkscape:window-height="758"
     inkscape:window-x="0"
     inkscape:window-y="21"
     inkscape:window-maximized="0" />
  <metadata
     id="metadata7120">
    <rdf:RDF>
      <cc:Work
         rdf:about="">
        <dc:format>image/svg+xml</dc:format>
        <dc:type
           rdf:resource="http://purl.org/dc/dcmitype/StillImage" />
        <dc:title></dc:title>
      </cc:Work>
    </rdf:RDF>
  </metadata>
  <g
     inkscape:label="Layer 1"
     inkscape:groupmode="layer"
     id="layer1"
     transform="translate(0,-924.36218)">
    <path
       transform="matrix(1.0749636,0,0,1.0749636,-23.241773,1035.3804)"
       d="m 139.40105,-44.736084 a 57.578693,57.578693 0 1 1 -115.157386,0 57.578693,57.578693 0 1 1 115.157386,0 z"
       sodipodi:ry="57.578693"
       sodipodi:rx="57.578693"
       sodipodi:cy="-44.736084"
       sodipodi:cx="81.822357"
       id="path3291"
       style="fill:#268bd2;fill-opacity:0.94117647;stroke:none"
       sodipodi:type="arc" />
    <g
       transform="matrix(0.51195428,0,0,0.50558209,-326.51712,707.66003)"
       id="g2837">
      <path
         inkscape:connector-curvature="0"
         transform="matrix(0.7421875,0,0,0.7421875,669.75015,435.62318)"
         id="path2518"
         d="M 128,0 C 116.60518,27.937051 109.68663,46.237163 97,73.34375 104.7785,81.588957 114.33826,91.155503 129.84375,102 113.17383,95.140423 101.81018,88.271496 93.3125,81.125 77.076039,115.00489 51.621645,163.24639 0,256 c 40.562707,-23.41756 72.007597,-37.86167 101.3125,-43.375 -1.25376,-5.40435 -1.923505,-11.27752 -1.875,-17.375 l 0.03125,-1.28125 c 0.64379,-25.99398 14.16934,-45.98224 30.1875,-44.625 16.01815,1.35723 28.48754,23.53727 27.84375,49.53125 -0.12127,4.89622 -0.6905,9.60082 -1.65625,13.96875 C 184.83328,218.51691 215.98162,232.89667 256,256 c -7.89193,-14.52962 -14.96051,-27.61983 -21.6875,-40.09375 -10.59609,-8.21269 -21.64301,-18.89743 -44.1875,-30.46875 15.4958,4.02645 26.60184,8.6825 35.25,13.875 C 156.97985,71.972668 151.45422,55.040376 128,0 z"
         style="fill:#1c2224;fill-opacity:1;fill-rule:evenodd;stroke:none" />
      <path
         inkscape:connector-curvature="0"
         sodipodi:nodetypes="ccc"
         id="path2522"
         d="M 818.22607,548.55277 C 777.04464,492.65769 767.49922,447.60796 765.0814,436.85262 c 21.96737,50.6686 21.81733,51.28995 53.14467,111.70015 z"
         style="fill:#ffffff;fill-opacity:0.16568047;fill-rule:evenodd;stroke:none" />
      <path
         inkscape:connector-curvature="0"
         id="path2520"
         d="m 765.12124,436.36538 c -1.06809,2.62569 -2.07571,5.18569 -3.06152,7.60742 -1.08115,2.65585 -2.13247,5.21447 -3.1543,7.70019 -1.02175,2.48575 -2.05759,4.84198 -3.06152,7.23633 -1.00399,2.39446 -1.9411,4.7617 -2.96875,7.14356 -1.02758,2.38177 -2.15434,4.78844 -3.24707,7.23632 -1.09273,2.44796 -2.23335,4.92185 -3.43262,7.51465 -1.19937,2.59282 -2.45641,5.34774 -3.80371,8.16407 -0.18273,0.38196 -0.37075,0.81915 -0.55664,1.20605 5.75763,6.09886 12.85563,13.14354 24.30664,21.15234 -12.3722,-5.09109 -20.78297,-10.18912 -27.08984,-15.49316 -0.32869,0.67104 -0.58906,1.26104 -0.92774,1.94824 -1.24721,2.58455 -2.58439,5.14414 -3.98925,7.97852 -0.33495,0.66595 -0.58339,1.26662 -0.92774,1.94824 -1.485,2.98035 -3.04573,6.06522 -4.73144,9.37012 -0.33426,0.65055 -0.6781,1.19104 -1.02051,1.85547 -1.02029,1.97964 -4.27491,8.22324 -7.60742,14.56543 -1.94316,3.70493 -3.46894,6.73989 -5.65918,10.85449 -0.62086,1.18197 -1.8984,3.54789 -2.22657,4.1748 24.12062,-13.57765 50.143,-33.2992 97.41211,-16.4209 -2.36708,-4.48319 -4.63595,-8.66436 -6.67968,-12.61718 -2.0437,-3.95294 -3.89608,-7.63232 -5.65918,-11.13282 -1.76296,-3.50043 -3.39212,-6.80069 -4.917,-9.92675 -1.52486,-3.12599 -2.93832,-6.07649 -4.26757,-8.90625 -1.32933,-2.8297 -2.62746,-5.55264 -3.80372,-8.16407 -1.17634,-2.61139 -2.27388,-5.13635 -3.33984,-7.60742 -1.06607,-2.4712 -2.06338,-4.92037 -3.06152,-7.3291 -0.99823,-2.4088 -1.99587,-4.719 -2.96875,-7.14355 -0.42343,-1.055 -0.78165,-2.1785 -1.20606,-3.24707 -2.63564,-6.18974 -5.22363,-12.32495 -8.34961,-19.66797 z"
         style="fill:url(#linearGradient3298);fill-opacity:1;fill-rule:evenodd;stroke:none" />
    </g>
  </g>
</svg>
