<?xml version="1.0" encoding="UTF-8" standalone="no"?>
<!-- Created with Inkscape (http://www.inkscape.org/) -->

<svg
   xmlns:dc="http://purl.org/dc/elements/1.1/"
   xmlns:cc="http://creativecommons.org/ns#"
   xmlns:rdf="http://www.w3.org/1999/02/22-rdf-syntax-ns#"
   xmlns:svg="http://www.w3.org/2000/svg"
   xmlns="http://www.w3.org/2000/svg"
   xmlns:xlink="http://www.w3.org/1999/xlink"
   xmlns:sodipodi="http://sodipodi.sourceforge.net/DTD/sodipodi-0.dtd"
   xmlns:inkscape="http://www.inkscape.org/namespaces/inkscape"
   height="128"
   id="svg1"
   inkscape:version="0.48.2 r9819"
   sodipodi:docname="link.svg"
   sodipodi:version="0.32"
   version="1.0"
   width="128"
   x="0"
   y="0">
  <metadata
     id="metadata3">
    <rdf:RDF>
      <cc:Work
         rdf:about="">
        <dc:title></dc:title>
        <dc:description />
        <dc:subject>
          <rdf:Bag>
            <rdf:li>hash</rdf:li>
            <rdf:li />
            <rdf:li>action</rdf:li>
            <rdf:li>computer</rdf:li>
            <rdf:li>icons</rdf:li>
            <rdf:li>theme</rdf:li>
          </rdf:Bag>
        </dc:subject>
        <dc:publisher>
          <cc:Agent
             rdf:about="http://www.openclipart.org">
            <dc:title>Danny Allen</dc:title>
          </cc:Agent>
        </dc:publisher>
        <dc:creator>
          <cc:Agent>
            <dc:title>Danny Allen</dc:title>
          </cc:Agent>
        </dc:creator>
        <dc:rights>
          <cc:Agent>
            <dc:title>Danny Allen</dc:title>
          </cc:Agent>
        </dc:rights>
        <dc:date />
        <dc:format>image/svg+xml</dc:format>
        <dc:type
           rdf:resource="http://purl.org/dc/dcmitype/StillImage" />
        <cc:license
           rdf:resource="http://web.resource.org/cc/PublicDomain" />
        <dc:language>en</dc:language>
      </cc:Work>
      <cc:License
         rdf:about="http://web.resource.org/cc/PublicDomain">
        <cc:permits
           rdf:resource="http://web.resource.org/cc/Reproduction" />
        <cc:permits
           rdf:resource="http://web.resource.org/cc/Distribution" />
        <cc:permits
           rdf:resource="http://web.resource.org/cc/DerivativeWorks" />
      </cc:License>
    </rdf:RDF>
  </metadata>
  <sodipodi:namedview
     bordercolor="#666666"
     borderopacity="1.0"
     id="base"
     inkscape:cx="104.09391"
     inkscape:cy="89.349866"
     inkscape:pageopacity="0.0"
     inkscape:pageshadow="2"
     inkscape:window-height="750"
     inkscape:window-width="1280"
     inkscape:window-x="-4"
     inkscape:window-y="28"
     inkscape:zoom="2.4559706"
     pagecolor="#ffffff"
     showgrid="false"
     inkscape:window-maximized="1"
     inkscape:current-layer="svg1" />
  <defs
     id="defs3">
    <linearGradient
       id="linearGradient1160">
      <stop
         id="stop1161"
         offset="0"
         style="stop-color:#000;stop-opacity:1;" />
      <stop
         id="stop1162"
         offset="1"
         style="stop-color:#fff;stop-opacity:1;" />
    </linearGradient>
    <linearGradient
       id="linearGradient1163"
       xlink:href="#linearGradient1160" />
  </defs>
  <path
     id="path3218"
     d="M 95.29103,0.97823828 C 86.701049,0.88737136 78.321126,4.408994 71.699254,10.893946 c -0.0014,-2.88e-4 -56.871463,55.261921 -56.871463,55.261921 -1.415571,1.374025 -1.44805,3.635049 -0.07259,5.050901 1.373741,1.417005 3.636765,1.4469 5.050901,0.0726 L 76.688428,16.007671 c 5.269533,-5.159518 11.845108,-7.9559896 18.527797,-7.8858273 6.107415,0.063782 11.695055,2.5098433 16.151495,7.0624583 9.87771,10.088383 5.4445,26.233355 -4.5458,36.014232 L 45.171684,111.03608 c -11.777602,11.52841 -20.784414,13.1027 -30.088088,5.27448 -0.116684,-0.13331 -0.160091,-0.18507 -0.262405,-0.30061 -2.783284,-3.91224 -3.812482,-7.86532 -2.958526,-12.18831 1.140587,-5.774015 5.62345,-12.207747 13.711007,-20.08662 0.0056,-0.0063 56.174427,-54.998864 56.174427,-54.998864 4.253206,-4.162499 8.07133,-6.25822 11.351045,-6.224138 2.414356,0.02552 4.735433,1.209545 7.094956,3.616818 6.24504,6.380809 -1.265226,15.598316 -6.296545,20.524813 L 44.483129,95.033948 c -1.40925,1.379744 -1.433127,3.642461 -0.05224,5.053432 1.379741,1.40924 3.642465,1.43314 5.050565,0.0516 L 98.895606,51.760184 C 110.52963,40.370279 112.92371,28.922002 105.29891,21.13194 101.59701,17.35259 97.519386,15.414876 93.172514,15.368132 87.85623,15.311644 82.484858,18.015264 76.748336,23.630772 L 20.579344,78.624751 C 9.2388679,89.674875 -2.3236452,104.39813 9.0648158,120.26283 c 0.068734,0.097 0.1420345,0.18601 0.2196387,0.27582 l 0.6435024,0.73195 c 0.1132461,0.12811 0.2353401,0.24909 0.3668801,0.36 12.327956,10.50536 25.368873,8.71341 39.864023,-5.47821 l 61.6514,-59.835833 C 124.32164,44.067545 129.4795,23.469756 116.47598,10.185102 110.74209,4.3313425 103.22089,1.0623559 95.29103,0.97823828 z"
     inkscape:connector-curvature="0"
     style="fill:#b3b3b3" />
  <path
     inkscape:connector-curvature="0"
     d="M 93.655237,4.3310895 C 85.517483,4.2450064 77.578729,7.5812299 71.305473,13.724776 71.304119,13.724503 17.428061,66.07738 17.428061,66.07738 c -1.341047,1.301689 -1.371816,3.443679 -0.06877,4.784993 1.30142,1.342405 3.445305,1.370726 4.784993,0.06878 L 76.031986,18.569284 c 4.992114,-4.88789 11.221512,-7.537139 17.552384,-7.470671 5.785877,0.06042 11.07936,2.377711 15.30119,6.690649 9.35769,9.55727 5.15786,24.852275 -4.30649,34.118229 L 46.174471,108.59483 c -11.157558,10.92148 -19.690199,12.4129 -28.504072,4.99681 -0.110541,-0.1263 -0.151663,-0.17533 -0.248591,-0.28479 -2.636755,-3.70628 -3.61177,-7.45124 -2.802771,-11.54665 1.080539,-5.470032 5.327398,-11.565055 12.989178,-19.029137 0.0053,-0.006 53.217071,-52.103397 53.217071,-52.103397 4.029293,-3.943361 7.646407,-5.928751 10.753459,-5.896463 2.28725,0.02418 4.486132,1.145868 6.721432,3.426407 5.916263,6.044886 -1.198611,14.777128 -5.965054,19.444265 L 45.522165,93.435149 c -1.335058,1.307105 -1.357678,3.4507 -0.0495,4.787391 1.307103,1.335044 3.450704,1.357683 4.784673,0.04894 l 46.8127,-45.831903 C 108.09159,41.6493 110.35962,30.803728 103.13625,23.42378 99.629226,19.843398 95.76628,18.007697 91.648252,17.963415 86.611849,17.909901 81.523258,20.471184 76.08874,25.791059 L 22.876818,77.889828 C 12.133372,88.358208 1.1795783,102.30634 11.968483,117.33584 c 0.06511,0.0919 0.134557,0.17621 0.208076,0.26129 l 0.609624,0.69342 c 0.107284,0.12136 0.222951,0.23598 0.347566,0.34104 11.678939,9.95231 24.033305,8.25469 37.765344,-5.1898 L 109.30479,56.75607 C 121.1575,45.15192 126.04383,25.63852 113.72488,13.053249 108.29286,7.5076665 101.16761,4.4107788 93.655237,4.3310895 z"
     id="path3" />
</svg>
