<?xml version="1.0" encoding="UTF-8" standalone="no"?>
<!-- Generator: Adobe Illustrator 15.1.0, SVG Export Plug-In . SVG Version: 6.00 Build 0)  -->

<svg
   xmlns:dc="http://purl.org/dc/elements/1.1/"
   xmlns:cc="http://creativecommons.org/ns#"
   xmlns:rdf="http://www.w3.org/1999/02/22-rdf-syntax-ns#"
   xmlns:svg="http://www.w3.org/2000/svg"
   xmlns="http://www.w3.org/2000/svg"
   xmlns:sodipodi="http://sodipodi.sourceforge.net/DTD/sodipodi-0.dtd"
   xmlns:inkscape="http://www.inkscape.org/namespaces/inkscape"
   version="1.1"
   id="Layer_1"
   x="0px"
   y="0px"
   width="128"
   height="128"
   viewBox="0 0 128 128"
   enable-background="new 0 0 82 100"
   xml:space="preserve"
   inkscape:version="0.48.2 r9819"
   sodipodi:docname="compressor.svg"><metadata
   id="metadata9"><rdf:RDF><cc:Work
       rdf:about=""><dc:format>image/svg+xml</dc:format><dc:type
         rdf:resource="http://purl.org/dc/dcmitype/StillImage" /><dc:title></dc:title></cc:Work></rdf:RDF></metadata><defs
   id="defs7" /><sodipodi:namedview
   pagecolor="#ffffff"
   bordercolor="#666666"
   borderopacity="1"
   objecttolerance="10"
   gridtolerance="10"
   guidetolerance="10"
   inkscape:pageopacity="0"
   inkscape:pageshadow="2"
   inkscape:window-width="1280"
   inkscape:window-height="750"
   id="namedview5"
   showgrid="false"
   inkscape:zoom="1.7011719"
   inkscape:cx="-75.637046"
   inkscape:cy="12.830259"
   inkscape:window-x="-4"
   inkscape:window-y="28"
   inkscape:window-maximized="1"
   inkscape:current-layer="Layer_1" />

<g
   id="g3515"
   style="fill:#ff0000"
   transform="matrix(1.0720362,0,0,1.0720362,-4.717895,-4.7322787)"><path
     style="fill:#ff0000;fill-opacity:1;fill-rule:nonzero;stroke:none"
     d="m 32.590639,6.9131382 c -4.385084,0 -7.898263,3.5331758 -7.898263,7.9182588 l 0,7.118435 59.786852,0 c 4.385083,0 7.898263,3.533175 7.898263,7.918258 l 0,30.433307 c 0,4.385084 -3.51318,7.918259 -7.898263,7.918259 l -59.786852,0 0,7.49835 c 0,4.38509 3.513179,7.91826 7.898263,7.91826 l 65.805529,0 c 4.385082,0 7.898262,-3.53317 7.898262,-7.91826 l 0,-60.886609 c 0,-4.385083 -3.51318,-7.9182588 -7.898262,-7.9182588 l -65.805529,0 z"
     id="path3517"
     inkscape:connector-curvature="0" /><g
     id="g3519"
     transform="matrix(1,0,0,1.2454729,6.4661309,-29.822616)"
     style="fill:#ff0000"><rect
       ry="6.2061205"
       y="52.044632"
       x="34.462696"
       height="71.840546"
       width="12.412241"
       id="rect3521"
       style="fill:#ff0000;fill-opacity:1;fill-rule:nonzero;stroke:none" /><rect
       ry="3.5732212"
       y="106.58327"
       x="22.426584"
       height="7.1464424"
       width="35.356083"
       id="rect3523"
       style="fill:#ff0000;fill-opacity:1;fill-rule:nonzero;stroke:none" /></g></g><g
   id="g3499"><path
     inkscape:connector-curvature="0"
     id="path3294"
     d="m 32.590639,6.9131382 c -4.385084,0 -7.898263,3.5331758 -7.898263,7.9182588 l 0,7.118435 59.786852,0 c 4.385083,0 7.898263,3.533175 7.898263,7.918258 l 0,30.433307 c 0,4.385084 -3.51318,7.918259 -7.898263,7.918259 l -59.786852,0 0,7.49835 c 0,4.38509 3.513179,7.91826 7.898263,7.91826 l 65.805529,0 c 4.385082,0 7.898262,-3.53317 7.898262,-7.91826 l 0,-60.886609 c 0,-4.385083 -3.51318,-7.9182588 -7.898262,-7.9182588 l -65.805529,0 z"
     style="fill:#000000;fill-opacity:1;fill-rule:nonzero;stroke:none" /><g
     transform="matrix(1,0,0,1.2454729,6.4661309,-29.822616)"
     id="g3300"><rect
       style="fill:#000000;fill-opacity:1;fill-rule:nonzero;stroke:none"
       id="rect3296"
       width="12.412241"
       height="71.840546"
       x="34.462696"
       y="52.044632"
       ry="6.2061205" /><rect
       style="fill:#000000;fill-opacity:1;fill-rule:nonzero;stroke:none"
       id="rect3298"
       width="35.356083"
       height="7.1464424"
       x="22.426584"
       y="106.58327"
       ry="3.5732212" /></g></g><g
   id="g3525"
   style="fill:#ff0000"
   transform="matrix(1.0432217,0,0,1.0020326,-3.6550768,-1.0726735)"><path
     inkscape:connector-curvature="0"
     id="path3527"
     d="m 32.590639,6.9131382 c -4.385084,0 -7.898263,3.5331758 -7.898263,7.9182588 l 0,7.118435 59.786852,0 c 4.385083,0 7.898263,3.533175 7.898263,7.918258 l 0,30.433307 c 0,4.385084 -3.51318,7.918259 -7.898263,7.918259 l -59.786852,0 0,7.49835 c 0,4.38509 3.513179,7.91826 7.898263,7.91826 l 65.805529,0 c 4.385082,0 7.898262,-3.53317 7.898262,-7.91826 l 0,-60.886609 c 0,-4.385083 -3.51318,-7.9182588 -7.898262,-7.9182588 l -65.805529,0 z"
     style="fill:#ff0000;fill-opacity:1;fill-rule:nonzero;stroke:none" /><g
     transform="matrix(1,0,0,1.2454729,6.4661309,-29.822616)"
     id="g3529"
     style="fill:#ff0000"><rect
       style="fill:#ff0000;fill-opacity:1;fill-rule:nonzero;stroke:none"
       id="rect3531"
       width="12.412241"
       height="71.840546"
       x="34.462696"
       y="52.044632"
       ry="6.2061205" /><rect
       style="fill:#ff0000;fill-opacity:1;fill-rule:nonzero;stroke:none"
       id="rect3533"
       width="35.356083"
       height="7.1464424"
       x="22.426584"
       y="106.58327"
       ry="3.5732212" /></g></g><g
   id="g3505"><path
     style="fill:#000000;fill-opacity:1;fill-rule:nonzero;stroke:none"
     d="m 32.590639,6.9131382 c -4.385084,0 -7.898263,3.5331758 -7.898263,7.9182588 l 0,7.118435 59.786852,0 c 4.385083,0 7.898263,3.533175 7.898263,7.918258 l 0,30.433307 c 0,4.385084 -3.51318,7.918259 -7.898263,7.918259 l -59.786852,0 0,7.49835 c 0,4.38509 3.513179,7.91826 7.898263,7.91826 l 65.805529,0 c 4.385082,0 7.898262,-3.53317 7.898262,-7.91826 l 0,-60.886609 c 0,-4.385083 -3.51318,-7.9182588 -7.898262,-7.9182588 l -65.805529,0 z"
     id="path3507"
     inkscape:connector-curvature="0" /><g
     id="g3509"
     transform="matrix(1,0,0,1.2454729,6.4661309,-29.822616)"><rect
       ry="6.2061205"
       y="52.044632"
       x="34.462696"
       height="71.840546"
       width="12.412241"
       id="rect3511"
       style="fill:#000000;fill-opacity:1;fill-rule:nonzero;stroke:none" /><rect
       ry="3.5732212"
       y="106.58327"
       x="22.426584"
       height="7.1464424"
       width="35.356083"
       id="rect3513"
       style="fill:#000000;fill-opacity:1;fill-rule:nonzero;stroke:none" /></g></g></svg>