<?xml version="1.0" encoding="UTF-8" standalone="no"?>
<!-- Created with Inkscape (http://www.inkscape.org/) -->

<svg
   xmlns:dc="http://purl.org/dc/elements/1.1/"
   xmlns:cc="http://creativecommons.org/ns#"
   xmlns:rdf="http://www.w3.org/1999/02/22-rdf-syntax-ns#"
   xmlns:svg="http://www.w3.org/2000/svg"
   xmlns="http://www.w3.org/2000/svg"
   xmlns:xlink="http://www.w3.org/1999/xlink"
   xmlns:sodipodi="http://sodipodi.sourceforge.net/DTD/sodipodi-0.dtd"
   xmlns:inkscape="http://www.inkscape.org/namespaces/inkscape"
   height="128"
   id="svg1"
   inkscape:version="0.48.2 r9819"
   sodipodi:docname="list.svg"
   sodipodi:version="0.32"
   version="1.0"
   width="128"
   x="0"
   y="0">
  <metadata
     id="metadata3">
    <rdf:RDF>
      <cc:Work
         rdf:about="">
        <dc:title></dc:title>
        <dc:description />
        <dc:subject>
          <rdf:Bag>
            <rdf:li>hash</rdf:li>
            <rdf:li />
            <rdf:li>action</rdf:li>
            <rdf:li>computer</rdf:li>
            <rdf:li>icons</rdf:li>
            <rdf:li>theme</rdf:li>
          </rdf:Bag>
        </dc:subject>
        <dc:publisher>
          <cc:Agent
             rdf:about="http://www.openclipart.org">
            <dc:title>Danny Allen</dc:title>
          </cc:Agent>
        </dc:publisher>
        <dc:creator>
          <cc:Agent>
            <dc:title>Danny Allen</dc:title>
          </cc:Agent>
        </dc:creator>
        <dc:rights>
          <cc:Agent>
            <dc:title>Danny Allen</dc:title>
          </cc:Agent>
        </dc:rights>
        <dc:date />
        <dc:format>image/svg+xml</dc:format>
        <dc:type
           rdf:resource="http://purl.org/dc/dcmitype/StillImage" />
        <cc:license
           rdf:resource="http://web.resource.org/cc/PublicDomain" />
        <dc:language>en</dc:language>
      </cc:Work>
      <cc:License
         rdf:about="http://web.resource.org/cc/PublicDomain">
        <cc:permits
           rdf:resource="http://web.resource.org/cc/Reproduction" />
        <cc:permits
           rdf:resource="http://web.resource.org/cc/Distribution" />
        <cc:permits
           rdf:resource="http://web.resource.org/cc/DerivativeWorks" />
      </cc:License>
    </rdf:RDF>
  </metadata>
  <sodipodi:namedview
     bordercolor="#666666"
     borderopacity="1.0"
     id="base"
     inkscape:cx="67.115195"
     inkscape:cy="71.394277"
     inkscape:pageopacity="0.0"
     inkscape:pageshadow="2"
     inkscape:window-height="750"
     inkscape:window-width="1280"
     inkscape:window-x="-4"
     inkscape:window-y="28"
     inkscape:zoom="3.4732669"
     pagecolor="#ffffff"
     showgrid="false"
     inkscape:window-maximized="1"
     inkscape:current-layer="svg1" />
  <defs
     id="defs3">
    <linearGradient
       id="linearGradient1160">
      <stop
         id="stop1161"
         offset="0"
         style="stop-color:#000;stop-opacity:1;" />
      <stop
         id="stop1162"
         offset="1"
         style="stop-color:#fff;stop-opacity:1;" />
    </linearGradient>
    <linearGradient
       id="linearGradient1163"
       xlink:href="#linearGradient1160" />
  </defs>
  <path
     d="m 34.505017,76.819313 c 0,-1.138748 0.284685,-2.194456 0.854061,-3.167136 0.593095,-0.996408 1.375981,-1.791151 2.348659,-2.38425 0.97268,-0.593097 2.028394,-0.889647 3.167138,-0.889647 1.115022,0 2.158874,0.296547 3.131547,0.889647 0.972684,0.593091 1.743711,1.387842 2.313083,2.38425 0.59312,0.97268 0.889644,2.028388 0.889644,3.167136 0,1.162468 -0.29656,2.241906 -0.889644,3.238305 -0.569372,0.97268 -1.352258,1.74371 -2.348664,2.313075 -0.972678,0.569373 -2.004667,0.854061 -3.095966,0.854061 -1.115023,0 -2.170734,-0.284653 -3.167138,-0.854061 -0.972678,-0.569365 -1.755564,-1.340395 -2.348659,-2.313075 -0.569376,-0.996399 -0.854061,-2.075837 -0.854061,-3.238305 z m -19.145165,-0.676132 0,-35.479046 -3.736508,0 c -1.6843943,0 -3.0129318,-0.545651 -3.9856111,-1.636948 -0.9726788,-1.115022 -1.4590176,-2.39611 -1.4590176,-3.843266 0,-1.494605 0.4744777,-2.787555 1.4234322,-3.878853 0.9489536,-1.115022 2.2893529,-1.672532 4.0211965,-1.672532 l 9.643754,0 c 1.684394,0 3.084102,0.427026 4.199124,1.281087 1.138746,0.85406 1.708119,2.419835 1.708119,4.697329 l 0,40.532229 c 0,2.063977 -0.545651,3.641619 -1.636945,4.732909 -1.067577,1.067577 -2.491009,1.601362 -4.270298,1.601362 -1.779293,0 -3.214585,-0.533785 -4.305884,-1.601362 -1.067573,-1.09129 -1.601362,-2.668932 -1.601362,-4.732909 z"
     id="path844"
     style="font-size:12px;font-weight:900;fill:#000000;stroke-width:1pt;font-family:VAG Rounded Black SSi"
     inkscape:connector-curvature="0" />
  <g
     id="g835"
     transform="matrix(2.6002167,0,0,2.6002167,-17.617694,18.937198)"
     style="fill:#000000;stroke:#000000;stroke-opacity:1">
    <path
       d="m 25.957152,8.3401788 28.50197,0"
       id="path839"
       sodipodi:stroke-cmyk="(0.0000000 0.0000000 0.0000000 0.80000001)"
       style="fill:#000000;stroke:#000000;stroke-width:3.4041636;stroke-linecap:round;stroke-linejoin:round;stroke-opacity:1;stroke-dasharray:none"
       transform="matrix(0.842712,0,0,1,8.232893,0.763446)"
       inkscape:connector-curvature="0" />
    <path
       d="m 25.957152,18.9701 28.50197,0"
       id="path841"
       sodipodi:stroke-cmyk="(0.0000000 0.0000000 0.0000000 0.80000001)"
       style="fill:#000000;stroke:#000000;stroke-width:3.4041636;stroke-linecap:round;stroke-linejoin:round;stroke-opacity:1;stroke-dasharray:none"
       transform="matrix(0.842712,0,0,1,8.232893,0.763446)"
       inkscape:connector-curvature="0" />
  </g>
  <rect
     x="-19.625668"
     y="-158.01276"
     transform="matrix(-0.70710678,0.70710678,-0.70710678,-0.70710678,0,0)"
     width="8.9489145"
     height="119.94085"
     id="rect21"
     style="fill:#ff0000;stroke:#ff0000;stroke-opacity:1;stroke-width:4.2;stroke-miterlimit:4;stroke-dasharray:none;opacity:1" />
</svg>
