<?xml version="1.0" encoding="UTF-8" standalone="no"?>
<!-- Created with Inkscape (http://www.inkscape.org/) -->

<svg
   xmlns:dc="http://purl.org/dc/elements/1.1/"
   xmlns:cc="http://creativecommons.org/ns#"
   xmlns:rdf="http://www.w3.org/1999/02/22-rdf-syntax-ns#"
   xmlns:svg="http://www.w3.org/2000/svg"
   xmlns="http://www.w3.org/2000/svg"
   xmlns:xlink="http://www.w3.org/1999/xlink"
   xmlns:sodipodi="http://sodipodi.sourceforge.net/DTD/sodipodi-0.dtd"
   xmlns:inkscape="http://www.inkscape.org/namespaces/inkscape"
   height="128"
   id="svg1"
   inkscape:version="0.48.2 r9819"
   sodipodi:docname="list_add.svg"
   sodipodi:version="0.32"
   version="1.0"
   width="128"
   x="0"
   y="0">
  <metadata
     id="metadata3">
    <rdf:RDF>
      <cc:Work
         rdf:about="">
        <dc:title></dc:title>
        <dc:description />
        <dc:subject>
          <rdf:Bag>
            <rdf:li>hash</rdf:li>
            <rdf:li />
            <rdf:li>action</rdf:li>
            <rdf:li>computer</rdf:li>
            <rdf:li>icons</rdf:li>
            <rdf:li>theme</rdf:li>
          </rdf:Bag>
        </dc:subject>
        <dc:publisher>
          <cc:Agent
             rdf:about="http://www.openclipart.org">
            <dc:title>Danny Allen</dc:title>
          </cc:Agent>
        </dc:publisher>
        <dc:creator>
          <cc:Agent>
            <dc:title>Danny Allen</dc:title>
          </cc:Agent>
        </dc:creator>
        <dc:rights>
          <cc:Agent>
            <dc:title>Danny Allen</dc:title>
          </cc:Agent>
        </dc:rights>
        <dc:date />
        <dc:format>image/svg+xml</dc:format>
        <dc:type
           rdf:resource="http://purl.org/dc/dcmitype/StillImage" />
        <cc:license
           rdf:resource="http://web.resource.org/cc/PublicDomain" />
        <dc:language>en</dc:language>
      </cc:Work>
      <cc:License
         rdf:about="http://web.resource.org/cc/PublicDomain">
        <cc:permits
           rdf:resource="http://web.resource.org/cc/Reproduction" />
        <cc:permits
           rdf:resource="http://web.resource.org/cc/Distribution" />
        <cc:permits
           rdf:resource="http://web.resource.org/cc/DerivativeWorks" />
      </cc:License>
    </rdf:RDF>
  </metadata>
  <sodipodi:namedview
     bordercolor="#666666"
     borderopacity="1.0"
     id="base"
     inkscape:cx="104.09391"
     inkscape:cy="89.349866"
     inkscape:pageopacity="0.0"
     inkscape:pageshadow="2"
     inkscape:window-height="750"
     inkscape:window-width="1280"
     inkscape:window-x="-4"
     inkscape:window-y="28"
     inkscape:zoom="2.4559706"
     pagecolor="#ffffff"
     showgrid="false"
     inkscape:window-maximized="1"
     inkscape:current-layer="svg1" />
  <defs
     id="defs3">
    <linearGradient
       id="linearGradient1160">
      <stop
         id="stop1161"
         offset="0"
         style="stop-color:#000;stop-opacity:1;" />
      <stop
         id="stop1162"
         offset="1"
         style="stop-color:#fff;stop-opacity:1;" />
    </linearGradient>
    <linearGradient
       id="linearGradient1163"
       xlink:href="#linearGradient1160" />
  </defs>
  <path
     d="m 28.19477,39.45871 c 0,-0.935339 0.233833,-1.802471 0.701504,-2.601406 0.487153,-0.818424 1.130196,-1.471205 1.929129,-1.958362 0.798934,-0.487155 1.666071,-0.730733 2.601406,-0.730733 0.915851,0 1.773245,0.243576 2.572173,0.730733 0.798938,0.48715 1.43224,1.139938 1.899908,1.958362 0.487174,0.798935 0.730731,1.666067 0.730731,2.601406 0,0.954821 -0.243587,1.841444 -0.730731,2.659861 -0.467668,0.798935 -1.11071,1.432239 -1.929133,1.899901 -0.798933,0.467669 -1.646582,0.701504 -2.542948,0.701504 -0.915851,0 -1.782985,-0.233807 -2.601406,-0.701504 C 30.02647,43.55081 29.383427,42.917506 28.896274,42.118571 28.428603,41.300154 28.19477,40.413531 28.19477,39.45871 z m -15.725352,-0.555358 0,-29.141587 -3.069073,0 C 8.016826,9.761765 6.9256,9.313581 6.126666,8.417218 5.327732,7.501367 4.928266,6.449114 4.928266,5.260457 4.928266,4.032826 5.317989,2.970829 6.097437,2.074465 6.876883,1.158614 7.977853,0.7006896 9.400345,0.7006896 l 7.921134,0 c 1.383519,0 2.533204,0.3507484 3.449054,1.0522524 0.935337,0.701503 1.403006,1.987591 1.403006,3.858267 l 0,33.292143 c 0,1.695298 -0.448184,2.991133 -1.344545,3.887491 -0.876881,0.876881 -2.046052,1.315318 -3.507515,1.315318 -1.461466,0 -2.640378,-0.438437 -3.536743,-1.315318 -0.876878,-0.896358 -1.315318,-2.192193 -1.315318,-3.887491 z"
     id="path844"
     style="font-size:12px;font-weight:900;fill:#000000;stroke-width:1pt;font-family:VAG Rounded Black SSi"
     inkscape:connector-curvature="0" />
  <g
     id="g835"
     transform="matrix(2.6002167,0,0,2.6002167,-35.154984,-13.559601)"
     style="fill:#000000;stroke:#000000;stroke-opacity:1">
    <path
       d="m 25.957152,8.3401788 28.50197,0"
       id="path839"
       sodipodi:stroke-cmyk="(0.0000000 0.0000000 0.0000000 0.80000001)"
       style="fill:#000000;stroke:#000000;stroke-width:3.4041636;stroke-linecap:round;stroke-linejoin:round;stroke-opacity:1;stroke-dasharray:none"
       transform="matrix(0.842712,0,0,1,8.232893,0.763446)"
       inkscape:connector-curvature="0" />
    <path
       d="m 25.957152,18.9701 28.50197,0"
       id="path841"
       sodipodi:stroke-cmyk="(0.0000000 0.0000000 0.0000000 0.80000001)"
       style="fill:#000000;stroke:#000000;stroke-width:3.4041636;stroke-linecap:round;stroke-linejoin:round;stroke-opacity:1;stroke-dasharray:none"
       transform="matrix(0.842712,0,0,1,8.232893,0.763446)"
       inkscape:connector-curvature="0" />
  </g>
  <g
     id="g3020"
     transform="matrix(0.43542459,0,0,0.43542459,7.1415989,35.213607)">
    <path
       inkscape:connector-curvature="0"
       id="path6"
       style="fill:#00aad4"
       d="m 73.722514,50.443852 0,26.121281 -26.12256,0 c -2.386081,7.130118 -2.348015,14.960177 0,22.092378 l 26.12256,0 0,26.126219 c 7.131551,2.37942 14.959855,2.34176 22.093463,0 l 0,-26.126219 26.122563,0 c 2.38591,-7.129854 2.34683,-14.959009 0.006,-22.092378 l -26.127491,0 0,-26.121281 c -7.131554,-2.379427 -14.959854,-2.341755 -22.093463,0 z" />
    <path
       d="m 74.141418,53.283183 0,24.125933 -24.12711,0 c -2.203816,6.585465 -2.168658,13.817401 0,20.404792 l 24.12711,0 0,24.130482 c 6.586787,2.19767 13.817103,2.1629 20.405789,0 l 0,-24.130482 24.127113,0 c 2.20366,-6.585223 2.16757,-13.816326 0.006,-20.404792 l -24.131662,0 0,-24.125933 c -6.586798,-2.197666 -13.817102,-2.162872 -20.405789,0 z"
       style="fill:#000000"
       id="path2997"
       inkscape:connector-curvature="0" />
    <path
       inkscape:connector-curvature="0"
       id="path3018"
       style="fill:#000000"
       d="m 74.141418,53.283183 0,24.125933 -24.12711,0 c -2.203816,6.585465 -2.168658,13.817401 0,20.404792 l 24.12711,0 0,24.130482 c 6.586787,2.19767 13.817103,2.1629 20.405789,0 l 0,-24.130482 24.127113,0 c 2.20366,-6.585223 2.16757,-13.816326 0.006,-20.404792 l -24.131662,0 0,-24.125933 c -6.586798,-2.197666 -13.817102,-2.162872 -20.405789,0 z" />
  </g>
  <g
     transform="matrix(0.43542459,0,0,0.43542459,38.493766,51.093276)"
     id="g3025">
    <path
       d="m 73.722514,50.443852 0,26.121281 -26.12256,0 c -2.386081,7.130118 -2.348015,14.960177 0,22.092378 l 26.12256,0 0,26.126219 c 7.131551,2.37942 14.959855,2.34176 22.093463,0 l 0,-26.126219 26.122563,0 c 2.38591,-7.129854 2.34683,-14.959009 0.006,-22.092378 l -26.127491,0 0,-26.121281 c -7.131554,-2.379427 -14.959854,-2.341755 -22.093463,0 z"
       style="fill:#00aad4"
       id="path3027"
       inkscape:connector-curvature="0" />
    <path
       inkscape:connector-curvature="0"
       id="path3029"
       style="fill:#000000"
       d="m 74.141418,53.283183 0,24.125933 -24.12711,0 c -2.203816,6.585465 -2.168658,13.817401 0,20.404792 l 24.12711,0 0,24.130482 c 6.586787,2.19767 13.817103,2.1629 20.405789,0 l 0,-24.130482 24.127113,0 c 2.20366,-6.585223 2.16757,-13.816326 0.006,-20.404792 l -24.131662,0 0,-24.125933 c -6.586798,-2.197666 -13.817102,-2.162872 -20.405789,0 z" />
    <path
       d="m 74.141418,53.283183 0,24.125933 -24.12711,0 c -2.203816,6.585465 -2.168658,13.817401 0,20.404792 l 24.12711,0 0,24.130482 c 6.586787,2.19767 13.817103,2.1629 20.405789,0 l 0,-24.130482 24.127113,0 c 2.20366,-6.585223 2.16757,-13.816326 0.006,-20.404792 l -24.131662,0 0,-24.125933 c -6.586798,-2.197666 -13.817102,-2.162872 -20.405789,0 z"
       style="fill:#000000"
       id="path3031"
       inkscape:connector-curvature="0" />
  </g>
  <g
     id="g3033"
     transform="matrix(0.43542459,0,0,0.43542459,70.660275,65.751432)">
    <path
       inkscape:connector-curvature="0"
       id="path3035"
       style="fill:#00aad4"
       d="m 73.722514,50.443852 0,26.121281 -26.12256,0 c -2.386081,7.130118 -2.348015,14.960177 0,22.092378 l 26.12256,0 0,26.126219 c 7.131551,2.37942 14.959855,2.34176 22.093463,0 l 0,-26.126219 26.122563,0 c 2.38591,-7.129854 2.34683,-14.959009 0.006,-22.092378 l -26.127491,0 0,-26.121281 c -7.131554,-2.379427 -14.959854,-2.341755 -22.093463,0 z" />
    <path
       d="m 74.141418,53.283183 0,24.125933 -24.12711,0 c -2.203816,6.585465 -2.168658,13.817401 0,20.404792 l 24.12711,0 0,24.130482 c 6.586787,2.19767 13.817103,2.1629 20.405789,0 l 0,-24.130482 24.127113,0 c 2.20366,-6.585223 2.16757,-13.816326 0.006,-20.404792 l -24.131662,0 0,-24.125933 c -6.586798,-2.197666 -13.817102,-2.162872 -20.405789,0 z"
       style="fill:#000000"
       id="path3037"
       inkscape:connector-curvature="0" />
    <path
       inkscape:connector-curvature="0"
       id="path3039"
       style="fill:#000000"
       d="m 74.141418,53.283183 0,24.125933 -24.12711,0 c -2.203816,6.585465 -2.168658,13.817401 0,20.404792 l 24.12711,0 0,24.130482 c 6.586787,2.19767 13.817103,2.1629 20.405789,0 l 0,-24.130482 24.127113,0 c 2.20366,-6.585223 2.16757,-13.816326 0.006,-20.404792 l -24.131662,0 0,-24.125933 c -6.586798,-2.197666 -13.817102,-2.162872 -20.405789,0 z" />
  </g>
</svg>
