<?xml version="1.0" encoding="UTF-8" standalone="no"?>
<!-- Generator: Adobe Illustrator 15.1.0, SVG Export Plug-In . SVG Version: 6.00 Build 0)  -->

<svg
   xmlns:dc="http://purl.org/dc/elements/1.1/"
   xmlns:cc="http://creativecommons.org/ns#"
   xmlns:rdf="http://www.w3.org/1999/02/22-rdf-syntax-ns#"
   xmlns:svg="http://www.w3.org/2000/svg"
   xmlns="http://www.w3.org/2000/svg"
   xmlns:sodipodi="http://sodipodi.sourceforge.net/DTD/sodipodi-0.dtd"
   xmlns:inkscape="http://www.inkscape.org/namespaces/inkscape"
   version="1.1"
   id="Layer_1"
   x="0px"
   y="0px"
   width="82px"
   height="100px"
   viewBox="0 0 82 100"
   enable-background="new 0 0 82 100"
   xml:space="preserve"
   inkscape:version="0.48.2 r9819"
   sodipodi:docname="move_node.svg"><metadata
   id="metadata9"><rdf:RDF><cc:Work
       rdf:about=""><dc:format>image/svg+xml</dc:format><dc:type
         rdf:resource="http://purl.org/dc/dcmitype/StillImage" /><dc:title /></cc:Work></rdf:RDF></metadata><defs
   id="defs7" /><sodipodi:namedview
   pagecolor="#ffffff"
   bordercolor="#666666"
   borderopacity="1"
   objecttolerance="10"
   gridtolerance="10"
   guidetolerance="10"
   inkscape:pageopacity="0"
   inkscape:pageshadow="2"
   inkscape:window-width="1280"
   inkscape:window-height="750"
   id="namedview5"
   showgrid="false"
   inkscape:zoom="4.72"
   inkscape:cx="58.49918"
   inkscape:cy="41.61328"
   inkscape:window-x="-4"
   inkscape:window-y="28"
   inkscape:window-maximized="1"
   inkscape:current-layer="Layer_1" />

<g
   id="g2992"
   transform="matrix(1.0750626,0,0,1.0750626,-11.431313,-14.818846)"><polygon
     id="polygon5"
     points="50,61 70,41 57,41 57,0 43,0 43,41 30,41 "
     transform="matrix(1.2373581,0,0,1.2373581,0.75781426,29.845324)" /><polygon
     transform="matrix(1.095339,0,0,1.095339,6.0381355,33.753178)"
     points="70,41 57,41 57,0 43,0 43,41 30,41 50,61 "
     id="polygon3065" /><polygon
     style="fill:#ff0000"
     transform="matrix(1.2373581,0,0,1.2373581,-0.5529464,29.845324)"
     points="70,41 57,41 57,0 43,0 43,41 30,41 50,61 "
     id="polygon3063" /></g><path
   d="m 8.9430249,0.50374634 0,10.78344366 -7.132795,0 0,5.391724 7.132795,0 0,10.783442 26.9586101,0 0,-26.95860966 -26.9586101,0 z"
   id="polygon3-6"
   inkscape:connector-curvature="0" /></svg>