<?xml version="1.0" encoding="UTF-8" standalone="no"?>
<!-- Generator: Adobe Illustrator 15.1.0, SVG Export Plug-In . SVG Version: 6.00 Build 0)  -->

<svg
   xmlns:dc="http://purl.org/dc/elements/1.1/"
   xmlns:cc="http://creativecommons.org/ns#"
   xmlns:rdf="http://www.w3.org/1999/02/22-rdf-syntax-ns#"
   xmlns:svg="http://www.w3.org/2000/svg"
   xmlns="http://www.w3.org/2000/svg"
   xmlns:xlink="http://www.w3.org/1999/xlink"
   xmlns:sodipodi="http://sodipodi.sourceforge.net/DTD/sodipodi-0.dtd"
   xmlns:inkscape="http://www.inkscape.org/namespaces/inkscape"
   version="1.1"
   id="Layer_1"
   x="0px"
   y="0px"
   width="128"
   height="128"
   viewBox="0 0 128 128"
   enable-background="new 0 0 82 100"
   xml:space="preserve"
   inkscape:version="0.48.3.1 r9886"
   sodipodi:docname="convert_jpeg.svg"><metadata
   id="metadata9"><rdf:RDF><cc:Work
       rdf:about=""><dc:format>image/svg+xml</dc:format><dc:type
         rdf:resource="http://purl.org/dc/dcmitype/StillImage" /><dc:title></dc:title></cc:Work></rdf:RDF></metadata><defs
   id="defs7"><radialGradient
     inkscape:collect="always"
     xlink:href="#XMLID_2_"
     id="radialGradient2103"
     gradientUnits="userSpaceOnUse"
     gradientTransform="matrix(0.740051,-0.177588,0.177588,0.740051,-0.87971,35.64337)"
     cx="11.026738"
     cy="7.9994998"
     fx="11.026738"
     fy="7.9994998"
     r="156.98399" /><radialGradient
     id="XMLID_2_"
     cx="11.026738"
     cy="7.9994998"
     r="156.98399"
     gradientUnits="userSpaceOnUse"
     fx="11.026738"
     fy="7.9994998"><stop
       offset="0.0765"
       style="stop-color:#ffce05;stop-opacity:1;"
       id="stop12" /><stop
       offset="0.18870001"
       style="stop-color:#f9d940;stop-opacity:1;"
       id="stop14" /><stop
       offset="0.3467"
       style="stop-color:#FDE446"
       id="stop16" /><stop
       offset="0.4294"
       style="stop-color:#FFEB55"
       id="stop18" /><stop
       offset="0.6882"
       style="stop-color:#FFEB55"
       id="stop20" /><stop
       offset="0.7281"
       style="stop-color:#FEE951"
       id="stop22" /><stop
       offset="0.7641"
       style="stop-color:#FDE446"
       id="stop24" /><stop
       offset="0.7987"
       style="stop-color:#FADB34"
       id="stop26" /><stop
       offset="0.8322"
       style="stop-color:#F7CF1A"
       id="stop28" /><stop
       offset="0.8588"
       style="stop-color:#F3C300"
       id="stop30" /><stop
       offset="0.9208"
       style="stop-color:#FBD400"
       id="stop32" /><stop
       offset="0.9706"
       style="stop-color:#FFDD00"
       id="stop34" /></radialGradient><linearGradient
     inkscape:collect="always"
     xlink:href="#linearGradient2221"
     id="linearGradient2105"
     gradientUnits="userSpaceOnUse"
     gradientTransform="matrix(0.76106,0,0,0.76106,-8.622255,35.27959)"
     x1="-19.342056"
     y1="-36.226715"
     x2="152.20572"
     y2="93.202377" /><linearGradient
     id="linearGradient2221"><stop
       style="stop-color:#ffffff;stop-opacity:1;"
       offset="0"
       id="stop2223" /><stop
       id="stop2233"
       offset="0.25"
       style="stop-color:#ffffff;stop-opacity:0.44927537;" /><stop
       style="stop-color:#ffffff;stop-opacity:0.69803922;"
       offset="0.45480227"
       id="stop2235" /><stop
       id="stop2231"
       offset="0.5"
       style="stop-color:#ffffff;stop-opacity:0.942029;" /><stop
       style="stop-color:#ffffff;stop-opacity:0;"
       offset="1"
       id="stop2225" /></linearGradient><linearGradient
     y2="93.202377"
     x2="152.20572"
     y1="-36.226715"
     x1="-19.342056"
     gradientTransform="matrix(0.76106,0,0,0.76106,-8.622255,35.27959)"
     gradientUnits="userSpaceOnUse"
     id="linearGradient3258"
     xlink:href="#linearGradient2221"
     inkscape:collect="always" /></defs><sodipodi:namedview
   pagecolor="#ffffff"
   bordercolor="#666666"
   borderopacity="1"
   objecttolerance="10"
   gridtolerance="10"
   guidetolerance="10"
   inkscape:pageopacity="0"
   inkscape:pageshadow="2"
   inkscape:window-width="1280"
   inkscape:window-height="750"
   id="namedview5"
   showgrid="false"
   inkscape:zoom="1.7011719"
   inkscape:cx="-149.1158"
   inkscape:cy="59.856665"
   inkscape:window-x="-4"
   inkscape:window-y="28"
   inkscape:window-maximized="1"
   inkscape:current-layer="Layer_1" />

<g
   transform="matrix(1.2024336,0.30296768,-0.29218178,1.2469091,12.810863,-43.923006)"
   id="g2089"><path
     inkscape:connector-curvature="0"
     style="opacity:0.15;fill:#323232"
     d="M 7.958868,37.501944 C 6.3263155,37.893703 5.3172569,39.539947 5.709016,41.1725 l 19.889856,82.88571 c 0.391759,1.63255 2.038003,2.64161 3.670556,2.24985 l 82.885712,-19.88985 c 1.63255,-0.39176 2.64161,-2.03801 2.24985,-3.67056 L 94.515136,19.86194 C 94.123377,18.229387 92.477133,17.220329 90.84458,17.612088 L 7.958868,37.501944 z"
     id="path2091" /><path
     inkscape:connector-curvature="0"
     style="opacity:0.2;fill:#323232"
     d="m 8.136456,38.241995 c -1.2240444,0.293731 -1.9811196,1.528873 -1.687389,2.752917 l 19.889856,82.885708 c 0.293731,1.22405 1.528873,1.98112 2.752917,1.68739 l 82.88571,-19.88985 c 1.22405,-0.29373 1.98112,-1.52888 1.68739,-2.75292 L 93.775085,20.039528 c -0.293731,-1.224044 -1.528873,-1.98112 -2.752917,-1.687389 L 8.136456,38.241995 z"
     id="path2093" /><path
     inkscape:connector-curvature="0"
     style="opacity:0.25;fill:#323232"
     d="m 8.314044,38.982046 c -0.8162763,0.19588 -1.3208056,1.019002 -1.124926,1.835278 l 19.889856,82.885716 c 0.19588,0.81627 1.019002,1.3208 1.835278,1.12492 l 82.885708,-19.88985 c 0.81628,-0.19588 1.32081,-1.01901 1.12493,-1.83528 L 93.035034,20.217116 C 92.839154,19.40084 92.016032,18.89631 91.199756,19.09219 L 8.314044,38.982046 z"
     id="path2095" /><path
     inkscape:connector-curvature="0"
     style="opacity:0.3;fill:#323232"
     d="m 8.491632,39.722097 c -0.4085082,0.09803 -0.6604916,0.509131 -0.562463,0.917639 l 19.889856,82.885714 c 0.09821,0.40925 0.509131,0.66049 0.917639,0.56246 l 82.885716,-19.88986 c 0.40924,-0.0982 0.66067,-0.50839 0.56246,-0.91763 L 92.294983,20.394704 c -0.09803,-0.408508 -0.508391,-0.660669 -0.917639,-0.562463 L 8.491632,39.722097 z"
     id="path2097" /><path
     inkscape:connector-curvature="0"
     style="fill:url(#radialGradient2103)"
     d="M 107.43214,82.571529 110.3619,101.30365 91.214459,109.02907 26.706434,124.50889 6.1810419,38.937029 91.952145,18.062763 107.43214,82.571529 z"
     id="path2099"
     sodipodi:nodetypes="ccccccc" /><rect
     style="opacity:0.86885244;fill:url(#linearGradient3258);fill-opacity:1;fill-rule:nonzero;stroke:none"
     id="rect2101"
     width="88.185265"
     height="13.895027"
     x="-3.2568481"
     y="39.282223"
     transform="matrix(0.972395,-0.233343,0.233343,0.972395,0,0)" /></g></svg>