<?xml version="1.0" encoding="UTF-8" standalone="no"?>
<!-- Generator: Adobe Illustrator 15.1.0, SVG Export Plug-In . SVG Version: 6.00 Build 0)  -->

<svg
   xmlns:dc="http://purl.org/dc/elements/1.1/"
   xmlns:cc="http://creativecommons.org/ns#"
   xmlns:rdf="http://www.w3.org/1999/02/22-rdf-syntax-ns#"
   xmlns:svg="http://www.w3.org/2000/svg"
   xmlns="http://www.w3.org/2000/svg"
   xmlns:sodipodi="http://sodipodi.sourceforge.net/DTD/sodipodi-0.dtd"
   xmlns:inkscape="http://www.inkscape.org/namespaces/inkscape"
   version="1.1"
   id="Layer_1"
   x="0px"
   y="0px"
   width="128"
   height="128"
   viewBox="0 0 128 128"
   enable-background="new 0 0 82 100"
   xml:space="preserve"
   inkscape:version="0.48.3.1 r9886"
   sodipodi:docname="node_format.svg"><metadata
   id="metadata9"><rdf:RDF><cc:Work
       rdf:about=""><dc:format>image/svg+xml</dc:format><dc:type
         rdf:resource="http://purl.org/dc/dcmitype/StillImage" /><dc:title /></cc:Work></rdf:RDF></metadata><defs
   id="defs7" /><sodipodi:namedview
   pagecolor="#ffffff"
   bordercolor="#666666"
   borderopacity="1"
   objecttolerance="10"
   gridtolerance="10"
   guidetolerance="10"
   inkscape:pageopacity="0"
   inkscape:pageshadow="2"
   inkscape:window-width="1280"
   inkscape:window-height="755"
   id="namedview5"
   showgrid="false"
   inkscape:zoom="3.4023438"
   inkscape:cx="155.65962"
   inkscape:cy="71.703074"
   inkscape:window-x="0"
   inkscape:window-y="24"
   inkscape:window-maximized="1"
   inkscape:current-layer="Layer_1" />

<g
   id="g3007"
   transform="translate(-1.1756601,-1.7634902)"><g
     id="g3002"><g
       style="fill:#0000ff"
       transform="matrix(0.78963135,0,0,0.78963135,52.500689,53.235478)"
       id="g2996"><path
         style="fill:#0000ff"
         id="path2998"
         d="m 80.3,29.8 c 2.601,-3.3 5.3,-6.5 7.9,-9.9 0.1,-0.1 0.1,-0.1 0.1,-0.1 -2.9,-3.9 -6.4,-7.3 -10.5,-10.3 0,0 0,0 0,0.1 -3.3,2.6 -6.5,5.3 -9.6,8 -1.3,-0.8 -2.5,-1.5 -3.8,-2 -1.5,-0.8 -3.101,-1.4 -4.801,-1.9 -0.6,-0.2 -1.199,-0.3 -1.8,-0.5 C 57.5,9 57,4.8 56.6,0.6 54.6,0.3 52.5,0.1 50.5,0 c -0.6,0 -1.1,0 -1.6,0 -0.5,0 -1,0 -1.6,0 -1.8,0.1 -3.6,0.2 -5.4,0.5 -0.4,4.2 -0.8,8.4 -1.2,12.6 -0.7,0.1 -1.4,0.3 -2,0.5 -0.2,0 -0.4,0.1 -0.6,0.1 -1.6,0.5 -3.2,1.1 -4.7,1.9 -1.3,0.5 -2.5,1.2 -3.7,2 -3.2,-2.7 -6.4,-5.3 -9.7,-7.9 0,0 -0.1,-0.1 -0.2,-0.2 -0.7,0.6 -1.5,1.2 -2.2,1.8 -1.2,1 -2.3,2 -3.4,3.2 -1.7,1.6 -3.2,3.5 -4.6,5.4 0,0.1 0,0.1 0.1,0.1 2.6,3.3 5.2,6.5 7.9,9.6 -0.7,1.2 -1.4,2.5 -2,3.7 -0.7,1.6 -1.4,3.2 -1.8,4.9 -0.1,0 -0.1,0 -0.1,0.1 -0.2,0.6 -0.4,1.3 -0.5,2.1 -4.3,0.3 -8.5,0.7 -12.7,1.2 -0.2,1.9 -0.4,3.9 -0.5,5.9 0.1,3 0.3,5.899 0.8,8.7 4.1,0.5 8.2,0.9 12.4,1.199 0.1,0.7 0.3,1.4 0.5,2.101 0.5,1.7 1.2,3.399 1.9,5 0.7,1.3 1.3,2.7 2.2,4 -2.6,3.2 -5.3,6.399 -7.8,9.7 2.9,4 6.3,7.5 10.3,10.3 0,0 0,0 0.1,0 3.2,-2.7 6.4,-5.3 9.6,-8 0,0 0,0 0,-0.101 1.1,0.7 2.1,1.301 3.3,1.801 1.8,0.8 3.6,1.5 5.4,2 0.7,0.199 1.3,0.399 2,0.5 0.3,4.3 0.8,8.4 1.2,12.6 1.8,0.3 3.6,0.4 5.5,0.5 0.5,0 1.4,0 2.9,0 2.101,-0.1 4.2,-0.3 6.3,-0.6 0.4,-4.2 0.9,-8.4 1.2,-12.7 0.601,-0.101 1.2,-0.3 1.8,-0.4 1.7,-0.5 3.301,-1.1 4.9,-1.899 1.3,-0.601 2.7,-1.301 4,-2.2 0,0 0.1,0 0.2,0.1 3.2,2.7 6.399,5.3 9.8,8 0.6,-0.5 1.2,-1 1.7,-1.399 1.2,-1.101 2.399,-2.101 3.5,-3.301 1.7,-1.8 3.399,-3.8 4.899,-5.899 -2.6,-3.3 -5.3,-6.5 -8,-9.7 -0.1,0 -0.1,-0.1 -0.1,-0.1 0.7,-1.101 1.2,-2.2 1.8,-3.301 0.7,-1.5 1.3,-3.1 1.8,-4.699 0,-0.2 0.101,-0.4 0.101,-0.5 0.2,-0.601 0.3,-1.2 0.5,-1.7 4.2,-0.4 8.399,-0.8 12.6,-1.2 0.3,-1.9 0.4,-3.9 0.5,-5.9 0,-0.5 0,-1 0,-1.5 0,-0.5 0,-1 0,-1.5 -0.1,-2 -0.2,-4 -0.5,-5.9 -4.2,-0.4 -8.399,-0.8 -12.6,-1.2 -0.2,-0.5 -0.3,-1.1 -0.5,-1.7 -0.5,-1.8 -1.2,-3.5 -1.9,-5.2 C 81.7,32.1 81,30.9 80.3,29.8 z m -31.1,1 c 4.899,0 9.1,1.7 12.7,5.2 3.5,3.5 5.199,7.7 5.199,12.7 0,4.9 -1.699,9.1 -5.199,12.7 -3.601,3.5 -7.801,5.2 -12.7,5.2 -5,0 -9.2,-1.7 -12.7,-5.2 -3.5,-3.6 -5.3,-7.8 -5.3,-12.7 0,-5 1.8,-9.2 5.3,-12.7 3.5,-3.5 7.7,-5.2 12.7,-5.2 z"
         inkscape:connector-curvature="0" /><path
         style="fill:#0000ff"
         id="path3000"
         d="m 60.2,37.8 c -3,-3 -6.601,-4.5 -10.9,-4.5 -4.2,0 -7.9,1.5 -10.9,4.5 -2.9,3 -4.4,6.6 -4.4,10.9 0,4.2 1.5,7.8 4.4,10.8 h 0.1 c 3,3 6.6,4.5 10.8,4.5 4.3,0 7.9,-1.5 10.9,-4.5 l 0,0 c 3,-3 4.5,-6.601 4.5,-10.8 l 0,0 c 0,-4.3 -1.5,-7.9 -4.5,-10.9 z M 49.3,37.2 c 3.2,0 5.9,1.1 8.2,3.4 2.2,2.2 3.3,4.9 3.3,8.1 l 0,0 c 0,3.2 -1.1,5.8 -3.3,8.1 l 0,0 c -2.3,2.2 -5,3.4 -8.2,3.4 -3.1,0 -5.9,-1.2 -8.1,-3.4 l 0,0 c -2.3,-2.3 -3.4,-5 -3.4,-8.1 0,-3.2 1.1,-5.9 3.4,-8.1 2.2,-2.3 5,-3.4 8.1,-3.4 z"
         inkscape:connector-curvature="0" /></g></g><g
     style="fill:#000000"
     transform="matrix(0.75356816,0,0,0.75356816,54.264179,54.998968)"
     id="g236"><path
       style="fill:#000000"
       id="path238"
       d="m 80.3,29.8 c 2.601,-3.3 5.3,-6.5 7.9,-9.9 0.1,-0.1 0.1,-0.1 0.1,-0.1 -2.9,-3.9 -6.4,-7.3 -10.5,-10.3 0,0 0,0 0,0.1 -3.3,2.6 -6.5,5.3 -9.6,8 -1.3,-0.8 -2.5,-1.5 -3.8,-2 -1.5,-0.8 -3.101,-1.4 -4.801,-1.9 -0.6,-0.2 -1.199,-0.3 -1.8,-0.5 C 57.5,9 57,4.8 56.6,0.6 54.6,0.3 52.5,0.1 50.5,0 c -0.6,0 -1.1,0 -1.6,0 -0.5,0 -1,0 -1.6,0 -1.8,0.1 -3.6,0.2 -5.4,0.5 -0.4,4.2 -0.8,8.4 -1.2,12.6 -0.7,0.1 -1.4,0.3 -2,0.5 -0.2,0 -0.4,0.1 -0.6,0.1 -1.6,0.5 -3.2,1.1 -4.7,1.9 -1.3,0.5 -2.5,1.2 -3.7,2 -3.2,-2.7 -6.4,-5.3 -9.7,-7.9 0,0 -0.1,-0.1 -0.2,-0.2 -0.7,0.6 -1.5,1.2 -2.2,1.8 -1.2,1 -2.3,2 -3.4,3.2 -1.7,1.6 -3.2,3.5 -4.6,5.4 0,0.1 0,0.1 0.1,0.1 2.6,3.3 5.2,6.5 7.9,9.6 -0.7,1.2 -1.4,2.5 -2,3.7 -0.7,1.6 -1.4,3.2 -1.8,4.9 -0.1,0 -0.1,0 -0.1,0.1 -0.2,0.6 -0.4,1.3 -0.5,2.1 -4.3,0.3 -8.5,0.7 -12.7,1.2 -0.2,1.9 -0.4,3.9 -0.5,5.9 0.1,3 0.3,5.899 0.8,8.7 4.1,0.5 8.2,0.9 12.4,1.199 0.1,0.7 0.3,1.4 0.5,2.101 0.5,1.7 1.2,3.399 1.9,5 0.7,1.3 1.3,2.7 2.2,4 -2.6,3.2 -5.3,6.399 -7.8,9.7 2.9,4 6.3,7.5 10.3,10.3 0,0 0,0 0.1,0 3.2,-2.7 6.4,-5.3 9.6,-8 0,0 0,0 0,-0.101 1.1,0.7 2.1,1.301 3.3,1.801 1.8,0.8 3.6,1.5 5.4,2 0.7,0.199 1.3,0.399 2,0.5 0.3,4.3 0.8,8.4 1.2,12.6 1.8,0.3 3.6,0.4 5.5,0.5 0.5,0 1.4,0 2.9,0 2.101,-0.1 4.2,-0.3 6.3,-0.6 0.4,-4.2 0.9,-8.4 1.2,-12.7 0.601,-0.101 1.2,-0.3 1.8,-0.4 1.7,-0.5 3.301,-1.1 4.9,-1.899 1.3,-0.601 2.7,-1.301 4,-2.2 0,0 0.1,0 0.2,0.1 3.2,2.7 6.399,5.3 9.8,8 0.6,-0.5 1.2,-1 1.7,-1.399 1.2,-1.101 2.399,-2.101 3.5,-3.301 1.7,-1.8 3.399,-3.8 4.899,-5.899 -2.6,-3.3 -5.3,-6.5 -8,-9.7 -0.1,0 -0.1,-0.1 -0.1,-0.1 0.7,-1.101 1.2,-2.2 1.8,-3.301 0.7,-1.5 1.3,-3.1 1.8,-4.699 0,-0.2 0.101,-0.4 0.101,-0.5 0.2,-0.601 0.3,-1.2 0.5,-1.7 4.2,-0.4 8.399,-0.8 12.6,-1.2 0.3,-1.9 0.4,-3.9 0.5,-5.9 0,-0.5 0,-1 0,-1.5 0,-0.5 0,-1 0,-1.5 -0.1,-2 -0.2,-4 -0.5,-5.9 -4.2,-0.4 -8.399,-0.8 -12.6,-1.2 -0.2,-0.5 -0.3,-1.1 -0.5,-1.7 -0.5,-1.8 -1.2,-3.5 -1.9,-5.2 C 81.7,32.1 81,30.9 80.3,29.8 z m -31.1,1 c 4.899,0 9.1,1.7 12.7,5.2 3.5,3.5 5.199,7.7 5.199,12.7 0,4.9 -1.699,9.1 -5.199,12.7 -3.601,3.5 -7.801,5.2 -12.7,5.2 -5,0 -9.2,-1.7 -12.7,-5.2 -3.5,-3.6 -5.3,-7.8 -5.3,-12.7 0,-5 1.8,-9.2 5.3,-12.7 3.5,-3.5 7.7,-5.2 12.7,-5.2 z"
       inkscape:connector-curvature="0" /><path
       style="fill:#000000"
       id="path240"
       d="m 60.2,37.8 c -3,-3 -6.601,-4.5 -10.9,-4.5 -4.2,0 -7.9,1.5 -10.9,4.5 -2.9,3 -4.4,6.6 -4.4,10.9 0,4.2 1.5,7.8 4.4,10.8 h 0.1 c 3,3 6.6,4.5 10.8,4.5 4.3,0 7.9,-1.5 10.9,-4.5 l 0,0 c 3,-3 4.5,-6.601 4.5,-10.8 l 0,0 c 0,-4.3 -1.5,-7.9 -4.5,-10.9 z M 49.3,37.2 c 3.2,0 5.9,1.1 8.2,3.4 2.2,2.2 3.3,4.9 3.3,8.1 l 0,0 c 0,3.2 -1.1,5.8 -3.3,8.1 l 0,0 c -2.3,2.2 -5,3.4 -8.2,3.4 -3.1,0 -5.9,-1.2 -8.1,-3.4 l 0,0 c -2.3,-2.3 -3.4,-5 -3.4,-8.1 0,-3.2 1.1,-5.9 3.4,-8.1 2.2,-2.3 5,-3.4 8.1,-3.4 z"
       inkscape:connector-curvature="0" /></g></g><g
   id="g2994"
   transform="matrix(1.3526433,0,0,1.3526433,-87.471779,-56.250913)"><path
     style="fill:#0000ff;fill-opacity:0.99215686;fill-rule:nonzero;stroke:none"
     d="m 86.468112,91.908617 0,-35.599756 -10.700503,0 -10.700506,0 0,-7.408044 0,-7.40804 30.455283,0 30.455294,0 0,7.40804 0,7.408044 -10.70052,0 -10.7005,0 0,35.599756 0,35.599763 -9.054274,0 -9.054274,0 0,-35.599763 z"
     id="path2992"
     inkscape:connector-curvature="0" /><path
     inkscape:connector-curvature="0"
     id="path3091"
     d="m 86.90125,91.554231 0,-33.896736 -10.188613,0 -10.188615,0 0,-7.053658 0,-7.053655 28.998364,0 28.998374,0 0,7.053655 0,7.053658 -10.18863,0 -10.18861,0 0,33.896736 0,33.896739 -8.621134,0 -8.621136,0 0,-33.896739 z"
     style="fill:#000000;fill-opacity:0.99215686;fill-rule:nonzero;stroke:none" /></g></svg>