<?xml version="1.0" encoding="UTF-8" standalone="no"?>
<!-- Created with Inkscape (http://www.inkscape.org/) -->

<svg
   xmlns:dc="http://purl.org/dc/elements/1.1/"
   xmlns:cc="http://creativecommons.org/ns#"
   xmlns:rdf="http://www.w3.org/1999/02/22-rdf-syntax-ns#"
   xmlns:svg="http://www.w3.org/2000/svg"
   xmlns="http://www.w3.org/2000/svg"
   xmlns:xlink="http://www.w3.org/1999/xlink"
   xmlns:sodipodi="http://sodipodi.sourceforge.net/DTD/sodipodi-0.dtd"
   xmlns:inkscape="http://www.inkscape.org/namespaces/inkscape"
   width="48"
   height="48"
   id="svg7854"
   sodipodi:version="0.32"
   inkscape:version="0.48.3.1 r9886"
   version="1.0"
   sodipodi:docname="paste_reg.svg"
   inkscape:output_extension="org.inkscape.output.svg.inkscape">
  <defs
     id="defs7856">
    <linearGradient
       inkscape:collect="always"
       id="linearGradient3270">
      <stop
         style="stop-color:#4d4d4d;stop-opacity:1;"
         offset="0"
         id="stop3272" />
      <stop
         style="stop-color:#4d4d4d;stop-opacity:0;"
         offset="1"
         id="stop3274" />
    </linearGradient>
    <linearGradient
       inkscape:collect="always"
       xlink:href="#linearGradient3270"
       id="linearGradient3279"
       gradientUnits="userSpaceOnUse"
       gradientTransform="translate(-8.725e-2,0)"
       x1="17.50375"
       y1="3.534117"
       x2="17.50375"
       y2="40.548317" />
    <linearGradient
       inkscape:collect="always"
       xlink:href="#linearGradient3270"
       id="linearGradient3035"
       gradientUnits="userSpaceOnUse"
       gradientTransform="translate(-0.08725,0)"
       x1="17.50375"
       y1="3.534117"
       x2="17.50375"
       y2="40.548317" />
    <linearGradient
       inkscape:collect="always"
       xlink:href="#linearGradient3270"
       id="linearGradient3077"
       gradientUnits="userSpaceOnUse"
       gradientTransform="translate(-0.08725,0)"
       x1="17.50375"
       y1="3.534117"
       x2="17.50375"
       y2="40.548317" />
    <linearGradient
       inkscape:collect="always"
       xlink:href="#linearGradient3270"
       id="linearGradient3087"
       gradientUnits="userSpaceOnUse"
       gradientTransform="translate(-0.08725,0)"
       x1="17.50375"
       y1="3.534117"
       x2="17.50375"
       y2="40.548317" />
  </defs>
  <sodipodi:namedview
     id="base"
     pagecolor="#ffffff"
     bordercolor="#e0e0e0"
     borderopacity="1"
     gridtolerance="10000"
     guidetolerance="10"
     objecttolerance="10"
     inkscape:pageopacity="0.0"
     inkscape:pageshadow="2"
     inkscape:zoom="5.6568542"
     inkscape:cx="12.011223"
     inkscape:cy="30.031035"
     inkscape:document-units="px"
     inkscape:current-layer="g3024"
     width="48px"
     height="48px"
     inkscape:showpageshadow="false"
     inkscape:window-width="1280"
     inkscape:window-height="750"
     inkscape:window-x="-4"
     inkscape:window-y="28"
     showgrid="false"
     inkscape:window-maximized="1" />
  <metadata
     id="metadata7859">
    <rdf:RDF>
      <cc:Work
         rdf:about="">
        <dc:format>image/svg+xml</dc:format>
        <dc:type
           rdf:resource="http://purl.org/dc/dcmitype/StillImage" />
        <dc:creator>
          <cc:Agent>
            <dc:title>Jakub Steiner</dc:title>
          </cc:Agent>
        </dc:creator>
        <dc:source>http://jimmac.musichall.cz</dc:source>
        <cc:license
           rdf:resource="http://creativecommons.org/licenses/GPL/2.0/" />
        <dc:title></dc:title>
        <dc:subject>
          <rdf:Bag>
            <rdf:li>edit</rdf:li>
            <rdf:li>paste</rdf:li>
          </rdf:Bag>
        </dc:subject>
      </cc:Work>
      <cc:License
         rdf:about="http://creativecommons.org/licenses/GPL/2.0/">
        <cc:permits
           rdf:resource="http://web.resource.org/cc/Reproduction" />
        <cc:permits
           rdf:resource="http://web.resource.org/cc/Distribution" />
        <cc:requires
           rdf:resource="http://web.resource.org/cc/Notice" />
        <cc:permits
           rdf:resource="http://web.resource.org/cc/DerivativeWorks" />
        <cc:requires
           rdf:resource="http://web.resource.org/cc/ShareAlike" />
        <cc:requires
           rdf:resource="http://web.resource.org/cc/SourceCode" />
      </cc:License>
    </rdf:RDF>
  </metadata>
  <g
     inkscape:label="Layer 1"
     inkscape:groupmode="layer"
     id="layer1">
    <g
       transform="matrix(0.6000002,0,0,0.5454547,18.599982,21.710235)"
       id="layer6"
       inkscape:label="Shadow">
      <g
         id="g2043"
         inkscape:label="Shadow"
         transform="matrix(1,0,0,0.555556,-4.549998e-7,13.88887)">
        <g
           style="display:inline"
           id="g2036"
           inkscape:label="Shadow">
          <g
             id="g3712"
             style="opacity:0.4"
             transform="matrix(1.052632,0,0,1.285713,-1.263158,-13.42854)" />
        </g>
      </g>
      <g
         id="g2285"
         inkscape:label="pixmap"
         style="display:inline"
         transform="translate(50.6887,6.21499)" />
      <g
         transform="matrix(0.186703,0,0,0.186703,29.5814,63.83798)"
         id="g891" />
    </g>
    <g
       style="display:inline"
       inkscape:label="Base"
       id="g5657"
       transform="matrix(0.5454547,0,0,0.5454547,42.459071,18.481712)" />
    <g
       transform="translate(92.984542,-9.0156115)"
       id="g3024">
      <g
         id="g3079"
         transform="matrix(1.2485869,0,0,1.2485869,50.176413,28.22285)">
        <g
           id="g3067">
          <path
             sodipodi:nodetypes="sssscccssccccccs"
             inkscape:connector-curvature="0"
             id="rect4613"
             d="m -107.25105,-9.7963886 c -1.5235,0 -2.75,1.2265 -2.75,2.75 l 0,26.4999996 c 0,1.5235 1.2265,2.75 2.75,2.75 l 10.250003,0 c 23.143045,-0.48071 12.314883,-6.419939 1.4375,-19.0624992 5.305351,6.363961 9.994424,17.6131462 15.120559,15.7331252 l 0.441941,-25.9206256 c 0.02597,-1.5232774 -1.2265,-2.75 -2.75,-2.75 l -6.03125,0 2.65625,2.125 c 0,0 -0.05898,1.919194 -1.03125,1.875 l -15.625003,0 c -0.88389,-0.04419 -0.84375,-1.84375 -0.84375,-1.84375 l 2.5625,-2.15625 z"
             style="color:#000000;fill:#000000;fill-opacity:1;fill-rule:nonzero;stroke:none;stroke-width:1;marker:none;visibility:visible;display:block;overflow:visible;enable-background:accumulate" />
          <path
             style="color:#000000;fill:#000000;fill-opacity:1;fill-rule:nonzero;stroke:none;stroke-width:1;marker:none;visibility:visible;display:block;overflow:visible;enable-background:accumulate"
             d="m -80.345034,9.0326679 0,10.5937541 c 0,1.092545 -0.64379,2.024482 -1.5625,2.46875 l -19.531256,0 0,-13.0625041 21.093756,0 z"
             id="path3045"
             inkscape:connector-curvature="0" />
        </g>
        <g
           transform="translate(-119.8546,-18.208)"
           id="g3073">
          <path
             inkscape:connector-curvature="0"
             sodipodi:nodetypes="ccccccccc"
             id="rect3247"
             d="m 17.44125,3.5231172 14.294784,-0.00169 0,5.803777 -1.35282,-1.0577137 0,-3.366318 -11.587141,0 -1.2e-5,3.3721027 -1.35282,1.0503618 -0.002,-5.800522 z"
             style="fill:#000000;fill-opacity:1;stroke:none" />
          <path
             inkscape:connector-curvature="0"
             id="path3250"
             d="m 17.40625,3.53125 0,4.96875 -5.15625,0 C 10.7265,8.5 9.5,9.7265 9.5,11.25 l 0,26.5 c 0,1.5235 1.2265,2.75 2.75,2.75 C 15.583333,24.75 22.916667,16.125 39.5,11.25 39.499999,9.7265 38.2735,8.5 36.75,8.5 l -5.09375,0 0,-4.96875 -14.25,0 z m 1.34375,1.375 11.5625,0 0,3.34375 1.34375,1.0625 0,-0.0625 1.71875,1.375 c 0,0 -0.05898,1.919194 -1.03125,1.875 l -15.625,0 C 15.834867,12.455806 15.875,10.65625 15.875,10.65625 L 18.4375,8.5 18.75,8.25 l 0,-3.34375 z"
             style="fill:url(#linearGradient3087);fill-opacity:1;stroke:none" />
        </g>
      </g>
    </g>
  </g>
</svg>
