<?xml version="1.0" encoding="UTF-8" standalone="no"?>
<!-- Generator: Adobe Illustrator 15.1.0, SVG Export Plug-In . SVG Version: 6.00 Build 0)  -->

<svg
   xmlns:dc="http://purl.org/dc/elements/1.1/"
   xmlns:cc="http://creativecommons.org/ns#"
   xmlns:rdf="http://www.w3.org/1999/02/22-rdf-syntax-ns#"
   xmlns:svg="http://www.w3.org/2000/svg"
   xmlns="http://www.w3.org/2000/svg"
   xmlns:xlink="http://www.w3.org/1999/xlink"
   xmlns:sodipodi="http://sodipodi.sourceforge.net/DTD/sodipodi-0.dtd"
   xmlns:inkscape="http://www.inkscape.org/namespaces/inkscape"
   version="1.1"
   id="Layer_1"
   x="0px"
   y="0px"
   width="128"
   height="128"
   viewBox="0 0 128 128"
   enable-background="new 0 0 78.087 100"
   xml:space="preserve"
   inkscape:version="0.48.3.1 r9886"
   sodipodi:docname="session_davesvg.svg"><metadata
   id="metadata9"><rdf:RDF><cc:Work
       rdf:about=""><dc:format>image/svg+xml</dc:format><dc:type
         rdf:resource="http://purl.org/dc/dcmitype/StillImage" /><dc:title></dc:title></cc:Work></rdf:RDF></metadata><defs
   id="defs7"><linearGradient
     inkscape:collect="always"
     xlink:href="#linearGradient3303"
     id="linearGradient3054"
     gradientUnits="userSpaceOnUse"
     x1="23.260269"
     y1="4.8090873"
     x2="23.260269"
     y2="41.847221" /><linearGradient
     inkscape:collect="always"
     id="linearGradient3303"><stop
       style="stop-color:#4d4d4d;stop-opacity:1;"
       offset="0"
       id="stop3305" /><stop
       style="stop-color:#4d4d4d;stop-opacity:0;"
       offset="1"
       id="stop3307" /></linearGradient><linearGradient
     y2="41.847221"
     x2="23.260269"
     y1="4.8090873"
     x1="23.260269"
     gradientUnits="userSpaceOnUse"
     id="linearGradient3094"
     xlink:href="#linearGradient3303"
     inkscape:collect="always" /></defs><sodipodi:namedview
   pagecolor="#ffffff"
   bordercolor="#666666"
   borderopacity="1"
   objecttolerance="10"
   gridtolerance="10"
   guidetolerance="10"
   inkscape:pageopacity="0"
   inkscape:pageshadow="2"
   inkscape:window-width="1280"
   inkscape:window-height="755"
   id="namedview5"
   showgrid="false"
   inkscape:zoom="2.36"
   inkscape:cx="11.726214"
   inkscape:cy="50"
   inkscape:window-x="0"
   inkscape:window-y="24"
   inkscape:window-maximized="1"
   inkscape:current-layer="Layer_1" />
<g
   id="g3231"
   transform="matrix(0.95597856,0,0,0.95597856,-3.4613127,-0.83374596)"><g
     style="fill:#00ff00"
     id="g3227"
     transform="matrix(1.1236784,0,0,1.081724,-147.57956,-3.7459866)"><polygon
       style="fill:#00ff00"
       transform="matrix(1.2457627,0,0,1.2457627,145.4979,3.8703615)"
       id="polygon3229"
       points="29.051,29.979 29.051,56.817 0,85.868 14.133,100 39.044,75.089 63.955,100 78.087,85.868 49.037,56.817 49.037,29.979 61.029,29.979 39.044,0 17.06,29.979 " /></g><g
     transform="matrix(0.99268498,0,0,1.0273022,-121.72519,-2.2641682)"
     id="g2988"><polygon
       points="39.044,0 17.06,29.979 29.051,29.979 29.051,56.817 0,85.868 14.133,100 39.044,75.089 63.955,100 78.087,85.868 49.037,56.817 49.037,29.979 61.029,29.979 "
       id="polygon3"
       transform="matrix(1.2457627,0,0,1.2457627,145.4979,3.8703615)" /></g></g>
</svg>