<?xml version="1.0" encoding="UTF-8" standalone="no"?>
<!-- Generator: Adobe Illustrator 15.1.0, SVG Export Plug-In . SVG Version: 6.00 Build 0)  -->

<svg
   xmlns:dc="http://purl.org/dc/elements/1.1/"
   xmlns:cc="http://creativecommons.org/ns#"
   xmlns:rdf="http://www.w3.org/1999/02/22-rdf-syntax-ns#"
   xmlns:svg="http://www.w3.org/2000/svg"
   xmlns="http://www.w3.org/2000/svg"
   xmlns:xlink="http://www.w3.org/1999/xlink"
   xmlns:sodipodi="http://sodipodi.sourceforge.net/DTD/sodipodi-0.dtd"
   xmlns:inkscape="http://www.inkscape.org/namespaces/inkscape"
   version="1.1"
   id="Layer_1"
   x="0px"
   y="0px"
   width="128"
   height="128"
   viewBox="0 0 128 128"
   enable-background="new 0 0 78.087 100"
   xml:space="preserve"
   inkscape:version="0.48.3.1 r9886"
   sodipodi:docname="session_restore.svg"><metadata
   id="metadata9"><rdf:RDF><cc:Work
       rdf:about=""><dc:format>image/svg+xml</dc:format><dc:type
         rdf:resource="http://purl.org/dc/dcmitype/StillImage" /><dc:title></dc:title></cc:Work></rdf:RDF></metadata><defs
   id="defs7"><linearGradient
     inkscape:collect="always"
     xlink:href="#linearGradient3303"
     id="linearGradient3054"
     gradientUnits="userSpaceOnUse"
     x1="23.260269"
     y1="4.8090873"
     x2="23.260269"
     y2="41.847221" /><linearGradient
     inkscape:collect="always"
     id="linearGradient3303"><stop
       style="stop-color:#4d4d4d;stop-opacity:1;"
       offset="0"
       id="stop3305" /><stop
       style="stop-color:#4d4d4d;stop-opacity:0;"
       offset="1"
       id="stop3307" /></linearGradient><linearGradient
     y2="41.847221"
     x2="23.260269"
     y1="4.8090873"
     x1="23.260269"
     gradientUnits="userSpaceOnUse"
     id="linearGradient3094"
     xlink:href="#linearGradient3303"
     inkscape:collect="always" /></defs><sodipodi:namedview
   pagecolor="#ffffff"
   bordercolor="#666666"
   borderopacity="1"
   objecttolerance="10"
   gridtolerance="10"
   guidetolerance="10"
   inkscape:pageopacity="0"
   inkscape:pageshadow="2"
   inkscape:window-width="1280"
   inkscape:window-height="755"
   id="namedview5"
   showgrid="false"
   inkscape:zoom="2.36"
   inkscape:cx="-32.771186"
   inkscape:cy="50"
   inkscape:window-x="0"
   inkscape:window-y="24"
   inkscape:window-maximized="1"
   inkscape:current-layer="Layer_1" />
<g
   id="g2988"
   transform="matrix(0.8743622,0,0,0.90485322,-127.14422,13.040262)"><polygon
     transform="matrix(1.2457627,0,0,1.2457627,145.4979,3.8703615)"
     id="polygon3"
     points="29.051,56.817 0,85.868 14.133,100 39.044,75.089 63.955,100 78.087,85.868 49.037,56.817 49.037,29.979 61.029,29.979 39.044,0 17.06,29.979 29.051,29.979 " /></g>
<g
   transform="matrix(1.4912497,0,0,1.4912497,59.773181,-3.2836085)"
   style="display:inline"
   id="g3053"><g
     id="g3020"
     style="fill:#ff0000;display:inline"
     transform="matrix(1.0933403,0,0,1.0933403,-2.2791784,-2.1702796)"><g
       id="g3022"
       transform="translate(0.3242212,-0.6842062)"
       style="fill:#ff0000"><path
         id="path3024"
         d="M 7.4075789,5.495944 C 6.1219913,5.6306901 5.1479022,6.7180454 5.1548154,8.0106568 l 0,27.7404252 c -0.00161,0.667564 0.2622555,1.30838 0.7334579,1.781256 l 4.0864083,4.112603 c 0.4728764,0.471203 1.1136914,0.735068 1.7812554,0.733458 l 28.762027,0 c 1.388781,-1.38e-4 2.514575,-1.125932 2.514713,-2.514713 l 0,-31.8530292 C 43.032539,6.6218768 41.906745,5.4960826 40.517964,5.495944 l -32.8484357,0 c -0.087257,-0.00455 -0.1746922,-0.00455 -0.2619494,0 z m 2.3051534,3.5363144 28.7620287,0 0,13.3594126 -28.7620287,0 0,-13.3594126 z m 4.1126037,17.4720166 17.44582,0 c 1.129626,0 2.069399,0.912519 2.069399,2.043203 l 0,9.273005 c 0,1.130684 -0.939773,2.043203 -2.069399,2.043203 l -17.44582,0 c -1.129627,10e-7 -2.069399,-0.91252 -2.069399,-2.043203 l 0,-9.273005 c 0,-1.130684 0.939772,-2.043203 2.069399,-2.043203 z"
         style="fill:#ff0000;fill-opacity:1;fill-rule:nonzero;stroke:none"
         inkscape:connector-curvature="0" /><path
         sodipodi:nodetypes="ccccc"
         id="path3026"
         d="m 21.264733,36.647984 -5.646342,0 0,-8.477439 5.646342,0 0,8.477439 z"
         style="fill:#ff0000;fill-opacity:1;fill-rule:nonzero;stroke:none"
         inkscape:connector-curvature="0" /></g><path
       style="fill:#ff0000;fill-opacity:1;fill-rule:nonzero;stroke:none"
       d="m 7.7290367,4.8125 c -1.285588,0.1347459 -2.256913,1.2073886 -2.25,2.5 l 0,27.75 c -0.00157,0.652517 0.267335,1.280453 0.71875,1.75 1.684215,-3.042348 3.673292,-6.122815 5.9062503,-9.125 0.07198,-0.804728 0.607545,-1.484189 1.34375,-1.75 1.124066,-1.431211 2.301303,-2.849947 3.53125,-4.21875 l -6.9375,0 0,-13.375 23.1875,0 c 2.53264,-1.4353199 5.151041,-2.621834 7.8125,-3.5 -0.06417,-0.00491 -0.122067,-0.031244 -0.1875,-0.03125 l -32.8437503,0 c -0.087256,-0.00455 -0.193993,-0.00455 -0.28125,0 z"
       id="path3028"
       inkscape:connector-curvature="0" /><path
       style="fill:#ff0000;fill-rule:evenodd;stroke:#000000;stroke-width:1px;stroke-linecap:round;stroke-linejoin:miter;stroke-opacity:1;display:inline"
       d="m 14.042911,12.083077 20.96875,0"
       id="path3030"
       sodipodi:nodetypes="cc"
       inkscape:connector-curvature="0" /><path
       style="fill:#ff0000;fill-rule:evenodd;stroke:#000000;stroke-width:1px;stroke-linecap:round;stroke-linejoin:miter;stroke-opacity:1;display:inline"
       d="m 14.042911,15.083076 20.96875,0"
       id="path3032"
       sodipodi:nodetypes="cc"
       inkscape:connector-curvature="0" /><path
       style="fill:#ff0000;fill-rule:evenodd;stroke:#000000;stroke-width:1px;stroke-linecap:round;stroke-linejoin:miter;stroke-opacity:1;display:inline"
       d="m 14.042911,18.083076 20.96875,0"
       id="path3034"
       sodipodi:nodetypes="cc"
       inkscape:connector-curvature="0" /></g><g
     transform="translate(0.3242212,-0.6842062)"
     id="g2516"><path
       inkscape:connector-curvature="0"
       style="fill:#000000;fill-opacity:1;fill-rule:nonzero;stroke:none"
       d="M 7.4075789,5.495944 C 6.1219913,5.6306901 5.1479022,6.7180454 5.1548154,8.0106568 l 0,27.7404252 c -0.00161,0.667564 0.2622555,1.30838 0.7334579,1.781256 l 4.0864083,4.112603 c 0.4728764,0.471203 1.1136914,0.735068 1.7812554,0.733458 l 28.762027,0 c 1.388781,-1.38e-4 2.514575,-1.125932 2.514713,-2.514713 l 0,-31.8530292 C 43.032539,6.6218768 41.906745,5.4960826 40.517964,5.495944 l -32.8484357,0 c -0.087257,-0.00455 -0.1746922,-0.00455 -0.2619494,0 z m 2.3051534,3.5363144 28.7620287,0 0,13.3594126 -28.7620287,0 0,-13.3594126 z m 4.1126037,17.4720166 17.44582,0 c 1.129626,0 2.069399,0.912519 2.069399,2.043203 l 0,9.273005 c 0,1.130684 -0.939773,2.043203 -2.069399,2.043203 l -17.44582,0 c -1.129627,10e-7 -2.069399,-0.91252 -2.069399,-2.043203 l 0,-9.273005 c 0,-1.130684 0.939772,-2.043203 2.069399,-2.043203 z"
       id="path9" /><path
       inkscape:connector-curvature="0"
       style="fill:#000000;fill-opacity:1;fill-rule:nonzero;stroke:none"
       d="m 21.264733,36.647984 -5.646342,0 0,-8.477439 5.646342,0 0,8.477439 z"
       id="path15"
       sodipodi:nodetypes="ccccc" /></g><path
     inkscape:connector-curvature="0"
     id="path2522"
     d="m 7.7290367,4.8125 c -1.285588,0.1347459 -2.256913,1.2073886 -2.25,2.5 l 0,27.75 c -0.00157,0.652517 0.267335,1.280453 0.71875,1.75 1.684215,-3.042348 3.673292,-6.122815 5.9062503,-9.125 0.07198,-0.804728 0.607545,-1.484189 1.34375,-1.75 1.124066,-1.431211 2.301303,-2.849947 3.53125,-4.21875 l -6.9375,0 0,-13.375 23.1875,0 c 2.53264,-1.4353199 5.151041,-2.621834 7.8125,-3.5 -0.06417,-0.00491 -0.122067,-0.031244 -0.1875,-0.03125 l -32.8437503,0 c -0.087256,-0.00455 -0.193993,-0.00455 -0.28125,0 z"
     style="fill:url(#linearGradient3094);fill-opacity:1;fill-rule:nonzero;stroke:none" /></g></svg>