<?xml version="1.0" encoding="UTF-8" standalone="no"?>
<!-- Created with Inkscape (http://www.inkscape.org/) -->
<svg
   xmlns:dc="http://purl.org/dc/elements/1.1/"
   xmlns:cc="http://creativecommons.org/ns#"
   xmlns:rdf="http://www.w3.org/1999/02/22-rdf-syntax-ns#"
   xmlns:svg="http://www.w3.org/2000/svg"
   xmlns="http://www.w3.org/2000/svg"
   xmlns:xlink="http://www.w3.org/1999/xlink"
   xmlns:sodipodi="http://sodipodi.sourceforge.net/DTD/sodipodi-0.dtd"
   xmlns:inkscape="http://www.inkscape.org/namespaces/inkscape"
   width="48"
   height="48"
   id="svg2"
   sodipodi:version="0.32"
   inkscape:version="0.46"
   version="1.0"
   sodipodi:docbase="/home/dobey/Projects/gnome-icon-theme/scalable/actions"
   sodipodi:docname="format-text-bold.svg"
   inkscape:output_extension="org.inkscape.output.svg.inkscape"
   inkscape:export-filename="/home/lapo/Desktop/format-text.png"
   inkscape:export-xdpi="90"
   inkscape:export-ydpi="90">
  <defs
     id="defs4">
    <linearGradient
       inkscape:collect="always"
       id="linearGradient3221">
      <stop
         style="stop-color:#4d4d4d;stop-opacity:1;"
         offset="0"
         id="stop3223" />
      <stop
         style="stop-color:#4d4d4d;stop-opacity:0;"
         offset="1"
         id="stop3225" />
    </linearGradient>
    <linearGradient
       inkscape:collect="always"
       xlink:href="#linearGradient3221"
       id="linearGradient3227"
       x1="12.75"
       y1="6.5"
       x2="12.75"
       y2="40"
       gradientUnits="userSpaceOnUse" />
  </defs>
  <sodipodi:namedview
     id="base"
     pagecolor="#8c86cb"
     bordercolor="#afafaf"
     borderopacity="1"
     inkscape:pageopacity="0"
     inkscape:pageshadow="2"
     inkscape:zoom="4"
     inkscape:cx="33.632254"
     inkscape:cy="32.128872"
     inkscape:document-units="px"
     inkscape:current-layer="layer1"
     width="48px"
     height="48px"
     inkscape:showpageshadow="false"
     borderlayer="true"
     inkscape:window-width="1023"
     inkscape:window-height="749"
     inkscape:window-x="77"
     inkscape:window-y="24"
     showgrid="false"
     showborder="true"
     showguides="false"
     inkscape:guide-bbox="false"
     inkscape:grid-points="true"
     inkscape:grid-bbox="false">
    <sodipodi:guide
       orientation="vertical"
       position="10"
       id="guide3217" />
    <sodipodi:guide
       orientation="horizontal"
       position="39.125"
       id="guide3219" />
    <sodipodi:guide
       orientation="vertical"
       position="23.997436"
       id="guide3221" />
    <sodipodi:guide
       orientation="horizontal"
       position="4.125"
       id="guide3544" />
    <sodipodi:guide
       orientation="horizontal"
       position="5"
       id="guide4317" />
    <sodipodi:guide
       orientation="vertical"
       position="3"
       id="guide4887" />
    <sodipodi:guide
       orientation="vertical"
       position="44.989669"
       id="guide4889" />
    <sodipodi:guide
       orientation="horizontal"
       position="28"
       id="guide3281" />
    <sodipodi:guide
       orientation="horizontal"
       position="24.96875"
       id="guide3361" />
    <sodipodi:guide
       orientation="horizontal"
       position="20.948038"
       id="guide3363" />
    <sodipodi:guide
       orientation="horizontal"
       position="9"
       id="guide4351" />
    <inkscape:grid
       id="GridFromPre046Settings"
       type="xygrid"
       originx="0px"
       originy="0px"
       spacingx="0.5px"
       spacingy="0.5px"
       color="#0000ff"
       empcolor="#0000ff"
       opacity="0.2"
       empopacity="0.4"
       empspacing="2" />
  </sodipodi:namedview>
  <metadata
     id="metadata7">
    <rdf:RDF>
      <cc:Work
         rdf:about="">
        <dc:format>image/svg+xml</dc:format>
        <dc:type
           rdf:resource="http://purl.org/dc/dcmitype/StillImage" />
        <dc:creator>
          <cc:Agent>
            <dc:title>Lapo Calamandrei</dc:title>
          </cc:Agent>
        </dc:creator>
        <cc:license
           rdf:resource="http://creativecommons.org/licenses/GPL/2.0/" />
      </cc:Work>
      <cc:License
         rdf:about="http://creativecommons.org/licenses/GPL/2.0/">
        <cc:permits
           rdf:resource="http://web.resource.org/cc/Reproduction" />
        <cc:permits
           rdf:resource="http://web.resource.org/cc/Distribution" />
        <cc:requires
           rdf:resource="http://web.resource.org/cc/Notice" />
        <cc:permits
           rdf:resource="http://web.resource.org/cc/DerivativeWorks" />
        <cc:requires
           rdf:resource="http://web.resource.org/cc/ShareAlike" />
        <cc:requires
           rdf:resource="http://web.resource.org/cc/SourceCode" />
      </cc:License>
    </rdf:RDF>
  </metadata>
  <g
     inkscape:label="Livello 1"
     inkscape:groupmode="layer"
     id="layer1"
     style="display:inline">
    <path
       style="font-size:6.83955049999999964px;font-style:normal;font-weight:bold;fill:#000000;fill-opacity:1;stroke:none;stroke-width:0.99999994000000003px;stroke-linecap:butt;stroke-linejoin:round;stroke-opacity:1;font-family:Bitstream Vera Sans Mono"
       d="M 39.5,19 C 39.500037,23.72492 39.5,35.5 39.5,35.5 L 43.5,35.5 L 43.5,39.5 L 27.5,39.5 L 27.5,35.5 C 25.939217,37.24844 24.277011,38.41853 22.359532,39.25112 C 20.44201,40.08371 18.256951,40.5 15.804347,40.5 C 12.17,40.5 10.371786,39.59456 8.409698,37.78368 C 6.469895,35.95198 5.499997,33.33973 5.5,29.94692 C 5.499997,26.2211 6.893529,23.43192 9.680601,21.5794 C 12.489957,19.7269 15.358959,18.50002 21,18.5 L 27.5,18.5 L 27.5,15 C 27.5,11.5 23.5,10.5 19.5,10.5 C 15.5,10.5 12.411251,12.10142 11.136363,16.5 L 7.5,16.5 L 7.5,8.5 C 11.858867,7.0523 16.450339,6.56488 21.021738,6.5 C 27.376227,6.50003 32.025053,7.60321 34.968228,9.80955 C 37.933632,12.01594 39.499963,14.27508 39.5,19 z M 27.5,29 L 27.5,22.5 L 23.05184,22.5 C 20.844463,22.50002 19.226849,23.07807 18.04515,24.20205 C 16.863418,25.32606 16.27256,26.93921 16.272575,29.04148 C 16.27256,31.14378 16.696193,32.71529 17.543478,33.75602 C 18.413026,34.79676 19.728521,35.31713 21.489967,35.31713 C 23.318262,35.31713 24.789831,34.75513 25.904681,33.63113 C 27.019483,32.50715 27.499973,30.85252 27.5,29 z"
       id="text3336"
       sodipodi:nodetypes="ccccccsscscccczcccccccccsscssc" />
    <path
       style="font-size:6.83955049999999964px;font-style:normal;font-weight:bold;fill:url(#linearGradient3227);fill-opacity:1;stroke:none;stroke-width:0.99999994000000003px;stroke-linecap:butt;stroke-linejoin:round;stroke-opacity:1;font-family:Bitstream Vera Sans Mono"
       d="M 21.03125,6.5 C 16.459851,6.56488 11.858867,7.0523 7.5,8.5 L 7.5,16.5 L 11.125,16.5 C 12.399888,12.10142 15.5,10.5 19.5,10.5 C 23.5,10.5 27.5,11.5 27.5,15 L 27.5,15.46875 C 30.043864,13.514116 32.702095,11.77853 35.5,10.25 C 35.320254,10.10646 35.160205,9.9549505 34.96875,9.8125 C 32.025575,7.60616 27.385739,6.50003 21.03125,6.5 z M 21,18.5 C 15.358959,18.50002 12.496856,19.741251 9.6875,21.59375 C 6.900428,23.44627 5.499997,26.21168 5.5,29.9375 C 5.499997,33.179593 6.384961,35.714651 8.15625,37.53125 C 10.850126,33.063471 14.000272,28.770364 17.53125,24.8125 C 17.545883,24.793474 17.547608,24.768811 17.5625,24.75 C 17.587229,24.722329 17.600232,24.683887 17.625,24.65625 C 17.754252,24.500463 17.883533,24.328001 18.03125,24.1875 C 18.091296,24.130387 18.156433,24.085539 18.21875,24.03125 C 19.999788,22.086884 21.874132,20.241041 23.84375,18.5 L 21,18.5 z"
       id="path3207" />
  </g>
</svg>
