<?xml version="1.0" encoding="UTF-8" standalone="no"?>
<!-- Generator: Adobe Illustrator 15.1.0, SVG Export Plug-In . SVG Version: 6.00 Build 0)  -->

<svg
   xmlns:dc="http://purl.org/dc/elements/1.1/"
   xmlns:cc="http://creativecommons.org/ns#"
   xmlns:rdf="http://www.w3.org/1999/02/22-rdf-syntax-ns#"
   xmlns:svg="http://www.w3.org/2000/svg"
   xmlns="http://www.w3.org/2000/svg"
   xmlns:sodipodi="http://sodipodi.sourceforge.net/DTD/sodipodi-0.dtd"
   xmlns:inkscape="http://www.inkscape.org/namespaces/inkscape"
   version="1.1"
   id="Layer_1"
   x="0px"
   y="0px"
   width="128"
   height="128"
   viewBox="0 0 128 128"
   enable-background="new 0 0 82 100"
   xml:space="preserve"
   inkscape:version="0.48.2 r9819"
   sodipodi:docname="tag.svg"><metadata
   id="metadata9"><rdf:RDF><cc:Work
       rdf:about=""><dc:format>image/svg+xml</dc:format><dc:type
         rdf:resource="http://purl.org/dc/dcmitype/StillImage" /><dc:title></dc:title></cc:Work></rdf:RDF></metadata><defs
   id="defs7" /><sodipodi:namedview
   pagecolor="#ffffff"
   bordercolor="#666666"
   borderopacity="1"
   objecttolerance="10"
   gridtolerance="10"
   guidetolerance="10"
   inkscape:pageopacity="0"
   inkscape:pageshadow="2"
   inkscape:window-width="1280"
   inkscape:window-height="750"
   id="namedview5"
   showgrid="false"
   inkscape:zoom="1.7011719"
   inkscape:cx="-75.637046"
   inkscape:cy="59.856665"
   inkscape:window-x="-4"
   inkscape:window-y="28"
   inkscape:window-maximized="1"
   inkscape:current-layer="Layer_1" />

<g
   id="g3185"
   transform="translate(-1.1663767,-0.754982)"><path
     id="path3"
     d="M 125.00649,115.28648 H 5.3262635 V 14.223484 H 125.00649 V 115.28648 z M 14.900682,104.21108 H 115.43207 V 25.298882 H 14.900682 v 78.912198 z"
     inkscape:connector-curvature="0" /><polygon
     id="polygon5"
     points="35,14 14,59 86,59 68,35 57,44 "
     transform="matrix(1.1968023,0,0,1.3844248,5.3250669,14.223484)" /><circle
     id="circle7"
     r="7"
     cy="22"
     cx="77"
     sodipodi:cx="77"
     sodipodi:cy="22"
     sodipodi:rx="7"
     sodipodi:ry="7"
     transform="matrix(1.1968023,0,0,1.3844248,5.3250669,14.223484)"
     d="m 84,22 c 0,3.865993 -3.134007,7 -7,7 -3.865993,0 -7,-3.134007 -7,-7 0,-3.865993 3.134007,-7 7,-7 3.865993,0 7,3.134007 7,7 z" /></g></svg>