<?xml version="1.0" encoding="UTF-8" standalone="no"?>
<!-- Generator: Adobe Illustrator 15.1.0, SVG Export Plug-In . SVG Version: 6.00 Build 0)  -->

<svg
   xmlns:dc="http://purl.org/dc/elements/1.1/"
   xmlns:cc="http://creativecommons.org/ns#"
   xmlns:rdf="http://www.w3.org/1999/02/22-rdf-syntax-ns#"
   xmlns:svg="http://www.w3.org/2000/svg"
   xmlns="http://www.w3.org/2000/svg"
   xmlns:sodipodi="http://sodipodi.sourceforge.net/DTD/sodipodi-0.dtd"
   xmlns:inkscape="http://www.inkscape.org/namespaces/inkscape"
   version="1.1"
   id="Layer_1"
   x="0px"
   y="0px"
   width="128"
   height="128"
   viewBox="0 0 128 128"
   enable-background="new 0 0 82 100"
   xml:space="preserve"
   inkscape:version="0.48.3.1 r9886"
   sodipodi:docname="Node_readonly.svg"><metadata
   id="metadata9"><rdf:RDF><cc:Work
       rdf:about=""><dc:format>image/svg+xml</dc:format><dc:type
         rdf:resource="http://purl.org/dc/dcmitype/StillImage" /><dc:title /></cc:Work></rdf:RDF></metadata><defs
   id="defs7" /><sodipodi:namedview
   pagecolor="#ffffff"
   bordercolor="#666666"
   borderopacity="1"
   objecttolerance="10"
   gridtolerance="10"
   guidetolerance="10"
   inkscape:pageopacity="0"
   inkscape:pageshadow="2"
   inkscape:window-width="1280"
   inkscape:window-height="755"
   id="namedview5"
   showgrid="false"
   inkscape:zoom="3.337544"
   inkscape:cx="-1.6987083"
   inkscape:cy="58.660532"
   inkscape:window-x="0"
   inkscape:window-y="24"
   inkscape:window-maximized="1"
   inkscape:current-layer="Layer_1" />

<g
   id="g2984"
   transform="matrix(1.501688,0,0,1.501688,-16.811171,-24.446878)"><path
     style="fill:#ff0000"
     inkscape:connector-curvature="0"
     d="m 81.682967,73.286253 c 0,15.42502 -12.572442,27.872377 -27.86645,27.872377 -15.425018,0 -27.872373,-12.447357 -27.872373,-27.872377 0,-7.780125 3.112894,-14.778434 8.296546,-19.833614 V 36.212962 c 0,-10.759479 8.81804,-19.574982 19.575827,-19.574982 10.757788,0 19.444817,8.815503 19.444817,19.574982 v 17.239677 c 5.183656,5.05518 8.421633,12.053489 8.421633,19.833614 z M 42.667397,70.172514 H 33.85443 l -1.298237,3.113739 1.298237,3.110361 h 8.812967 v -6.2241 z m 5.443976,-6.869839 -6.351725,-6.350881 -3.112897,1.165539 -1.293166,3.243058 6.351727,6.35088 4.406061,-4.408596 z m -4.406061,15.427554 -6.351727,6.481044 1.293166,3.111205 3.112897,1.165541 6.351725,-6.351728 -4.406061,-4.406062 z M 44.74238,46.97075 c 5.700073,-2.074982 11.925864,-2.074982 18.016423,0 V 36.210425 c 0,-4.925017 -4.019803,-9.073292 -8.943131,-9.073292 -5.057716,0 -9.073292,4.148275 -9.073292,9.073292 V 46.97075 z m 12.056026,15.296547 v -8.815505 l -3.112897,-1.2957 -3.112894,1.2957 v 8.815505 h 6.225791 z m -6.225791,21.906907 v 8.812972 l 3.112894,1.298229 3.112897,-1.298229 v -8.812972 h -6.225791 l 0,0 z m 12.963777,-16.462933 6.351723,-6.35088 -1.163003,-3.113741 -3.2439,-1.295702 -6.351727,6.350882 4.406907,4.409441 z m -4.406907,15.42502 6.351727,6.351728 3.2439,-1.165541 1.163003,-3.111205 -6.351723,-6.481044 -4.406907,4.406062 z m 5.44482,-6.739677 h 8.812965 l 1.298237,-3.110361 -1.298237,-3.113739 h -8.812965 v 6.2241 z"
     id="path3118" /><path
     id="path3"
     d="m 80.70494,72.781334 c 0,14.883706 -12.131235,26.894244 -26.888527,26.894244 -14.883704,0 -26.894242,-12.010538 -26.894242,-26.894244 0,-7.507096 3.003653,-14.259812 8.005394,-19.137589 V 37.009064 c 0,-10.381895 8.508586,-18.888033 18.888848,-18.888033 10.380263,0 18.762436,8.506138 18.762436,18.888033 v 16.634681 c 5.001745,4.877777 8.126091,11.630493 8.126091,19.137589 z M 43.058552,69.776866 H 34.55486 l -1.252678,3.004468 1.252678,3.001208 h 8.503692 v -6.005676 z m 5.252929,-6.628755 -6.128823,-6.128008 -3.003655,1.124637 -1.247785,3.129248 6.128825,6.128008 4.251438,-4.253885 z m -4.251438,14.886152 -6.128825,6.253603 1.247785,3.002023 3.003655,1.124638 6.128823,-6.128825 -4.251438,-4.251439 z m 1.000674,-30.644937 c 5.500039,-2.002164 11.507347,-2.002164 17.384168,0 v -10.38271 c 0,-4.752183 -3.878735,-8.754881 -8.629287,-8.754881 -4.880225,0 -8.754881,4.002698 -8.754881,8.754881 v 10.38271 z m 11.632941,14.759742 v -8.50614 l -3.003655,-1.25023 -3.003653,1.25023 v 8.50614 h 6.007308 z M 50.68635,83.287191 v 8.503697 l 3.003653,1.25267 3.003655,-1.25267 V 83.287191 H 50.68635 l 0,0 z m 12.508836,-15.885195 6.128821,-6.128008 -1.12219,-3.004469 -3.130061,-1.250232 -6.128824,6.128009 4.252254,4.2547 z m -4.252254,14.883706 6.128824,6.128825 3.130061,-1.124638 1.12219,-3.002023 -6.128821,-6.253603 -4.252254,4.251439 z m 5.253744,-6.50316 h 8.503689 l 1.252678,-3.001208 -1.252678,-3.004468 h -8.503689 v 6.005676 z"
     inkscape:connector-curvature="0" /></g></svg>