<?xml version="1.0" encoding="UTF-8" standalone="no"?>
<!-- Created with Inkscape (http://www.inkscape.org/) -->

<svg
   xmlns:dc="http://purl.org/dc/elements/1.1/"
   xmlns:cc="http://creativecommons.org/ns#"
   xmlns:rdf="http://www.w3.org/1999/02/22-rdf-syntax-ns#"
   xmlns:svg="http://www.w3.org/2000/svg"
   xmlns="http://www.w3.org/2000/svg"
   xmlns:xlink="http://www.w3.org/1999/xlink"
   xmlns:sodipodi="http://sodipodi.sourceforge.net/DTD/sodipodi-0.dtd"
   xmlns:inkscape="http://www.inkscape.org/namespaces/inkscape"
   height="128"
   id="svg1"
   inkscape:version="0.48.2 r9819"
   sodipodi:docname="unmark_nodes.svg"
   sodipodi:version="0.32"
   version="1.0"
   width="128"
   x="0"
   y="0">
  <metadata
     id="metadata3">
    <rdf:RDF>
      <cc:Work
         rdf:about="">
        <dc:title></dc:title>
        <dc:description />
        <dc:subject>
          <rdf:Bag>
            <rdf:li>hash</rdf:li>
            <rdf:li />
            <rdf:li>action</rdf:li>
            <rdf:li>computer</rdf:li>
            <rdf:li>icons</rdf:li>
            <rdf:li>theme</rdf:li>
          </rdf:Bag>
        </dc:subject>
        <dc:publisher>
          <cc:Agent
             rdf:about="http://www.openclipart.org">
            <dc:title>Danny Allen</dc:title>
          </cc:Agent>
        </dc:publisher>
        <dc:creator>
          <cc:Agent>
            <dc:title>Danny Allen</dc:title>
          </cc:Agent>
        </dc:creator>
        <dc:rights>
          <cc:Agent>
            <dc:title>Danny Allen</dc:title>
          </cc:Agent>
        </dc:rights>
        <dc:date />
        <dc:format>image/svg+xml</dc:format>
        <dc:type
           rdf:resource="http://purl.org/dc/dcmitype/StillImage" />
        <cc:license
           rdf:resource="http://web.resource.org/cc/PublicDomain" />
        <dc:language>en</dc:language>
      </cc:Work>
      <cc:License
         rdf:about="http://web.resource.org/cc/PublicDomain">
        <cc:permits
           rdf:resource="http://web.resource.org/cc/Reproduction" />
        <cc:permits
           rdf:resource="http://web.resource.org/cc/Distribution" />
        <cc:permits
           rdf:resource="http://web.resource.org/cc/DerivativeWorks" />
      </cc:License>
    </rdf:RDF>
  </metadata>
  <sodipodi:namedview
     bordercolor="#666666"
     borderopacity="1.0"
     id="base"
     inkscape:cx="-27.422322"
     inkscape:cy="89.349866"
     inkscape:pageopacity="0.0"
     inkscape:pageshadow="2"
     inkscape:window-height="750"
     inkscape:window-width="1280"
     inkscape:window-x="-4"
     inkscape:window-y="28"
     inkscape:zoom="2.4559706"
     pagecolor="#ffffff"
     showgrid="false"
     inkscape:window-maximized="1"
     inkscape:current-layer="svg1" />
  <defs
     id="defs3">
    <linearGradient
       id="linearGradient1160">
      <stop
         id="stop1161"
         offset="0"
         style="stop-color:#000;stop-opacity:1;" />
      <stop
         id="stop1162"
         offset="1"
         style="stop-color:#fff;stop-opacity:1;" />
    </linearGradient>
    <linearGradient
       id="linearGradient1163"
       xlink:href="#linearGradient1160" />
  </defs>
  <path
     id="path3338"
     d="m 34.015274,77.758236 c 2.659232,7.3e-5 4.670735,2.182022 6.034516,6.545913 2.727411,8.18245 4.670736,12.273633 5.829949,12.273592 0.886371,4.1e-5 1.806903,-0.681818 2.761581,-2.0456 19.160351,-30.683906 36.888862,-55.503806 53.18555,-74.459808 4.22746,-4.909295 10.94383,-7.364017 20.14916,-7.364155 2.18185,1.38e-4 3.64786,0.204687 4.39803,0.613673 0.74992,0.409252 1.12496,0.920655 1.12509,1.53421 -1.3e-4,0.95474 -1.12521,2.829878 -3.37524,5.6254 -26.320156,31.638693 -50.730948,65.050113 -73.232438,100.234349 -1.568366,2.45473 -4.773123,3.6821 -9.614329,3.68208 -4.909473,2e-5 -7.807411,-0.20455 -8.693782,-0.61369 -2.318387,-1.02277 -5.045854,-6.23905 -8.182393,-15.64882 -3.545739,-10.432522 -5.3186,-16.978418 -5.318568,-19.637754 -3.2e-5,-2.863776 2.386501,-5.625341 7.159593,-8.284669 2.931995,-1.636432 5.52308,-2.454648 7.773281,-2.454721"
     style="font-size:12px;font-style:normal;font-variant:normal;font-weight:normal;font-stretch:normal;fill:#000000;fill-opacity:1;stroke:none;display:inline;font-family:Webdings;-inkscape-font-specification:Webdings"
     inkscape:connector-curvature="0" />
  <path
     inkscape:connector-curvature="0"
     d="m 8.6095351,5.1163917 c -2.21,0 -4,1.79 -4,4 V 101.11639 c 0,2.21 1.79,4 4,4 2.2089999,0 3.9999999,-1.79 3.9999999,-4 V 9.1163917 c 0,-2.21 -1.791,-4 -3.9999999,-4 z"
     id="path3" />
  <path
     inkscape:connector-curvature="0"
     d="m 48.483535,7.9993917 c -3.49,-1.352 -7.446,-2.883 -12.874,-2.883 -9.154,0 -15.979,4.423 -19,6.8120003 v 30.621999 c 1.476,-1.338999 8.75,-7.433999 19,-7.433999 5.054,0 8.662,1.397 12.152,2.748 4.894,1.896 9.537,3.688999 16.848,0.77 V 8.4593917 c -7.006,3.0530003 -11.052,1.505 -16.126,-0.46 z"
     id="path5" />
</svg>
