<?xml version="1.0" encoding="UTF-8" standalone="no"?>
<!-- Created with Inkscape (http://www.inkscape.org/) -->

<svg
   xmlns:dc="http://purl.org/dc/elements/1.1/"
   xmlns:cc="http://creativecommons.org/ns#"
   xmlns:rdf="http://www.w3.org/1999/02/22-rdf-syntax-ns#"
   xmlns:svg="http://www.w3.org/2000/svg"
   xmlns="http://www.w3.org/2000/svg"
   xmlns:sodipodi="http://sodipodi.sourceforge.net/DTD/sodipodi-0.dtd"
   xmlns:inkscape="http://www.inkscape.org/namespaces/inkscape"
   width="256"
   height="256"
   id="svg5648"
   version="1.1"
   inkscape:version="0.48.3.1 r9886"
   sodipodi:docname="home2.svg">
  <defs
     id="defs5650">
    <inkscape:perspective
       sodipodi:type="inkscape:persp3d"
       inkscape:vp_x="0 : 526.18109 : 1"
       inkscape:vp_y="0 : 1000 : 0"
       inkscape:vp_z="744.09448 : 526.18109 : 1"
       inkscape:persp3d-origin="372.04724 : 350.78739 : 1"
       id="perspective5656" />
    <inkscape:perspective
       id="perspective5643"
       inkscape:persp3d-origin="0.5 : 0.33333333 : 1"
       inkscape:vp_z="1 : 0.5 : 1"
       inkscape:vp_y="0 : 1000 : 0"
       inkscape:vp_x="0 : 0.5 : 1"
       sodipodi:type="inkscape:persp3d" />
    <clipPath
       clipPathUnits="userSpaceOnUse"
       id="clipPath1602">
      <path
         inkscape:connector-curvature="0"
         d="m 271.817,362.003 c -0.003,-0.002 -0.007,-0.002 -0.009,0 l 0,0 c -0.003,0.002 -0.009,-0.003 -0.014,-0.01 l 0,0 c -0.006,-0.008 -0.385,-0.285 -0.844,-0.615 l 0,0 -10.159,-7.328 c -0.459,-0.33 -0.563,-0.976 -0.232,-1.434 l 0,0 0.389,-0.539 c 0.221,-0.308 0.584,-0.439 0.938,-0.404 l 0,0 9.924,7.158 0.002,0.002 10e-4,0 0.001,-0.002 9.925,-7.158 c 0.353,-0.035 0.717,0.096 0.938,0.404 l 0,0 0.389,0.539 c 0.33,0.458 0.225,1.104 -0.233,1.434 l 0,0 -2.755,1.986 c -0.457,0.332 -0.832,1.064 -0.832,1.629 l 0,0 0,3.266 c 0,0.564 -0.463,1.027 -1.029,1.027 l 0,0 -0.966,0 c -0.565,0 -1.027,-0.463 -1.027,-1.027 l 0,0 0,-1.087 c 0,-0.564 -0.375,-0.755 -0.834,-0.425 l 0,0 -2.716,1.959 c -0.459,0.33 -0.838,0.607 -0.843,0.615 l 0,0 c -0.004,0.006 -0.01,0.01 -0.012,0.01 l 0,0 c -0.001,0 -0.002,0 -0.002,0"
         id="path1604" />
    </clipPath>
    <linearGradient
       x1="0"
       y1="0"
       x2="1"
       y2="0"
       gradientUnits="userSpaceOnUse"
       gradientTransform="matrix(0,10.335938,10.335938,0,271.8125,351.66748)"
       spreadMethod="pad"
       id="linearGradient1610">
      <stop
         style="stop-opacity:1;stop-color:#333333"
         offset="0"
         id="stop1612" />
      <stop
         style="stop-opacity:1;stop-color:#666666"
         offset="0.836365"
         id="stop1614" />
      <stop
         style="stop-opacity:1;stop-color:#666666"
         offset="1"
         id="stop1616" />
    </linearGradient>
    <clipPath
       clipPathUnits="userSpaceOnUse"
       id="clipPath1580">
      <path
         inkscape:connector-curvature="0"
         d="m 264.335,351.294 0,-7.471 c 0,-1.131 0.925,-2.056 2.055,-2.056 l 0,0 1.882,0 1.546,0 3.989,0 2.714,0 0.714,0 c 1.13,0 2.056,0.925 2.056,2.056 l 0,0 0,7.471 -7.479,5.392 -7.477,-5.392 z"
         id="path1582" />
    </clipPath>
    <linearGradient
       x1="0"
       y1="0"
       x2="1"
       y2="0"
       gradientUnits="userSpaceOnUse"
       gradientTransform="matrix(0,14.919922,14.919922,0,271.8125,341.7666)"
       spreadMethod="pad"
       id="linearGradient1588">
      <stop
         style="stop-opacity:1;stop-color:#333333"
         offset="0"
         id="stop1590" />
      <stop
         style="stop-opacity:1;stop-color:#666666"
         offset="0.836365"
         id="stop1592" />
      <stop
         style="stop-opacity:1;stop-color:#666666"
         offset="1"
         id="stop1594" />
    </linearGradient>
  </defs>
  <sodipodi:namedview
     id="base"
     pagecolor="#ffffff"
     bordercolor="#666666"
     borderopacity="1.0"
     inkscape:pageopacity="0.0"
     inkscape:pageshadow="2"
     inkscape:zoom="0.49497475"
     inkscape:cx="-436.4991"
     inkscape:cy="353.82977"
     inkscape:document-units="px"
     inkscape:current-layer="layer1"
     showgrid="false"
     inkscape:window-width="1280"
     inkscape:window-height="754"
     inkscape:window-x="0"
     inkscape:window-y="25"
     inkscape:window-maximized="1"
     showguides="true"
     inkscape:guide-bbox="true" />
  <metadata
     id="metadata5653">
    <rdf:RDF>
      <cc:Work
         rdf:about="">
        <dc:format>image/svg+xml</dc:format>
        <dc:type
           rdf:resource="http://purl.org/dc/dcmitype/StillImage" />
        <dc:title></dc:title>
      </cc:Work>
    </rdf:RDF>
  </metadata>
  <g
     inkscape:label="Layer 1"
     inkscape:groupmode="layer"
     id="layer1"
     transform="translate(0,-796.3622)">
    <text
       xml:space="preserve"
       style="font-size:32px;font-style:normal;font-variant:normal;font-weight:bold;font-stretch:normal;fill:#000000;fill-opacity:1;stroke:none;font-family:Droid Sans;-inkscape-font-specification:Abandoned Bitplane Bold"
       x="22.321426"
       y="1047.8978"
       id="text3621"><tspan
         sodipodi:role="line"
         id="tspan3623"
         x="22.321426"
         y="1047.8978" /></text>
    <g
       transform="matrix(11.03705,0,0,-11.03705,-2872.0137,4810.6572)"
       id="g1576"
       style="fill:#000000">
      <g
         id="g1578"
         clip-path="url(#clipPath1580)"
         style="fill:#000000">
        <g
           id="g1584"
           style="fill:#000000">
          <g
             id="g1586"
             style="fill:#000000">
            <path
               inkscape:connector-curvature="0"
               d="m 264.335,351.294 0,-7.471 c 0,-1.131 0.925,-2.056 2.055,-2.056 l 0,0 1.882,0 1.546,0 3.989,0 2.714,0 0.714,0 c 1.13,0 2.056,0.925 2.056,2.056 l 0,0 0,7.471 -7.479,5.392 -7.477,-5.392 z"
               style="fill:#000000;stroke:none"
               id="path1596" />
          </g>
        </g>
      </g>
    </g>
    <g
       transform="matrix(11.03705,0,0,-11.03705,-2872.0023,4810.6572)"
       id="g1598"
       style="fill:#000000">
      <g
         id="g1600"
         clip-path="url(#clipPath1602)"
         style="fill:#000000">
        <g
           id="g1606"
           style="fill:#000000">
          <g
             id="g1608"
             style="fill:#000000">
            <path
               inkscape:connector-curvature="0"
               d="m 271.817,362.003 c -0.003,-0.002 -0.007,-0.002 -0.009,0 l 0,0 c -0.003,0.002 -0.009,-0.003 -0.014,-0.01 l 0,0 c -0.006,-0.008 -0.385,-0.285 -0.844,-0.615 l 0,0 -10.159,-7.328 c -0.459,-0.33 -0.563,-0.976 -0.232,-1.434 l 0,0 0.389,-0.539 c 0.221,-0.308 0.584,-0.439 0.938,-0.404 l 0,0 9.924,7.158 0.002,0.002 10e-4,0 0.001,-0.002 9.925,-7.158 c 0.353,-0.035 0.717,0.096 0.938,0.404 l 0,0 0.389,0.539 c 0.33,0.458 0.225,1.104 -0.233,1.434 l 0,0 -2.755,1.986 c -0.457,0.332 -0.832,1.064 -0.832,1.629 l 0,0 0,3.266 c 0,0.564 -0.463,1.027 -1.029,1.027 l 0,0 -0.966,0 c -0.565,0 -1.027,-0.463 -1.027,-1.027 l 0,0 0,-1.087 c 0,-0.564 -0.375,-0.755 -0.834,-0.425 l 0,0 -2.716,1.959 c -0.459,0.33 -0.838,0.607 -0.843,0.615 l 0,0 c -0.004,0.006 -0.01,0.01 -0.012,0.01 l 0,0 c -0.001,0 -0.002,0 -0.002,0"
               style="fill:#000000;stroke:none"
               id="path1618" />
          </g>
        </g>
      </g>
    </g>
  </g>
</svg>
