<?xml version="1.0" encoding="UTF-8" standalone="no"?>
<!-- Generator: Adobe Illustrator 9.0, SVG Export Plug-In  -->

<svg
   xmlns:dc="http://purl.org/dc/elements/1.1/"
   xmlns:cc="http://creativecommons.org/ns#"
   xmlns:rdf="http://www.w3.org/1999/02/22-rdf-syntax-ns#"
   xmlns:svg="http://www.w3.org/2000/svg"
   xmlns="http://www.w3.org/2000/svg"
   xmlns:xlink="http://www.w3.org/1999/xlink"
   xmlns:sodipodi="http://sodipodi.sourceforge.net/DTD/sodipodi-0.dtd"
   xmlns:inkscape="http://www.inkscape.org/namespaces/inkscape"
   height="48"
   id="svg3467"
   inkscape:version="0.47 r22583"
   sodipodi:docname="Sel_all2.svg"
   sodipodi:version="0.32"
   space="preserve"
   viewBox="0 0 38.4 38.4"
   width="48"
   version="1.1">
  <metadata
     id="metadata3">
    <rdf:RDF>
      <cc:Work
         rdf:about="">
        <dc:title></dc:title>
        <dc:description>Stylized hand-glass originally intended as searching icon.</dc:description>
        <dc:subject>
          <rdf:Bag>
            <rdf:li>icon</rdf:li>
            <rdf:li>magnifier</rdf:li>
            <rdf:li>stylized</rdf:li>
            <rdf:li>tool</rdf:li>
            <rdf:li>hand-glass</rdf:li>
            <rdf:li>searching</rdf:li>
          </rdf:Bag>
        </dc:subject>
        <dc:publisher>
          <cc:Agent
             rdf:about="http://www.openclipart.org/">
            <dc:title>Martin Koz  k &lt;martin.kozak@openoffice.cz&gt;</dc:title>
          </cc:Agent>
        </dc:publisher>
        <dc:creator>
          <cc:Agent>
            <dc:title>Martin Koz  k &lt;martin.kozak *at* openoffice -dot- cz&gt;</dc:title>
          </cc:Agent>
        </dc:creator>
        <dc:rights>
          <cc:Agent>
            <dc:title>Martin Koz  k &lt;martin.kozak@openoffice.cz&gt;</dc:title>
          </cc:Agent>
        </dc:rights>
        <dc:date>2005-08-10</dc:date>
        <dc:format>image/svg+xml</dc:format>
        <dc:type
           rdf:resource="http://purl.org/dc/dcmitype/StillImage" />
        <cc:license
           rdf:resource="http://web.resource.org/cc/PublicDomain" />
        <dc:language>en</dc:language>
      </cc:Work>
      <cc:License
         rdf:about="http://web.resource.org/cc/PublicDomain">
        <cc:permits
           rdf:resource="http://web.resource.org/cc/Reproduction" />
        <cc:permits
           rdf:resource="http://web.resource.org/cc/Distribution" />
        <cc:permits
           rdf:resource="http://web.resource.org/cc/DerivativeWorks" />
      </cc:License>
    </rdf:RDF>
  </metadata>
  <defs
     id="defs3477">
    <inkscape:perspective
       sodipodi:type="inkscape:persp3d"
       inkscape:vp_x="7864.5433 : -2636.4654 : 1"
       inkscape:vp_y="0 : -7868.037 : 0"
       inkscape:vp_z="12695.889 : -2636.4654 : 1"
       inkscape:persp3d-origin="10280.217 : -1893.9386 : 1"
       id="perspective11" />
    <inkscape:perspective
       id="perspective2832"
       inkscape:persp3d-origin="0.5 : 0.33333333 : 1"
       inkscape:vp_z="1 : 0.5 : 1"
       inkscape:vp_y="0 : 1000 : 0"
       inkscape:vp_x="0 : 0.5 : 1"
       sodipodi:type="inkscape:persp3d" />
    <filter
       inkscape:collect="always"
       id="filter3671">
      <feGaussianBlur
         inkscape:collect="always"
         stdDeviation="38.86125"
         id="feGaussianBlur3673" />
    </filter>
    <inkscape:perspective
       id="perspective2832-1"
       inkscape:persp3d-origin="0.5 : 0.33333333 : 1"
       inkscape:vp_z="1 : 0.5 : 1"
       inkscape:vp_y="0 : 1000 : 0"
       inkscape:vp_x="0 : 0.5 : 1"
       sodipodi:type="inkscape:persp3d" />
    <inkscape:perspective
       id="perspective2836"
       inkscape:persp3d-origin="0.5 : 0.33333333 : 1"
       inkscape:vp_z="1 : 0.5 : 1"
       inkscape:vp_y="0 : 1000 : 0"
       inkscape:vp_x="0 : 0.5 : 1"
       sodipodi:type="inkscape:persp3d" />
    <inkscape:perspective
       id="perspective2832-7"
       inkscape:persp3d-origin="0.5 : 0.33333333 : 1"
       inkscape:vp_z="1 : 0.5 : 1"
       inkscape:vp_y="0 : 1000 : 0"
       inkscape:vp_x="0 : 0.5 : 1"
       sodipodi:type="inkscape:persp3d" />
    <inkscape:perspective
       id="perspective2832-6"
       inkscape:persp3d-origin="0.5 : 0.33333333 : 1"
       inkscape:vp_z="1 : 0.5 : 1"
       inkscape:vp_y="0 : 1000 : 0"
       inkscape:vp_x="0 : 0.5 : 1"
       sodipodi:type="inkscape:persp3d" />
    <inkscape:perspective
       id="perspective2842"
       inkscape:persp3d-origin="0.5 : 0.33333333 : 1"
       inkscape:vp_z="1 : 0.5 : 1"
       inkscape:vp_y="0 : 1000 : 0"
       inkscape:vp_x="0 : 0.5 : 1"
       sodipodi:type="inkscape:persp3d" />
    <inkscape:perspective
       id="perspective2955"
       inkscape:persp3d-origin="0.5 : 0.33333333 : 1"
       inkscape:vp_z="1 : 0.5 : 1"
       inkscape:vp_y="0 : 1000 : 0"
       inkscape:vp_x="0 : 0.5 : 1"
       sodipodi:type="inkscape:persp3d" />
    <inkscape:perspective
       id="perspective2970"
       inkscape:persp3d-origin="0.5 : 0.33333333 : 1"
       inkscape:vp_z="1 : 0.5 : 1"
       inkscape:vp_y="0 : 1000 : 0"
       inkscape:vp_x="0 : 0.5 : 1"
       sodipodi:type="inkscape:persp3d" />
    <filter
       inkscape:collect="always"
       id="filter3850">
      <feGaussianBlur
         inkscape:collect="always"
         stdDeviation="9.389175"
         id="feGaussianBlur3852" />
    </filter>
    <inkscape:perspective
       id="perspective2860"
       inkscape:persp3d-origin="0.5 : 0.33333333 : 1"
       inkscape:vp_z="1 : 0.5 : 1"
       inkscape:vp_y="0 : 1000 : 0"
       inkscape:vp_x="0 : 0.5 : 1"
       sodipodi:type="inkscape:persp3d" />
    <linearGradient
       x1="30"
       y1="25.084745"
       x2="30"
       y2="45"
       id="linearGradient2880"
       xlink:href="#linearGradient3785"
       gradientUnits="userSpaceOnUse" />
    <linearGradient
       id="linearGradient3785">
      <stop
         id="stop3787"
         style="stop-color:#bdbdbd;stop-opacity:1"
         offset="0" />
      <stop
         id="stop3789"
         style="stop-color:#8c8c8c;stop-opacity:1"
         offset="1" />
    </linearGradient>
    <linearGradient
       x1="24.786562"
       y1="53.869164"
       x2="24.87495"
       y2="83.5"
       id="linearGradient2882"
       xlink:href="#linearGradient3341"
       gradientUnits="userSpaceOnUse" />
    <linearGradient
       id="linearGradient3341">
      <stop
         id="stop3343"
         style="stop-color:white;stop-opacity:1"
         offset="0" />
      <stop
         id="stop3345"
         style="stop-color:white;stop-opacity:0"
         offset="1" />
    </linearGradient>
    <linearGradient
       x1="30"
       y1="5"
       x2="30"
       y2="44.678879"
       id="linearGradient2887"
       xlink:href="#linearGradient3785"
       gradientUnits="userSpaceOnUse" />
    <linearGradient
       id="linearGradient2873">
      <stop
         id="stop2875"
         style="stop-color:#bdbdbd;stop-opacity:1"
         offset="0" />
      <stop
         id="stop2877"
         style="stop-color:#8c8c8c;stop-opacity:1"
         offset="1" />
    </linearGradient>
    <linearGradient
       x1="29.999992"
       y1="3.0410755"
       x2="29.999992"
       y2="27.956825"
       id="linearGradient2895"
       xlink:href="#linearGradient3341"
       gradientUnits="userSpaceOnUse" />
    <linearGradient
       id="linearGradient2881">
      <stop
         id="stop2883"
         style="stop-color:white;stop-opacity:1"
         offset="0" />
      <stop
         id="stop2885"
         style="stop-color:white;stop-opacity:0"
         offset="1" />
    </linearGradient>
    <linearGradient
       y2="27.956825"
       x2="29.999992"
       y1="3.0410755"
       x1="29.999992"
       gradientUnits="userSpaceOnUse"
       id="linearGradient2896"
       xlink:href="#linearGradient3341"
       inkscape:collect="always" />
  </defs>
  <sodipodi:namedview
     bordercolor="#666666"
     borderopacity="1.0"
     id="base"
     inkscape:current-layer="g3772"
     inkscape:cx="17.498102"
     inkscape:cy="27.299174"
     inkscape:pageopacity="0.0"
     inkscape:pageshadow="2"
     inkscape:window-height="739"
     inkscape:window-width="1280"
     inkscape:window-x="-5"
     inkscape:window-y="0"
     inkscape:zoom="6.8533375"
     pagecolor="#ffffff"
     showgrid="false"
     inkscape:window-maximized="1" />
  <g
     id="Vrstva_x0020_1"
     style="fill:#000000;fill-opacity:1;fill-rule:nonzero;stroke:#000000;stroke-miterlimit:4"
     transform="translate(0,-414.58828)">
    <g
       id="g14"
       transform="matrix(0.1,0,0,-0.1,-453.22157,671.73075)">
      <g
         id="g3772"
         transform="matrix(0.91297183,0,0,0.91297183,380.74547,203.32576)">
        <g
           transform="matrix(9.6804223,0,0,-9.6804223,4467.0947,2635.2245)"
           id="g3912"
           style="fill:#1a1a1a">
          <path
             d="m 53,41.5 a 21,7.5 0 1 1 -42,0 21,7.5 0 1 1 42,0 z"
             transform="matrix(0.85714286,0,0,0.8,2.5714285,7.8)"
             id="path3823"
             style="opacity:0.7;fill:#1a1a1a;fill-opacity:1;stroke:none" />
          <path
             d="m 25.5,20.5 c 0.460215,2.17673 0.717092,3.82327 0.34375,6 C 22.933057,28.914876 15.488842,30 15.5,32.5 l -1,7.5 c 0,2.485281 6.939586,4.5 15.5,4.5 8.560414,0 15.5,-2.014719 15.5,-4.5 l -1,-7.5 C 44.48813,30.360337 37,29 34.125,26.5 33.879426,24.479663 34.07491,22.520337 34.5,20.5 l -9,0 z"
             id="path3766"
             style="fill:#1a1a1a;fill-opacity:1;stroke:url(#linearGradient2880);stroke-width:1;stroke-miterlimit:4;stroke-opacity:1;stroke-dasharray:none" />
          <path
             d="m 22.53125,61 c 0.30464,1.690349 0.51076,3.271519 0.1875,5.15625 a 1.0027361,1.0027361 0 0 1 -0.375,0.625 c -1.721814,1.428515 -4.345384,2.254348 -6.53125,3.125 -1.092933,0.435326 -2.065851,0.86976 -2.6875,1.28125 -0.621649,0.41149 -0.750567,0.685398 -0.75,0.8125 a 1.0027361,1.0027361 0 0 1 0,0.125 l -1,7.375 c 0,0.003 -1.1e-4,0.02807 0,0.03125 0.0055,0.158344 0.150083,0.473017 0.78125,0.90625 0.643832,0.441926 1.694345,0.893116 3.03125,1.28125 C 17.861311,82.495018 21.673451,83 25.875,83 c 4.201549,0 8.013689,-0.504982 10.6875,-1.28125 1.336905,-0.388134 2.387418,-0.839324 3.03125,-1.28125 0.631167,-0.433233 0.77575,-0.747906 0.78125,-0.90625 l 0,-0.03125 -1,-7.375 a 1.0027361,1.0027361 0 0 1 0,-0.125 c 1.37e-4,0.02464 0.01573,0.0028 -0.09375,-0.125 -0.109475,-0.12777 -0.334408,-0.299018 -0.65625,-0.5 -0.643684,-0.401965 -1.645672,-0.857472 -2.75,-1.3125 C 33.666343,69.152443 31.038552,68.22374 29.34375,66.75 A 1.0027361,1.0027361 0 0 1 29,66.125 C 28.788112,64.3818 28.942542,62.684293 29.21875,61 l -6.6875,0 z"
             transform="translate(4.1250489,-39.5)"
             id="path3894"
             style="fill:#1a1a1a;stroke:url(#linearGradient2882);stroke-width:1;stroke-miterlimit:4;stroke-opacity:1;stroke-dasharray:none" />
          <path
             d="m 30,5.5 c -4.142136,0 -7.5,3.134007 -7.5,7 0.03246,1.430727 0.154571,3.130379 1,7 0.5,1.5 4.95976,5.5 5,6 0.96967,0.5 2.5,0.5 3.5,0 0,-0.5 4,-4.5 4.5,-6 0.951375,-4.021691 0.948972,-5.5 1,-7 0,-3.865993 -3.357864,-7 -7.5,-7 z"
             id="path3764"
             style="fill:#1a1a1a;fill-opacity:1;stroke:url(#linearGradient2887);stroke-width:1;stroke-miterlimit:4;stroke-opacity:1;stroke-dasharray:none" />
          <path
             d="m 21,43.2 c -2.362349,-1.982195 -1.235869,-6.38286 -1,-9.2 -1,2 -1,8 -3,8 1.36261,0.458554 2.749561,0.965789 4,1.2 z"
             id="path3848"
             style="opacity:0.3;fill:#1a1a1a;fill-opacity:1;stroke:none" />
          <path
             d="m 39,43.2 c 2.350047,-1.743746 1.156723,-6.485917 1,-9.2 1,2 1,8 3,8 -1.36261,0.458554 -2.749561,0.965789 -4,1.2 z"
             id="path3850"
             style="opacity:0.3;fill:#1a1a1a;fill-opacity:1;stroke:none" />
          <path
             d="m 25.3125,27 c 0.686303,1.744757 2.518909,3 4.6875,3 2.168591,0 4.001197,-1.255243 4.6875,-3 l -9.375,0 z"
             id="path3833"
             style="opacity:0.2;fill:#1a1a1a;fill-opacity:1;stroke:none" />
          <path
             d="m 30,6.53125 c -3.613647,0 -6.450433,2.6790117 -6.46875,5.9375 1.42e-4,0.0063 -1.45e-4,0.02499 0,0.03125 0.03183,1.373874 0.156427,2.981433 0.96875,6.71875 0.04059,0.09664 0.334757,0.582911 0.78125,1.125 0.460685,0.55932 1.039787,1.193866 1.625,1.8125 0.585213,0.618634 1.177291,1.232474 1.625,1.71875 0.223855,0.243138 0.405333,0.457698 0.5625,0.65625 0.01424,0.01799 0.01751,0.04473 0.03125,0.0625 0.579909,0.227936 1.589912,0.230436 2.21875,0 0.140288,-0.203603 0.300098,-0.442723 0.5,-0.6875 0.399803,-0.489555 0.910744,-1.067787 1.4375,-1.6875 0.526756,-0.619713 1.078845,-1.28221 1.5,-1.84375 0.400306,-0.533741 0.657608,-0.976665 0.71875,-1.125 0.0033,-0.01388 -0.0033,-0.01744 0,-0.03125 0.922531,-3.909312 0.918236,-5.212314 0.96875,-6.71875 0,-0.01056 5.9e-5,-0.0207 0,-0.03125 C 36.450433,9.2102617 33.613647,6.53125 30,6.53125 z"
             transform="matrix(1.0045203,0,0,1.0033814,-0.1356006,-0.05135866)"
             id="path3906"
             style="opacity:0.7;fill:#1a1a1a;stroke:url(#linearGradient2896);stroke-width:1;stroke-miterlimit:4;stroke-opacity:1;stroke-dasharray:none" />
        </g>
      </g>
    </g>
  </g>
</svg>
