<?xml version="1.0" encoding="UTF-8" standalone="no"?>
<!-- Generator: Adobe Illustrator 9.0, SVG Export Plug-In  -->

<svg
   xmlns:dc="http://purl.org/dc/elements/1.1/"
   xmlns:cc="http://creativecommons.org/ns#"
   xmlns:rdf="http://www.w3.org/1999/02/22-rdf-syntax-ns#"
   xmlns:svg="http://www.w3.org/2000/svg"
   xmlns="http://www.w3.org/2000/svg"
   xmlns:sodipodi="http://sodipodi.sourceforge.net/DTD/sodipodi-0.dtd"
   xmlns:inkscape="http://www.inkscape.org/namespaces/inkscape"
   height="48"
   id="svg3467"
   inkscape:version="0.47 r22583"
   sodipodi:docname="Sel_custom2.svg"
   sodipodi:version="0.32"
   space="preserve"
   viewBox="0 0 38.4 38.4"
   width="48"
   version="1.1">
  <metadata
     id="metadata3">
    <rdf:RDF>
      <cc:Work
         rdf:about="">
        <dc:title></dc:title>
        <dc:description>Stylized hand-glass originally intended as searching icon.</dc:description>
        <dc:subject>
          <rdf:Bag>
            <rdf:li>icon</rdf:li>
            <rdf:li>magnifier</rdf:li>
            <rdf:li>stylized</rdf:li>
            <rdf:li>tool</rdf:li>
            <rdf:li>hand-glass</rdf:li>
            <rdf:li>searching</rdf:li>
          </rdf:Bag>
        </dc:subject>
        <dc:publisher>
          <cc:Agent
             rdf:about="http://www.openclipart.org/">
            <dc:title>Martin Koz  k &lt;martin.kozak@openoffice.cz&gt;</dc:title>
          </cc:Agent>
        </dc:publisher>
        <dc:creator>
          <cc:Agent>
            <dc:title>Martin Koz  k &lt;martin.kozak *at* openoffice -dot- cz&gt;</dc:title>
          </cc:Agent>
        </dc:creator>
        <dc:rights>
          <cc:Agent>
            <dc:title>Martin Koz  k &lt;martin.kozak@openoffice.cz&gt;</dc:title>
          </cc:Agent>
        </dc:rights>
        <dc:date>2005-08-10</dc:date>
        <dc:format>image/svg+xml</dc:format>
        <dc:type
           rdf:resource="http://purl.org/dc/dcmitype/StillImage" />
        <cc:license
           rdf:resource="http://web.resource.org/cc/PublicDomain" />
        <dc:language>en</dc:language>
      </cc:Work>
      <cc:License
         rdf:about="http://web.resource.org/cc/PublicDomain">
        <cc:permits
           rdf:resource="http://web.resource.org/cc/Reproduction" />
        <cc:permits
           rdf:resource="http://web.resource.org/cc/Distribution" />
        <cc:permits
           rdf:resource="http://web.resource.org/cc/DerivativeWorks" />
      </cc:License>
    </rdf:RDF>
  </metadata>
  <defs
     id="defs3477">
    <inkscape:perspective
       sodipodi:type="inkscape:persp3d"
       inkscape:vp_x="380.74547 : 59.330055 : 1"
       inkscape:vp_y="0 : 912.97183 : 0"
       inkscape:vp_z="941.3533 : 59.330055 : 1"
       inkscape:persp3d-origin="661.04939 : -26.829434 : 1"
       id="perspective11" />
    <inkscape:perspective
       id="perspective2832"
       inkscape:persp3d-origin="0.5 : 0.33333333 : 1"
       inkscape:vp_z="1 : 0.5 : 1"
       inkscape:vp_y="0 : 1000 : 0"
       inkscape:vp_x="0 : 0.5 : 1"
       sodipodi:type="inkscape:persp3d" />
    <filter
       inkscape:collect="always"
       id="filter3671">
      <feGaussianBlur
         inkscape:collect="always"
         stdDeviation="38.86125"
         id="feGaussianBlur3673" />
    </filter>
    <inkscape:perspective
       id="perspective2832-1"
       inkscape:persp3d-origin="0.5 : 0.33333333 : 1"
       inkscape:vp_z="1 : 0.5 : 1"
       inkscape:vp_y="0 : 1000 : 0"
       inkscape:vp_x="0 : 0.5 : 1"
       sodipodi:type="inkscape:persp3d" />
    <inkscape:perspective
       id="perspective2836"
       inkscape:persp3d-origin="0.5 : 0.33333333 : 1"
       inkscape:vp_z="1 : 0.5 : 1"
       inkscape:vp_y="0 : 1000 : 0"
       inkscape:vp_x="0 : 0.5 : 1"
       sodipodi:type="inkscape:persp3d" />
    <inkscape:perspective
       id="perspective2832-7"
       inkscape:persp3d-origin="0.5 : 0.33333333 : 1"
       inkscape:vp_z="1 : 0.5 : 1"
       inkscape:vp_y="0 : 1000 : 0"
       inkscape:vp_x="0 : 0.5 : 1"
       sodipodi:type="inkscape:persp3d" />
    <inkscape:perspective
       id="perspective2832-6"
       inkscape:persp3d-origin="0.5 : 0.33333333 : 1"
       inkscape:vp_z="1 : 0.5 : 1"
       inkscape:vp_y="0 : 1000 : 0"
       inkscape:vp_x="0 : 0.5 : 1"
       sodipodi:type="inkscape:persp3d" />
    <inkscape:perspective
       id="perspective2842"
       inkscape:persp3d-origin="0.5 : 0.33333333 : 1"
       inkscape:vp_z="1 : 0.5 : 1"
       inkscape:vp_y="0 : 1000 : 0"
       inkscape:vp_x="0 : 0.5 : 1"
       sodipodi:type="inkscape:persp3d" />
    <inkscape:perspective
       id="perspective2955"
       inkscape:persp3d-origin="0.5 : 0.33333333 : 1"
       inkscape:vp_z="1 : 0.5 : 1"
       inkscape:vp_y="0 : 1000 : 0"
       inkscape:vp_x="0 : 0.5 : 1"
       sodipodi:type="inkscape:persp3d" />
    <inkscape:perspective
       id="perspective2970"
       inkscape:persp3d-origin="0.5 : 0.33333333 : 1"
       inkscape:vp_z="1 : 0.5 : 1"
       inkscape:vp_y="0 : 1000 : 0"
       inkscape:vp_x="0 : 0.5 : 1"
       sodipodi:type="inkscape:persp3d" />
    <filter
       inkscape:collect="always"
       id="filter3850">
      <feGaussianBlur
         inkscape:collect="always"
         stdDeviation="9.389175"
         id="feGaussianBlur3852" />
    </filter>
  </defs>
  <sodipodi:namedview
     bordercolor="#666666"
     borderopacity="1.0"
     id="base"
     inkscape:current-layer="g3772"
     inkscape:cx="17.498102"
     inkscape:cy="27.299174"
     inkscape:pageopacity="0.0"
     inkscape:pageshadow="2"
     inkscape:window-height="739"
     inkscape:window-width="1280"
     inkscape:window-x="-5"
     inkscape:window-y="0"
     inkscape:zoom="6.8533375"
     pagecolor="#ffffff"
     showgrid="false"
     inkscape:window-maximized="1" />
  <g
     id="Vrstva_x0020_1"
     style="fill:#000000;fill-opacity:1;fill-rule:nonzero;stroke:#000000;stroke-miterlimit:4"
     transform="translate(0,-414.58828)">
    <g
       id="g14"
       transform="matrix(0.1,0,0,-0.1,-453.22157,671.73075)">
      <g
         id="g3772"
         transform="matrix(0.91297183,0,0,0.91297183,380.74547,203.32576)">
        <g
           id="g3822"
           style="fill:#00ff00;filter:url(#filter3850)"
           transform="matrix(1.0303751,0,0,1.0486563,-144.50954,-115.9738)">
          <path
             id="path3824"
             style="fill:#00ff00;fill-opacity:1;fill-rule:nonzero;stroke:none"
             d="m 4605.9599,2494.434 c -23.7075,-32.3488 -36.2354,-70.7015 -36.2354,-110.9018 0,-15.7182 12.7357,-28.4505 28.4492,-28.4505 15.7133,0 28.449,12.7323 28.449,28.4505 0,28.0231 8.732,54.7394 25.2367,77.2612 9.2885,12.6746 6.5388,30.4831 -6.1298,39.7678 -12.6819,9.2952 -30.4812,6.5442 -39.7697,-6.1272" />
          <path
             id="path3826"
             style="fill:#00ff00;fill-opacity:1;fill-rule:nonzero;stroke:none"
             d="m 4619.1382,2299.5435 c -11.79,-10.3869 -12.9235,-28.3718 -2.5284,-40.1526 11.8573,-13.4606 25.5588,-25.1314 40.7021,-34.7063 29.9648,-18.9278 64.6106,-28.9352 100.1955,-28.9352 14.8349,0 29.6161,1.7423 43.9278,5.174 29.5624,7.0868 57.3006,21.5078 80.2101,41.7065 11.7833,10.3872 12.9168,28.3714 2.5217,40.1601 -10.3951,11.784 -28.3686,12.9155 -40.152,2.5284 -15.9684,-14.081 -35.2831,-24.1282 -55.8519,-29.0661 -9.9727,-2.3841 -20.2875,-3.602 -30.6557,-3.602 -24.8074,0 -48.9441,6.9686 -69.7949,20.1456 -10.5694,6.6804 -20.133,14.8276 -28.4221,24.2246 -10.3885,11.7834 -28.3686,12.9183 -40.1522,2.523" />
          <path
             id="path3828"
             style="fill:#00ff00;fill-opacity:1;fill-rule:nonzero;stroke:none"
             d="m 4698.1078,2561.7221 c -14.902,-4.9723 -22.9565,-21.0842 -17.9937,-35.99 4.9694,-14.9067 21.0785,-22.9625 35.9872,-17.9978 13.2923,4.4272 27.2285,6.6798 41.4061,6.6798 26.2292,0 51.5262,-7.7279 73.1548,-22.3381 36.1481,-24.4238 57.7299,-64.9956 57.7299,-108.5438 0,-15.7182 12.7357,-28.4505 28.449,-28.4505 15.7135,0 28.4492,12.7323 28.4492,28.4505 0,62.4806 -30.9441,120.6785 -82.7722,155.6915 -31.0645,20.9967 -67.3804,32.0939 -105.0107,32.0939 -20.3074,0 -40.286,-3.2299 -59.3996,-9.5955" />
        </g>
        <g
           id="g3817">
          <path
             d="m 4605.9599,2494.434 c -23.7075,-32.3488 -36.2354,-70.7015 -36.2354,-110.9018 0,-15.7182 12.7357,-28.4505 28.4492,-28.4505 15.7133,0 28.449,12.7323 28.449,28.4505 0,28.0231 8.732,54.7394 25.2367,77.2612 9.2885,12.6746 6.5388,30.4831 -6.1298,39.7678 -12.6819,9.2952 -30.4812,6.5442 -39.7697,-6.1272"
             style="fill:#000000;fill-opacity:1;fill-rule:nonzero;stroke:none"
             id="path232" />
          <path
             d="m 4619.1382,2299.5435 c -11.79,-10.3869 -12.9235,-28.3718 -2.5284,-40.1526 11.8573,-13.4606 25.5588,-25.1314 40.7021,-34.7063 29.9648,-18.9278 64.6106,-28.9352 100.1955,-28.9352 14.8349,0 29.6161,1.7423 43.9278,5.174 29.5624,7.0868 57.3006,21.5078 80.2101,41.7065 11.7833,10.3872 12.9168,28.3714 2.5217,40.1601 -10.3951,11.784 -28.3686,12.9155 -40.152,2.5284 -15.9684,-14.081 -35.2831,-24.1282 -55.8519,-29.0661 -9.9727,-2.3841 -20.2875,-3.602 -30.6557,-3.602 -24.8074,0 -48.9441,6.9686 -69.7949,20.1456 -10.5694,6.6804 -20.133,14.8276 -28.4221,24.2246 -10.3885,11.7834 -28.3686,12.9183 -40.1522,2.523"
             style="fill:#000000;fill-opacity:1;fill-rule:nonzero;stroke:none"
             id="path234" />
          <path
             d="m 4698.1078,2561.7221 c -14.902,-4.9723 -22.9565,-21.0842 -17.9937,-35.99 4.9694,-14.9067 21.0785,-22.9625 35.9872,-17.9978 13.2923,4.4272 27.2285,6.6798 41.4061,6.6798 26.2292,0 51.5262,-7.7279 73.1548,-22.3381 36.1481,-24.4238 57.7299,-64.9956 57.7299,-108.5438 0,-15.7182 12.7357,-28.4505 28.449,-28.4505 15.7135,0 28.4492,12.7323 28.4492,28.4505 0,62.4806 -30.9441,120.6785 -82.7722,155.6915 -31.0645,20.9967 -67.3804,32.0939 -105.0107,32.0939 -20.3074,0 -40.286,-3.2299 -59.3996,-9.5955"
             style="fill:#000000;fill-opacity:1;fill-rule:nonzero;stroke:none"
             id="path236" />
        </g>
      </g>
    </g>
  </g>
</svg>
