<?xml version="1.0" encoding="UTF-8" standalone="no"?>
<!-- Created with Inkscape (http://www.inkscape.org/) -->

<svg
   xmlns:dc="http://purl.org/dc/elements/1.1/"
   xmlns:cc="http://creativecommons.org/ns#"
   xmlns:rdf="http://www.w3.org/1999/02/22-rdf-syntax-ns#"
   xmlns:svg="http://www.w3.org/2000/svg"
   xmlns="http://www.w3.org/2000/svg"
   version="1.1"
   width="100"
   height="100"
   viewBox="0 0 100 100"
   id="svg2"
   xml:space="preserve"><metadata
     id="metadata30"><rdf:RDF><cc:Work
         rdf:about=""><dc:format>image/svg+xml</dc:format><dc:type
           rdf:resource="http://purl.org/dc/dcmitype/StillImage" /><dc:title></dc:title></cc:Work></rdf:RDF></metadata><defs
     id="defs28" /><g
     id="Captions" /><g
     id="Your_Icon"><rect
       width="38.231998"
       height="3.823"
       x="31.219"
       y="35.556"
       id="rect6" /><rect
       width="38.231998"
       height="3.823"
       x="31.219"
       y="50.848999"
       id="rect8" /><rect
       width="38.231998"
       height="3.823"
       x="31.219"
       y="43.202999"
       id="rect10" /><rect
       width="38.231998"
       height="3.823"
       x="31.219"
       y="58.494999"
       id="rect12" /><path
       d="m 69.451,20.646 c 0,-2.113 -1.712,-3.824 -3.822,-3.824 h -7.647 v -3.058 c 0,-2.111 -1.711,-3.823 -3.823,-3.823 h -7.646 c -2.113,0 -3.824,1.712 -3.824,3.823 v 3.058 h -7.646 c -2.112,0 -3.824,1.711 -3.824,3.824 v 6.626 h 38.232 v -6.626 z"
       id="path14" /><polygon
       points="29.308,24.978 29.308,21.155 19.75,21.155 19.75,89.973 55.942,89.973 55.942,86.149 23.573,86.149 23.573,24.978 "
       id="polygon16" /><polygon
       points="80.922,65.377 80.922,21.155 71.363,21.155 71.363,24.978 77.099,24.978 77.099,65.377 "
       id="polygon18" /><rect
       width="33.219002"
       height="3.8239999"
       x="31.219"
       y="66.140999"
       id="rect22" /><rect
       width="24.723"
       height="3.822"
       x="31.219"
       y="73.789001"
       id="rect24" /><text
       x="61.124489"
       y="103.41956"
       transform="scale(1.0499245,0.95244939)"
       id="text3007"
       xml:space="preserve"
       style="font-size:43.72306442px;font-style:normal;font-weight:normal;line-height:125%;letter-spacing:0px;word-spacing:0px;fill:#000000;fill-opacity:1;stroke:none;font-family:Sans"><tspan
         x="61.124489"
         y="103.41956"
         id="tspan3009"
         style="font-weight:bold;-inkscape-font-specification:Sans Bold">F</tspan></text>
<text
       x="65.617119"
       y="96.704163"
       id="text3022"
       xml:space="preserve"
       style="font-size:40px;font-style:normal;font-weight:normal;line-height:125%;letter-spacing:0px;word-spacing:0px;fill:#00ff00;fill-opacity:1;stroke:none;font-family:Sans"><tspan
         x="65.617119"
         y="96.704163"
         id="tspan3024"
         style="font-weight:bold;fill:#00ff00;-inkscape-font-specification:Sans Bold">F</tspan></text>
</g></svg>