<?xml version="1.0" encoding="UTF-8" standalone="no"?>
<!-- Created with Inkscape (http://www.inkscape.org/) -->

<svg
   xmlns:dc="http://purl.org/dc/elements/1.1/"
   xmlns:cc="http://creativecommons.org/ns#"
   xmlns:rdf="http://www.w3.org/1999/02/22-rdf-syntax-ns#"
   xmlns:svg="http://www.w3.org/2000/svg"
   xmlns="http://www.w3.org/2000/svg"
   xmlns:sodipodi="http://sodipodi.sourceforge.net/DTD/sodipodi-0.dtd"
   xmlns:inkscape="http://www.inkscape.org/namespaces/inkscape"
   version="1.1"
   width="24"
   height="24"
   id="svg3745"
   inkscape:version="0.47 r22583"
   sodipodi:docname="gnome-netstatus-idle.svg">
  <metadata
     id="metadata9">
    <rdf:RDF>
      <cc:Work
         rdf:about="">
        <dc:format>image/svg+xml</dc:format>
        <dc:type
           rdf:resource="http://purl.org/dc/dcmitype/StillImage" />
        <dc:title></dc:title>
      </cc:Work>
    </rdf:RDF>
  </metadata>
  <sodipodi:namedview
     pagecolor="#ffffff"
     bordercolor="#666666"
     borderopacity="1"
     objecttolerance="10"
     gridtolerance="10"
     guidetolerance="10"
     inkscape:pageopacity="0"
     inkscape:pageshadow="2"
     inkscape:window-width="1680"
     inkscape:window-height="994"
     id="namedview7"
     showgrid="false"
     inkscape:zoom="9.8333333"
     inkscape:cx="12"
     inkscape:cy="11.79661"
     inkscape:window-x="0"
     inkscape:window-y="0"
     inkscape:window-maximized="1"
     inkscape:current-layer="svg3745" />
  <defs
     id="defs3747">
    <inkscape:perspective
       sodipodi:type="inkscape:persp3d"
       inkscape:vp_x="0 : 12 : 1"
       inkscape:vp_y="0 : 1000 : 0"
       inkscape:vp_z="24 : 12 : 1"
       inkscape:persp3d-origin="12 : 8 : 1"
       id="perspective11" />
  </defs>
  <g
     transform="translate(0,8)"
     id="layer1"
     style="fill:#1a1a1a">
    <path
       d="M 13.81691,7.839897 C 12.248478,9.395634 9.7158392,9.385342 8.1601026,7.81691 6.6043661,6.248478 6.6146578,3.715839 8.1830898,2.160103 8.2425382,2.101135 8.3038234,2.04405 8.366855,1.9889292 L 11,5 13.81691,7.839897 z M 9,8 8,7 3,12 4,13 9,8 z"
       id="path3765"
       style="fill:#1a1a1a;fill-opacity:1;stroke:none" />
    <path
       d="m 9.18309,1.160103 c 1.568432,-1.555737 4.101071,-1.545445 5.656807,0.022987 1.555737,1.568432 1.545445,4.101071 -0.02299,5.656807 -0.05945,0.058968 -0.120733,0.116053 -0.183765,0.1711738 L 12,4 9.18309,1.160103 z M 20,-3 l -1,-1 -5,5 1,1 5,-5 z"
       id="path3767"
       style="fill:#1a1a1a;fill-opacity:1;stroke:none" />
  </g>
</svg>
