<svg xmlns="http://www.w3.org/2000/svg" xmlns:xlink="http://www.w3.org/1999/xlink" version="1.1" id="Capa_33" x="0px" y="0px" width="100px" height="100px" viewBox="0 0 100 100" enable-background="new 0 0 100 100" xml:space="preserve">
<g>
	<path d="M84.122,51.392H31.198c0,9.417,4.938,17.665,12.346,22.354l-8.166,25.028L39.13,100l3.16-9.685h31.304L76.753,100   l3.752-1.226L72.243,73.46C79.398,68.724,84.122,60.613,84.122,51.392z M72.686,87.535H43.198l3.882-11.897   c3.242,1.417,6.816,2.215,10.579,2.215c3.958,0,7.696-0.895,11.068-2.45L72.686,87.535z"/>
	<path d="M59.472,31.176c3.423-3.423,3.423-8.994,1.134-13.551l0,0c5.813,3.54,5.813,11.146,1.138,15.823   c-3.423,3.421-3.423,8.99-1.138,13.549l0,0C54.794,43.458,54.794,35.852,59.472,31.176z"/>
	<g>
		<path d="M50.295,34.643c2.673-2.673,2.673-7.021,0.888-10.582l0,0c4.537,2.764,4.537,8.704,0.888,12.355    c-2.673,2.673-2.673,7.021-0.888,10.582l0,0C46.646,44.234,46.646,38.293,50.295,34.643z"/>
		<path d="M67.329,34.643c2.673-2.673,2.673-7.021,0.888-10.582l0,0c4.54,2.764,4.54,8.704,0.888,12.355    c-2.673,2.673-2.673,7.021-0.888,10.582l0,0C63.68,44.234,63.68,38.293,67.329,34.643z"/>
	</g>
	<path d="M58.193,3.197l-4.167-1.822c-9.983-3.358-21.155-0.454-28.205,7.504L23.954,7.71l0.418-0.669   c0.432-0.686,0.315-1.529-0.253-1.887l-0.833-0.52c-0.57-0.356-1.381-0.092-1.809,0.593l-5.339,8.53   c-0.428,0.685-0.315,1.529,0.257,1.886l0.831,0.52c0.571,0.357,1.381,0.093,1.808-0.592l0.418-0.67l1.854,1.159   c-5.053,11.799-0.922,25.834,10.308,32.837l28-44.912C59.147,3.695,58.666,3.454,58.193,3.197z M20.451,13.302l2.502-3.996   l1.662,1.041c-0.51,0.669-1.002,1.363-1.456,2.093c-0.387,0.62-0.725,1.258-1.056,1.896L20.451,13.302z"/>
</g>
</svg>