<svg xmlns="http://www.w3.org/2000/svg" xmlns:xlink="http://www.w3.org/1999/xlink" version="1.1" id="Layer_1" x="0px" y="0px" width="100px" height="100px" viewBox="0 0 100 100" enable-background="new 0 0 100 100" xml:space="preserve">
<path d="M74.221,47.819c0.029-0.052,0.041-0.137,0.05-0.18l-0.107,0.27C74.181,47.876,74.207,47.853,74.221,47.819z"/>
<path d="M26.222,79.151C29.457,68.9,34.97,57.747,34.97,57.747l14.852,40.015L27.255,85.091l8.23-7.903  C35.485,77.188,28.538,78.658,26.222,79.151L26.222,79.151z M73.403,79.151C70.17,68.9,64.66,58.338,64.66,58.338L49.822,97.762  l22.549-12.671l-8.229-7.903C64.142,77.188,71.089,78.658,73.403,79.151L73.403,79.151z"/>
<path d="M26.125,36.351c0.142,2.354,2.774,9.639,5.296,8.91c1.232,9.681,8.069,12.777,8.069,12.777l8.507,4.916h3.872l8.385-4.916  c0,0,6.821-3.096,8.066-12.777c2.523,0.729,5.158-6.556,5.299-8.91c0.137-2.269-0.352-5.786-3.42-5.141  c0.07-0.49,0.128-0.981,0.184-1.456c0-0.029,0-0.057,0.013-0.07c0.518-4.133,0.854-7.748,0.67-9.75  c-0.488-5.156-3.836-10.48-9.329-13.772c-0.042-0.015-0.081-0.028-0.127-0.042c-2.924-1.192-7.354-2.97-12.283-3.151  c-4.345,0.111-8.458,0.861-11.251,3.151c-0.45,0.369-1.188,1.327-1.708,1.583c-0.173,0.082-3.928,0.852-5.615,3.662  c-2.49,4.151-1.838,15.096-1.221,19.846C26.462,30.565,25.985,34.082,26.125,36.351"/>
</svg>