<?xml version="1.0" encoding="utf-8"?>
<!-- Generator: Adobe Illustrator 16.0.0, SVG Export Plug-In . SVG Version: 6.00 Build 0)  -->
<!DOCTYPE svg PUBLIC "-//W3C//DTD SVG 1.1//EN" "http://www.w3.org/Graphics/SVG/1.1/DTD/svg11.dtd">
<svg version="1.1" id="Your_Icon" xmlns="http://www.w3.org/2000/svg" xmlns:xlink="http://www.w3.org/1999/xlink" x="0px" y="0px"
	 width="73.472px" height="100px" viewBox="13.266 0 73.472 100" enable-background="new 13.266 0 73.472 100" xml:space="preserve"
	>
<path d="M23.353,34.17c1.168,3.312,4.326,5.688,8.039,5.688c2.765,0,5.222-1.318,6.779-3.359c1.246,1.686,3.118,2.88,5.273,3.241
	c1.047,4.205,4.848,7.321,9.376,7.321c4.103,0,7.603-2.555,9.008-6.161c1.035,0.411,2.163,0.638,3.343,0.638
	c4.299,0,7.899-2.99,8.839-7.004c0.979,0.336,2.027,0.522,3.121,0.522c5.305,0,9.606-4.3,9.606-9.604
	c0-5.269-4.243-9.545-9.498-9.603c-1.336-3.388-4.638-5.788-8.497-5.788c-3.855,0-7.149,2.388-8.491,5.764
	c-0.797-0.439-1.66-0.767-2.574-0.964c0.002-0.112,0.008-0.223,0.008-0.335C57.685,6.504,51.181,0,43.158,0
	c-7.814,0-14.185,6.17-14.51,13.905c-1.417-0.695-3.011-1.087-4.697-1.087c-5.902,0-10.685,4.784-10.685,10.685
	C13.264,29.205,17.729,33.861,23.353,34.17z"/>
<g>
	<path d="M65.236,43.64c-0.506,0-1.008-0.031-1.507-0.089c-2.441,3.483-6.43,5.611-10.843,5.611c-5.353,0-10.083-3.18-12.161-7.955
		c-0.888-0.332-1.73-0.768-2.509-1.298c-1.968,1.327-4.302,2.049-6.758,2.049c-0.299,0-0.596-0.014-0.892-0.036
		c-0.087,0.403-0.135,0.819-0.135,1.247c0,3.256,2.641,5.896,5.896,5.896c0.036,0,0.071-0.004,0.106-0.005
		c-0.064,0.388-0.106,0.784-0.106,1.191c0,3.911,3.17,7.081,7.081,7.081c3.307,0,6.078-2.271,6.855-5.335
		c0.159-0.039,0.318-0.076,0.476-0.124c0.523,3.099,3.212,5.459,6.459,5.459c3.623,0,6.559-2.936,6.559-6.558
		c0-0.277-0.021-0.55-0.055-0.818c0.59,0.139,1.208,0.22,1.843,0.22c4.444,0,8.051-3.604,8.051-8.049
		c0-0.512-0.051-1.013-0.142-1.499C71.226,42.521,68.352,43.64,65.236,43.64z"/>
</g>
<g>
	<path d="M63.196,84.069c-3.962,0.821-8.43,1.26-13.071,1.26c-4.642,0-9.112-0.438-13.072-1.263c-4.092,4.753-9.678,7.29-9.678,7.29
		c0,4.774,10.186,8.644,22.75,8.644s22.75-3.869,22.75-8.644C72.875,91.356,67.289,88.819,63.196,84.069z"/>
	<path d="M50.125,77.767c3.231,0,6.408-0.243,9.312-0.702c-1.141-4.294-1.927-11.099-2.454-17.401
		c-0.419,0.062-0.849,0.099-1.286,0.099c-2.06,0-3.971-0.698-5.487-1.889c-1.575,1.196-3.53,1.889-5.619,1.889
		c-0.449,0-0.89-0.041-1.323-0.103c-0.526,6.302-1.314,13.109-2.456,17.404C43.718,77.523,46.895,77.767,50.125,77.767z"/>
</g>
<path d="M60.051,65.345c0.223,1.481,0.469,2.876,0.733,4.135c1.958,0.353,3.782,0.801,5.421,1.343
	c4.197,1.389,5.614,2.875,5.863,3.342c-0.249,0.465-1.665,1.954-5.863,3.339c-4.373,1.447-10.081,2.243-16.08,2.243
	c-5.997,0-11.707-0.796-16.08-2.243c-4.197-1.385-5.616-2.874-5.865-3.339c0.249-0.467,1.667-1.953,5.865-3.342
	c1.637-0.542,3.462-0.99,5.419-1.343c0.267-1.259,0.512-2.653,0.734-4.135c-9.396,1.435-16.005,4.841-16.005,8.818
	c0,5.271,11.608,9.543,25.931,9.543c14.322,0,25.931-4.271,25.931-9.543C76.057,70.186,69.447,66.779,60.051,65.345z"/>
</svg>
