<?xml version="1.0" encoding="UTF-8" standalone="no"?>
<!-- Created with Inkscape (http://www.inkscape.org/) -->

<svg
   xmlns:dc="http://purl.org/dc/elements/1.1/"
   xmlns:cc="http://creativecommons.org/ns#"
   xmlns:rdf="http://www.w3.org/1999/02/22-rdf-syntax-ns#"
   xmlns:svg="http://www.w3.org/2000/svg"
   xmlns="http://www.w3.org/2000/svg"
   version="1.1"
   width="100"
   height="100"
   viewBox="0 0 100 100"
   id="svg2"
   xml:space="preserve"><metadata
     id="metadata32"><rdf:RDF><cc:Work
         rdf:about=""><dc:format>image/svg+xml</dc:format><dc:type
           rdf:resource="http://purl.org/dc/dcmitype/StillImage" /><dc:title></dc:title></cc:Work></rdf:RDF></metadata><defs
     id="defs30" /><g
     id="Captions" /><g
     id="Your_Icon"><g
       id="g6"><g
         id="g8"><g
           id="g10"><g
             id="g12"><g
               id="g14"><path
                 d="m 50.259,7.251 c 23.758,0 43.005,19.258 43.005,43.007 0,23.749 -19.247,43.006 -43.005,43.006 -23.75,0 -43.008,-19.257 -43.008,-43.006 0,-23.749 19.258,-43.007 43.008,-43.007 m 0,-5.734 C 23.382,1.517 1.517,23.382 1.517,50.258 1.517,77.134 23.382,99 50.259,99 77.134,99 99,77.134 99,50.258 99,23.382 77.134,1.517 50.259,1.517 l 0,0 z"
                 id="path16"
                 style="stroke:#000000;stroke-miterlimit:10" /></g></g><g
             id="g18"><circle
               cx="50.258999"
               cy="50.424"
               r="33.452"
               id="circle20"
               style="fill:none;stroke:#000000;stroke-width:8;stroke-dasharray:20, 15, 20, 15" /></g></g></g><g
         transform="translate(184.32203,-4.2372881)"
         id="g3015"><g
           id="g3017"><g
             transform="translate(-184.74577,4.1186441)"
             id="g3019"
             style="fill:#ff0000"><g
               id="g3021"
               style="fill:#ff0000"><path
                 d="m 50.259,7.251 c 23.758,0 43.005,19.258 43.005,43.007 0,23.749 -19.247,43.006 -43.005,43.006 -23.75,0 -43.008,-19.257 -43.008,-43.006 0,-23.749 19.258,-43.007 43.008,-43.007 m 0,-5.734 C 23.382,1.517 1.517,23.382 1.517,50.258 1.517,77.134 23.382,99 50.259,99 77.134,99 99,77.134 99,50.258 99,23.382 77.134,1.517 50.259,1.517 l 0,0 z"
                 id="path3023"
                 style="fill:#ff0000;stroke:#000000;stroke-miterlimit:10" /></g></g></g></g></g><text
       x="29.991655"
       y="70.619919"
       id="text3009"
       xml:space="preserve"
       style="font-size:58.2215538px;font-style:normal;font-weight:bold;line-height:125%;letter-spacing:0px;word-spacing:0px;fill:#ff2ad4;fill-opacity:1;stroke:none;font-family:Sans;-inkscape-font-specification:Sans Bold"><tspan
         x="29.991655"
         y="70.619919"
         id="tspan3011"
         style="fill:#ff2ad4">E</tspan></text>
<text
       x="34.583557"
       y="65.860168"
       id="text3013"
       xml:space="preserve"
       style="font-size:46.49898911px;font-style:normal;font-weight:bold;line-height:125%;letter-spacing:0px;word-spacing:0px;fill:#000000;fill-opacity:1;stroke:none;font-family:Sans;-inkscape-font-specification:Sans Bold"><tspan
         x="34.583557"
         y="65.860168"
         id="tspan3015">E</tspan></text>
</g></svg>