<?xml version="1.0" encoding="UTF-8" standalone="no"?>
<!-- Created with Inkscape (http://www.inkscape.org/) -->

<svg
   xmlns:dc="http://purl.org/dc/elements/1.1/"
   xmlns:cc="http://creativecommons.org/ns#"
   xmlns:rdf="http://www.w3.org/1999/02/22-rdf-syntax-ns#"
   xmlns:svg="http://www.w3.org/2000/svg"
   xmlns="http://www.w3.org/2000/svg"
   version="1.1"
   width="100"
   height="100"
   viewBox="0 0 100 100"
   id="svg2"
   xml:space="preserve"><metadata
     id="metadata32"><rdf:RDF><cc:Work
         rdf:about=""><dc:format>image/svg+xml</dc:format><dc:type
           rdf:resource="http://purl.org/dc/dcmitype/StillImage" /><dc:title></dc:title></cc:Work></rdf:RDF></metadata><defs
     id="defs30" /><g
     id="Captions" /><g
     id="Your_Icon"><g
       transform="translate(5.0057286e-4,-1.1056848)"
       id="g6"
       style="fill:#00aad4;stroke:#00ccff;stroke-width:5;stroke-miterlimit:4;stroke-opacity:1;stroke-dasharray:none"><g
         id="g8"
         style="fill:#00aad4;stroke:#00ccff;stroke-width:5;stroke-miterlimit:4;stroke-opacity:1;stroke-dasharray:none"><g
           id="g10"
           style="fill:#00aad4;stroke:#00ccff;stroke-width:5;stroke-miterlimit:4;stroke-opacity:1;stroke-dasharray:none"><g
             transform="matrix(0.58695444,0,0,0.58695444,20.75905,20.75905)"
             id="g12"
             style="fill:#00aad4;stroke:#00ccff;stroke-width:8.51854897;stroke-miterlimit:4;stroke-opacity:1;stroke-dasharray:none"><g
               id="g14"
               style="fill:#00aad4;stroke:#00ccff;stroke-width:8.51854897;stroke-miterlimit:4;stroke-opacity:1;stroke-dasharray:none"><path
                 d="m 50.259,7.251 c 23.758,0 43.005,19.258 43.005,43.007 0,23.749 -19.247,43.006 -43.005,43.006 -23.75,0 -43.008,-19.257 -43.008,-43.006 0,-23.749 19.258,-43.007 43.008,-43.007 m 0,-5.734 C 23.382,1.517 1.517,23.382 1.517,50.258 1.517,77.134 23.382,99 50.259,99 77.134,99 99,77.134 99,50.258 99,23.382 77.134,1.517 50.259,1.517 l 0,0 z"
                 id="path16"
                 style="fill:#00aad4;stroke:#0088aa;stroke-width:8.51854897;stroke-miterlimit:4;stroke-opacity:1;stroke-dasharray:none" /></g></g></g></g></g><g
       transform="matrix(0.9547047,0,0,0.9547047,-180.57372,-10.314221)"
       id="g3122"><g
         id="g3124"><g
           transform="translate(30.508475,16.525424)"
           id="g3126"><g
             transform="matrix(1.2489062,0,0,1.2489062,148.50717,-17.211862)"
             id="g3134"><circle
               cx="50.258999"
               cy="50.424"
               r="33.452"
               id="circle3136"
               style="fill:none;stroke:#000000;stroke-width:8;stroke-dasharray:20, 15, 20, 15" /></g></g></g></g></g></svg>