<svg xmlns="http://www.w3.org/2000/svg" xmlns:xlink="http://www.w3.org/1999/xlink" version="1.1" id="Layer_1" x="0px" y="0px" width="100px" height="100px" viewBox="0 0 100 100" enable-background="new 0 0 100 100" xml:space="preserve">
<path d="M47.827,28.983c-0.006,0.004-0.011,0.009-0.017,0.014c-0.693,0.538-1.357,1.109-1.994,1.712  c-0.007,0.007-0.014,0.014-0.021,0.021c-0.636,0.604-1.243,1.24-1.817,1.904c-0.002,0.003-0.005,0.006-0.007,0.009  C39.944,37.305,37.5,43.37,37.5,50c0,4.225,0.995,8.22,2.755,11.771c3.619-1.382,6.505-4.399,7.676-8.106  C47.658,52.481,47.5,51.258,47.5,50c0-3.161,0.93-6.124,2.504-8.656c0.225-0.362,0.463-0.715,0.714-1.059l0,0  c0.709-0.97,1.523-1.856,2.417-2.655c0.076-0.068,0.148-0.14,0.227-0.206c0.213-0.184,0.438-0.356,0.66-0.529  c0.174-0.135,0.35-0.27,0.529-0.397c0.191-0.138,0.387-0.271,0.586-0.401c0.241-0.157,0.488-0.306,0.736-0.451  c0.163-0.094,0.324-0.192,0.49-0.281c0.419-0.225,0.846-0.437,1.285-0.625c0.004-0.002,0.008-0.004,0.012-0.006l0,0  c1.984-0.851,4.159-1.323,6.432-1.323h25.75c5.609,0,10.156-4.478,10.156-10H64.092v-0.003  C57.969,23.406,52.327,25.492,47.827,28.983z"/>
<path d="M100,66.591H64.092c-0.808,0-1.597-0.08-2.375-0.194c-2.033,3.188-4.635,5.979-7.668,8.221  c3.078,1.26,6.44,1.963,9.965,1.974H64c2.762,0,5,2.238,5,5v5L100,66.591z"/>
<path d="M35.908,33.409c0.808,0,1.597,0.08,2.376,0.194c2.033-3.188,4.634-5.979,7.668-8.22c-3.079-1.261-6.441-1.964-9.966-1.975  H36c-2.762,0-5-2.238-5-5v-5l-31,20H35.908z"/>
<path d="M50.003,72.536c0.749-0.471,1.471-0.978,2.168-1.518c0.008-0.006,0.014-0.012,0.021-0.017  c0.691-0.538,1.355-1.108,1.99-1.711c0.008-0.007,0.015-0.014,0.021-0.021c0.636-0.604,1.24-1.237,1.814-1.9  c0.004-0.005,0.008-0.011,0.014-0.016c0.574-0.665,1.115-1.358,1.623-2.079c0.002-0.002,0.004-0.005,0.006-0.007c0,0,0,0-0.001,0  c3.044-4.324,4.839-9.589,4.839-15.268c0-4.225-0.994-8.22-2.756-11.771c-3.619,1.382-6.505,4.399-7.676,8.107  c0.273,1.183,0.432,2.406,0.432,3.664c0,3.158-0.928,6.118-2.5,8.648c-0.862,1.388-1.924,2.639-3.137,3.723  c-0.076,0.067-0.148,0.139-0.225,0.204c-0.214,0.185-0.438,0.357-0.661,0.53c-0.174,0.135-0.348,0.269-0.527,0.396  c-0.193,0.139-0.39,0.273-0.59,0.403c-0.239,0.156-0.483,0.304-0.73,0.447c-0.165,0.096-0.327,0.195-0.495,0.285  c-0.415,0.223-0.838,0.432-1.272,0.618c-0.008,0.004-0.016,0.008-0.024,0.012l0,0c-1.984,0.851-4.159,1.323-6.432,1.323H10.157  c-5.61,0-10.157,4.478-10.157,10h35.908v0.004c5.174,0,10.004-1.49,14.093-4.058l0,0C50.002,72.537,50.003,72.536,50.003,72.536z"/>
</svg>