<?xml version="1.0" encoding="utf-8"?>
<!-- Generator: Adobe Illustrator 15.1.0, SVG Export Plug-In . SVG Version: 6.00 Build 0)  -->
<!DOCTYPE svg PUBLIC "-//W3C//DTD SVG 1.1//EN" "http://www.w3.org/Graphics/SVG/1.1/DTD/svg11.dtd">
<svg version="1.1" id="Ebene_1" xmlns="http://www.w3.org/2000/svg" xmlns:xlink="http://www.w3.org/1999/xlink" x="0px" y="0px"
	 width="96.947px" height="100px" viewBox="9.142 0.25 96.947 100" enable-background="new 9.142 0.25 96.947 100"
	 xml:space="preserve">
<path d="M47.646,60.65c-19.095,0-34.935-4.411-37.971-10.204c3.04,22.626,18.9,49.804,38.021,49.804
	c19.2,0,35.116-27.406,38.061-50.083C83.095,56.094,67.05,60.65,47.646,60.65z"/>
<path d="M100.786,19.487c-4.564,2.482-14.294-4.7-19.786-5.778c0.531-0.2,1.037-0.38,1.486-0.514
	c4.641-1.382,17.789,4.609,22.172,5.837c4.385,1.228-2.321-18.74-6.573-14.287C93.832,9.2,80.297,4.131,75.914,6.589
	c-1.24,0.694-2.391,2.074-3.413,3.682C65.797,4.021,57.146,0.25,47.697,0.25c-21.293,0-38.555,19.12-38.555,42.704
	c0,1.394,0.064,2.828,0.182,4.284c1.876-6.197,18.315-8.125,38.322-8.125c20.344,0,36.992,2.091,38.4,8.439
	c0.133-1.566,0.204-3.103,0.204-4.598c0-7.528-1.766-14.599-4.853-20.741c0.89-0.037,1.715-0.046,2.409-0.006
	c4.777,0.273,15.916,10.533,19.812,13.217C107.517,38.111,105.938,16.687,100.786,19.487z"/>
<path d="M45.107,52.502l-22.511-8.253l-1.691,4.616l9.014,1.355c-0.622,0.564-1.02,1.375-1.02,2.282c0,1.71,1.387,3.097,3.097,3.097
	c1.711,0,3.098-1.387,3.098-3.097c0-0.576-0.168-1.109-0.441-1.572L45.107,52.502z"/>
<path d="M65.476,50.22l9.014-1.355l-1.691-4.617l-22.512,8.254l10.456-1.57c-0.275,0.463-0.441,0.995-0.441,1.57
	c0,1.71,1.387,3.098,3.097,3.098s3.1-1.388,3.1-3.098C66.494,51.595,66.099,50.784,65.476,50.22z"/>
</svg>
