<?xml version="1.0" encoding="UTF-8" standalone="no"?>
<!-- Created with Inkscape (http://www.inkscape.org/) -->

<svg
   xmlns:dc="http://purl.org/dc/elements/1.1/"
   xmlns:cc="http://creativecommons.org/ns#"
   xmlns:rdf="http://www.w3.org/1999/02/22-rdf-syntax-ns#"
   xmlns:svg="http://www.w3.org/2000/svg"
   xmlns="http://www.w3.org/2000/svg"
   xmlns:xlink="http://www.w3.org/1999/xlink"
   xmlns:sodipodi="http://sodipodi.sourceforge.net/DTD/sodipodi-0.dtd"
   xmlns:inkscape="http://www.inkscape.org/namespaces/inkscape"
   width="128"
   height="128"
   id="svg7115"
   version="1.1"
   inkscape:version="0.47 r22583"
   sodipodi:docname="Docs_PHD_excel.svg">
  <sodipodi:namedview
     id="base"
     pagecolor="#ffffff"
     bordercolor="#666666"
     borderopacity="1.0"
     inkscape:pageopacity="0.0"
     inkscape:pageshadow="2"
     inkscape:zoom="2.8"
     inkscape:cx="56.641234"
     inkscape:cy="77.142857"
     inkscape:document-units="px"
     inkscape:current-layer="svg7115"
     showgrid="false"
     inkscape:window-width="1680"
     inkscape:window-height="994"
     inkscape:window-x="-4"
     inkscape:window-y="-3"
     inkscape:window-maximized="1" />
  <defs
     id="defs7117">
    <inkscape:perspective
       sodipodi:type="inkscape:persp3d"
       inkscape:vp_x="0 : 526.18109 : 1"
       inkscape:vp_y="0 : 1000 : 0"
       inkscape:vp_z="744.09448 : 526.18109 : 1"
       inkscape:persp3d-origin="372.04724 : 350.78739 : 1"
       id="perspective7123" />
    <inkscape:perspective
       id="perspective7133"
       inkscape:persp3d-origin="0.5 : 0.33333333 : 1"
       inkscape:vp_z="1 : 0.5 : 1"
       inkscape:vp_y="0 : 1000 : 0"
       inkscape:vp_x="0 : 0.5 : 1"
       sodipodi:type="inkscape:persp3d" />
    <radialGradient
       r="57.578693"
       fy="-44.736084"
       fx="81.822357"
       cy="-44.736084"
       cx="81.822357"
       gradientUnits="userSpaceOnUse"
       id="radialGradient6556"
       xlink:href="#linearGradient4065-7"
       inkscape:collect="always" />
    <linearGradient
       id="linearGradient4065-7">
      <stop
         style="stop-color:#a2dba0;stop-opacity:1;"
         offset="0"
         id="stop4067-3" />
      <stop
         style="stop-color:#2fb344;stop-opacity:1;"
         offset="1"
         id="stop4069-38" />
    </linearGradient>
    <linearGradient
       inkscape:collect="always"
       xlink:href="#linearGradient4065-7"
       id="linearGradient7676"
       x1="24.243664"
       y1="-44.736084"
       x2="139.40105"
       y2="-44.736084"
       gradientUnits="userSpaceOnUse" />
    <linearGradient
       inkscape:collect="always"
       xlink:href="#linearGradient4065-7-577"
       id="linearGradient7676-613"
       x1="24.243664"
       y1="-44.736084"
       x2="139.40105"
       y2="-44.736084"
       gradientUnits="userSpaceOnUse" />
    <linearGradient
       id="linearGradient4065-7-577">
      <stop
         style="stop-color:#b4e2b2;stop-opacity:1;"
         offset="0"
         id="stop3027" />
      <stop
         style="stop-color:#34c74b;stop-opacity:1;"
         offset="1"
         id="stop3029" />
    </linearGradient>
    <linearGradient
       inkscape:collect="always"
       xlink:href="#linearGradient4065-7-577-38"
       id="linearGradient7676-613-795"
       x1="24.243664"
       y1="-44.736084"
       x2="139.40105"
       y2="-44.736084"
       gradientUnits="userSpaceOnUse" />
    <linearGradient
       id="linearGradient4065-7-577-38">
      <stop
         style="stop-color:#c6e8c4;stop-opacity:1;"
         offset="0"
         id="stop3066" />
      <stop
         style="stop-color:#45ce5b;stop-opacity:1;"
         offset="1"
         id="stop3068" />
    </linearGradient>
    <inkscape:perspective
       id="perspective3215"
       inkscape:persp3d-origin="0.5 : 0.33333333 : 1"
       inkscape:vp_z="1 : 0.5 : 1"
       inkscape:vp_y="0 : 1000 : 0"
       inkscape:vp_x="0 : 0.5 : 1"
       sodipodi:type="inkscape:persp3d" />
    <inkscape:perspective
       id="perspective3253"
       inkscape:persp3d-origin="0.5 : 0.33333333 : 1"
       inkscape:vp_z="1 : 0.5 : 1"
       inkscape:vp_y="0 : 1000 : 0"
       inkscape:vp_x="0 : 0.5 : 1"
       sodipodi:type="inkscape:persp3d" />
    <inkscape:perspective
       id="perspective3214"
       inkscape:persp3d-origin="0.5 : 0.33333333 : 1"
       inkscape:vp_z="1 : 0.5 : 1"
       inkscape:vp_y="0 : 1000 : 0"
       inkscape:vp_x="0 : 0.5 : 1"
       sodipodi:type="inkscape:persp3d" />
  </defs>
  <metadata
     id="metadata7120">
    <rdf:RDF>
      <cc:Work
         rdf:about="">
        <dc:format>image/svg+xml</dc:format>
        <dc:type
           rdf:resource="http://purl.org/dc/dcmitype/StillImage" />
        <dc:title></dc:title>
      </cc:Work>
    </rdf:RDF>
  </metadata>
  <g
     inkscape:label="Layer 1"
     inkscape:groupmode="layer"
     id="layer1"
     transform="translate(0,-924.36218)">
    <path
       transform="matrix(1.0749636,0,0,1.0749636,-23.956056,1036.4518)"
       d="m 139.40105,-44.736084 c 0,31.799834 -25.77886,57.578693 -57.578693,57.578693 -31.799834,0 -57.578693,-25.778859 -57.578693,-57.578693 0,-31.799834 25.778859,-57.578696 57.578693,-57.578696 31.799833,0 57.578693,25.778862 57.578693,57.578696 z"
       sodipodi:ry="57.578693"
       sodipodi:rx="57.578693"
       sodipodi:cy="-44.736084"
       sodipodi:cx="81.822357"
       id="path3291"
       style="fill:url(#linearGradient7676-613-795);fill-opacity:1;stroke:none"
       sodipodi:type="arc" />
  </g>
  <path
     d="m 66.819556,90.547267 c 2.226775,0 4.034126,-1.80166 4.034126,-4.02835 l 0,-29.841139 c 0,-2.22961 -1.807351,-4.034151 -4.034126,-4.034151 l -5.65355,0 c -2.221,0 -4.034204,1.804541 -4.034204,4.034151 l 0,29.841139 c 0,2.22669 1.813204,4.02835 4.034204,4.02835 l 5.65355,0 z m 32.481405,1.61365 -70.607695,0 c -2.235437,0 -4.037039,1.80742 -4.037039,4.03412 l 0,5.647803 c 0,2.221 1.801602,4.03129 4.037039,4.03129 l 70.607695,0 c 2.229609,0 4.037039,-1.81029 4.037039,-4.03129 l 0,-5.647803 c 0,-2.2267 -1.80743,-4.03412 -4.037039,-4.03412 z m -60.324245,-1.61365 c 2.22961,0 4.034152,-1.80166 4.034152,-4.02835 l 0,-29.841139 c 0,-2.22961 -1.804542,-4.034151 -4.034152,-4.034151 l -5.647854,0 c -2.232446,0 -4.031212,1.804541 -4.031212,4.034151 l 0,29.841139 c 0,2.22669 1.798766,4.02835 4.031212,4.02835 l 5.647854,0 z m 55.691505,0 c 2.2209,0 4.03413,-1.80166 4.03413,-4.02835 l 0,-29.841139 c 0,-2.22961 -1.81323,-4.034151 -4.03413,-4.034151 l -5.6594,0 c -2.22095,0 -4.03413,1.804541 -4.03413,4.034151 l 0,29.841139 c 0,2.22669 1.81318,4.02835 4.03413,4.02835 l 5.6594,0 z M 63.193149,22.12579 c -7.77333,0 -41.56472,22.58257 -41.56472,22.58257 0,2.232471 1.807455,4.037039 4.037065,4.037039 l 27.24998,0 c 0.318231,-5.847382 5.156163,-10.488831 11.07295,-10.488831 5.937025,0 10.772174,4.641449 11.087413,10.488831 l 27.250003,0 c 2.22961,0 4.04573,-1.804568 4.04573,-4.037039 0,0 -35.419555,-22.58257 -43.178421,-22.58257"
     style="fill:#1a1a1a;fill-opacity:1;fill-rule:nonzero;stroke:none"
     id="path630" />
</svg>
