<?xml version="1.0" encoding="UTF-8" standalone="no"?>
<!-- Created with Inkscape (http://www.inkscape.org/) -->

<svg
   xmlns:dc="http://purl.org/dc/elements/1.1/"
   xmlns:cc="http://creativecommons.org/ns#"
   xmlns:rdf="http://www.w3.org/1999/02/22-rdf-syntax-ns#"
   xmlns:svg="http://www.w3.org/2000/svg"
   xmlns="http://www.w3.org/2000/svg"
   xmlns:xlink="http://www.w3.org/1999/xlink"
   xmlns:sodipodi="http://sodipodi.sourceforge.net/DTD/sodipodi-0.dtd"
   xmlns:inkscape="http://www.inkscape.org/namespaces/inkscape"
   width="128"
   height="128"
   id="svg7115"
   version="1.1"
   inkscape:version="0.47 r22583"
   sodipodi:docname="Docs_PHD_DB.svg">
  <sodipodi:namedview
     id="base"
     pagecolor="#ffffff"
     bordercolor="#666666"
     borderopacity="1.0"
     inkscape:pageopacity="0.0"
     inkscape:pageshadow="2"
     inkscape:zoom="2.8"
     inkscape:cx="56.641234"
     inkscape:cy="77.142857"
     inkscape:document-units="px"
     inkscape:current-layer="svg7115"
     showgrid="false"
     inkscape:window-width="1680"
     inkscape:window-height="994"
     inkscape:window-x="-4"
     inkscape:window-y="-3"
     inkscape:window-maximized="1" />
  <defs
     id="defs7117">
    <inkscape:perspective
       sodipodi:type="inkscape:persp3d"
       inkscape:vp_x="0 : 526.18109 : 1"
       inkscape:vp_y="0 : 1000 : 0"
       inkscape:vp_z="744.09448 : 526.18109 : 1"
       inkscape:persp3d-origin="372.04724 : 350.78739 : 1"
       id="perspective7123" />
    <inkscape:perspective
       id="perspective7133"
       inkscape:persp3d-origin="0.5 : 0.33333333 : 1"
       inkscape:vp_z="1 : 0.5 : 1"
       inkscape:vp_y="0 : 1000 : 0"
       inkscape:vp_x="0 : 0.5 : 1"
       sodipodi:type="inkscape:persp3d" />
    <radialGradient
       r="57.578693"
       fy="-44.736084"
       fx="81.822357"
       cy="-44.736084"
       cx="81.822357"
       gradientUnits="userSpaceOnUse"
       id="radialGradient6556"
       xlink:href="#linearGradient4065-7"
       inkscape:collect="always" />
    <linearGradient
       id="linearGradient4065-7">
      <stop
         style="stop-color:#a2dba0;stop-opacity:1;"
         offset="0"
         id="stop4067-3" />
      <stop
         style="stop-color:#2fb344;stop-opacity:1;"
         offset="1"
         id="stop4069-38" />
    </linearGradient>
    <linearGradient
       inkscape:collect="always"
       xlink:href="#linearGradient4065-7"
       id="linearGradient7676"
       x1="24.243664"
       y1="-44.736084"
       x2="139.40105"
       y2="-44.736084"
       gradientUnits="userSpaceOnUse" />
    <linearGradient
       inkscape:collect="always"
       xlink:href="#linearGradient4065-7-577"
       id="linearGradient7676-613"
       x1="24.243664"
       y1="-44.736084"
       x2="139.40105"
       y2="-44.736084"
       gradientUnits="userSpaceOnUse" />
    <linearGradient
       id="linearGradient4065-7-577">
      <stop
         style="stop-color:#b4e2b2;stop-opacity:1;"
         offset="0"
         id="stop3027" />
      <stop
         style="stop-color:#34c74b;stop-opacity:1;"
         offset="1"
         id="stop3029" />
    </linearGradient>
    <linearGradient
       inkscape:collect="always"
       xlink:href="#linearGradient4065-7-577-38"
       id="linearGradient7676-613-795"
       x1="24.243664"
       y1="-44.736084"
       x2="139.40105"
       y2="-44.736084"
       gradientUnits="userSpaceOnUse" />
    <linearGradient
       id="linearGradient4065-7-577-38">
      <stop
         style="stop-color:#c6e8c4;stop-opacity:1;"
         offset="0"
         id="stop3066" />
      <stop
         style="stop-color:#45ce5b;stop-opacity:1;"
         offset="1"
         id="stop3068" />
    </linearGradient>
    <inkscape:perspective
       id="perspective3215"
       inkscape:persp3d-origin="0.5 : 0.33333333 : 1"
       inkscape:vp_z="1 : 0.5 : 1"
       inkscape:vp_y="0 : 1000 : 0"
       inkscape:vp_x="0 : 0.5 : 1"
       sodipodi:type="inkscape:persp3d" />
    <inkscape:perspective
       id="perspective3253"
       inkscape:persp3d-origin="0.5 : 0.33333333 : 1"
       inkscape:vp_z="1 : 0.5 : 1"
       inkscape:vp_y="0 : 1000 : 0"
       inkscape:vp_x="0 : 0.5 : 1"
       sodipodi:type="inkscape:persp3d" />
  </defs>
  <metadata
     id="metadata7120">
    <rdf:RDF>
      <cc:Work
         rdf:about="">
        <dc:format>image/svg+xml</dc:format>
        <dc:type
           rdf:resource="http://purl.org/dc/dcmitype/StillImage" />
        <dc:title></dc:title>
      </cc:Work>
    </rdf:RDF>
  </metadata>
  <g
     inkscape:label="Layer 1"
     inkscape:groupmode="layer"
     id="layer1"
     transform="translate(0,-924.36218)">
    <path
       transform="matrix(1.0749636,0,0,1.0749636,-23.956056,1036.4518)"
       d="m 139.40105,-44.736084 c 0,31.799834 -25.77886,57.578693 -57.578693,57.578693 -31.799834,0 -57.578693,-25.778859 -57.578693,-57.578693 0,-31.799834 25.778859,-57.578696 57.578693,-57.578696 31.799833,0 57.578693,25.778862 57.578693,57.578696 z"
       sodipodi:ry="57.578693"
       sodipodi:rx="57.578693"
       sodipodi:cy="-44.736084"
       sodipodi:cx="81.822357"
       id="path3291"
       style="fill:url(#linearGradient7676-613-795);fill-opacity:1;stroke:none"
       sodipodi:type="arc" />
  </g>
  <path
     style="fill:#000000"
     d="m 69.557944,89.450884 c -4.434703,-5.63956 -8.329072,-10.2537 -8.654134,-10.2537 -0.325083,0 -2.8911,2.92581 -5.702284,6.50183 -2.811183,3.57599 -5.6632,6.71361 -6.337803,6.97249 -2.030914,0.77933 -26.839234,0.50408 -28.129565,-0.31208 -1.043186,-0.65984 -1.032749,-0.94946 0.08071,-2.24325 14.632063,-17.00185 24.495028,-29.04994 24.49307,-29.91942 -0.0021,-0.60325 -5.168097,-7.55661 -11.48165,-15.451955 C 27.512713,36.849477 22.34597,30.112778 22.344595,29.774425 c -0.0021,-0.338396 5.811367,-0.62525 12.917191,-0.637479 l 12.919648,-0.02225 6.325054,6.789678 6.325032,6.789678 3.491975,-4.101473 c 1.920601,-2.25581 4.854534,-5.495513 6.519865,-7.199344 l 3.027892,-3.097892 12.516837,0.226854 c 7.444052,0.134917 12.611003,0.559291 12.749211,1.047144 0.127833,0.451166 -4.924806,7.280115 -11.22813,15.175458 -6.305887,7.898595 -11.36088,14.969185 -11.238964,15.720355 0.121854,0.75085 7.333178,9.54357 16.025186,19.53939 8.691968,9.99582 15.591418,18.51751 15.332118,18.93712 -0.26283,0.42523 -7.09609,0.76291 -15.438993,0.76291 l -14.967479,0 -8.063092,-10.25369 z"
     id="path2850" />
</svg>
