<?xml version="1.0" encoding="UTF-8" standalone="no"?>
<!-- Created with Inkscape (http://www.inkscape.org/) -->

<svg
   xmlns:dc="http://purl.org/dc/elements/1.1/"
   xmlns:cc="http://creativecommons.org/ns#"
   xmlns:rdf="http://www.w3.org/1999/02/22-rdf-syntax-ns#"
   xmlns:svg="http://www.w3.org/2000/svg"
   xmlns="http://www.w3.org/2000/svg"
   xmlns:xlink="http://www.w3.org/1999/xlink"
   xmlns:sodipodi="http://sodipodi.sourceforge.net/DTD/sodipodi-0.dtd"
   xmlns:inkscape="http://www.inkscape.org/namespaces/inkscape"
   width="128"
   height="128"
   id="svg7115"
   version="1.1"
   inkscape:version="0.47 r22583"
   sodipodi:docname="$Template_Dot.svg">
  <defs
     id="defs7117">
    <inkscape:perspective
       sodipodi:type="inkscape:persp3d"
       inkscape:vp_x="0 : 526.18109 : 1"
       inkscape:vp_y="0 : 1000 : 0"
       inkscape:vp_z="744.09448 : 526.18109 : 1"
       inkscape:persp3d-origin="372.04724 : 350.78739 : 1"
       id="perspective7123" />
    <inkscape:perspective
       id="perspective7133"
       inkscape:persp3d-origin="0.5 : 0.33333333 : 1"
       inkscape:vp_z="1 : 0.5 : 1"
       inkscape:vp_y="0 : 1000 : 0"
       inkscape:vp_x="0 : 0.5 : 1"
       sodipodi:type="inkscape:persp3d" />
    <radialGradient
       r="57.578693"
       fy="-44.736084"
       fx="81.822357"
       cy="-44.736084"
       cx="81.822357"
       gradientUnits="userSpaceOnUse"
       id="radialGradient6556"
       xlink:href="#linearGradient4065-7"
       inkscape:collect="always" />
    <linearGradient
       id="linearGradient4065-7">
      <stop
         style="stop-color:#a2a8a1;stop-opacity:1;"
         offset="0"
         id="stop4067-3" />
      <stop
         style="stop-color:#e8e8e8;stop-opacity:1;"
         offset="1"
         id="stop4069-38" />
    </linearGradient>
    <linearGradient
       inkscape:collect="always"
       xlink:href="#linearGradient4065-7"
       id="linearGradient7676"
       x1="24.243664"
       y1="-44.736084"
       x2="139.40105"
       y2="-44.736084"
       gradientUnits="userSpaceOnUse" />
    <inkscape:perspective
       id="perspective3120"
       inkscape:persp3d-origin="0.5 : 0.33333333 : 1"
       inkscape:vp_z="1 : 0.5 : 1"
       inkscape:vp_y="0 : 1000 : 0"
       inkscape:vp_x="0 : 0.5 : 1"
       sodipodi:type="inkscape:persp3d" />
  </defs>
  <sodipodi:namedview
     id="base"
     pagecolor="#ffffff"
     bordercolor="#666666"
     borderopacity="1.0"
     inkscape:pageopacity="0.0"
     inkscape:pageshadow="2"
     inkscape:zoom="2.8"
     inkscape:cx="35.748377"
     inkscape:cy="77.142857"
     inkscape:document-units="px"
     inkscape:current-layer="layer1"
     showgrid="false"
     inkscape:window-width="1680"
     inkscape:window-height="994"
     inkscape:window-x="-4"
     inkscape:window-y="-3"
     inkscape:window-maximized="1" />
  <metadata
     id="metadata7120">
    <rdf:RDF>
      <cc:Work
         rdf:about="">
        <dc:format>image/svg+xml</dc:format>
        <dc:type
           rdf:resource="http://purl.org/dc/dcmitype/StillImage" />
        <dc:title></dc:title>
      </cc:Work>
    </rdf:RDF>
  </metadata>
  <g
     inkscape:label="Layer 1"
     inkscape:groupmode="layer"
     id="layer1"
     transform="translate(0,-924.36218)">
    <path
       transform="matrix(1.0749636,0,0,1.0749636,-23.956056,1036.4518)"
       d="m 139.40105,-44.736084 c 0,31.799834 -25.77886,57.578693 -57.578693,57.578693 -31.799834,0 -57.578693,-25.778859 -57.578693,-57.578693 0,-31.799834 25.778859,-57.578696 57.578693,-57.578696 31.799833,0 57.578693,25.778862 57.578693,57.578696 z"
       sodipodi:ry="57.578693"
       sodipodi:rx="57.578693"
       sodipodi:cy="-44.736084"
       sodipodi:cx="81.822357"
       id="path3291"
       style="fill:url(#linearGradient7676);fill-opacity:1;stroke:none"
       sodipodi:type="arc" />
    <path
       d="m 70.906224,944.36201 -14.625,1.40625 0,60.25004 14.46875,-2.1875 0,-25.68754 19.46875,28.50004 15.249996,-4.8438 -19.937496,-27.40624 20.093746,-25.84375 -15.562496,-3.5625 -19.3125,25.84375 0.15625,-26.46875 z m -33.15625,14.6875 c -0.16537,0.0171 -0.34425,0.0627 -0.46875,0.1875 l -5.75,5.75 c -0.24149,0.24225 -0.27099,0.613 -0.0937,0.90625 l 6.71875,11.09375 c -1.19299,2.00549 -2.16175,4.15676 -2.84375,6.4375 l -12.34375,2.5625 c -0.34349,0.071 -0.593749,0.398 -0.593749,0.75 l 0,8.125 c 0,0.3435 0.261249,0.63775 0.593749,0.71875 l 11.96875,2.90621 c 0.64,2.64053 1.62876,5.16733 2.9375,7.46883 l -6.9375,10.5625 c -0.19349,0.295 -0.15574,0.6885 0.0937,0.9375 l 5.75,5.75 c 0.24225,0.2415 0.61376,0.2718 0.90625,0.094 l 10.875,-6.5938 c 2.13299,1.2315 4.44227,2.218 6.875,2.875 l 2.53125,12.1876 c 0.071,0.3445 0.36701,0.5937 0.71875,0.5937 l 8.125,0 c 0.341,0 0.63776,-0.229 0.71875,-0.5625 l 3,-12.25 c 2.50899,-0.6765 4.87452,-1.6808 7.0625,-2.9688 l 10.71875,7.0313 c 0.2955,0.1925 0.68701,0.1553 0.9375,-0.094 l 5.71875,-5.75 c 0.243,-0.2425 0.303,-0.6138 0.125,-0.9063 l -3.90625,-6.4375 -1.28125,0.4063 c -0.185,0.057 -0.39,-0.027 -0.5,-0.1875 0,0 -2.46751,-3.6298 -5.6875,-8.3438 -3.85097,7.5355 -11.70455,12.6875 -20.75,12.6875 -12.85342,0 -23.28125,-10.4278 -23.28125,-23.28124 0,-9.4547 5.6538,-17.57527 13.75,-21.21875 l 0,-6 c -1.47349,0.51575 -2.897,1.138 -4.25,1.875 -0.002,-0.001 0.002,-0.0298 0,-0.0312 l -10.96875,-7.1875 c -0.14749,-0.0965 -0.30337,-0.11081 -0.46875,-0.0937 z"
       style="fill:#28220b;fill-opacity:1"
       id="path5692_1_" />
  </g>
</svg>
