<?xml version="1.0" encoding="UTF-8" standalone="no"?>
<!-- Created with Inkscape (http://www.inkscape.org/) -->

<svg
   xmlns:dc="http://purl.org/dc/elements/1.1/"
   xmlns:cc="http://creativecommons.org/ns#"
   xmlns:rdf="http://www.w3.org/1999/02/22-rdf-syntax-ns#"
   xmlns:svg="http://www.w3.org/2000/svg"
   xmlns="http://www.w3.org/2000/svg"
   xmlns:xlink="http://www.w3.org/1999/xlink"
   xmlns:sodipodi="http://sodipodi.sourceforge.net/DTD/sodipodi-0.dtd"
   xmlns:inkscape="http://www.inkscape.org/namespaces/inkscape"
   width="128"
   height="128"
   id="svg7115"
   version="1.1"
   inkscape:version="0.47 r22583"
   sodipodi:docname="mounts_USB.svg">
  <defs
     id="defs7117">
    <inkscape:perspective
       sodipodi:type="inkscape:persp3d"
       inkscape:vp_x="0 : 526.18109 : 1"
       inkscape:vp_y="0 : 1000 : 0"
       inkscape:vp_z="744.09448 : 526.18109 : 1"
       inkscape:persp3d-origin="372.04724 : 350.78739 : 1"
       id="perspective7123" />
    <inkscape:perspective
       id="perspective7133"
       inkscape:persp3d-origin="0.5 : 0.33333333 : 1"
       inkscape:vp_z="1 : 0.5 : 1"
       inkscape:vp_y="0 : 1000 : 0"
       inkscape:vp_x="0 : 0.5 : 1"
       sodipodi:type="inkscape:persp3d" />
    <radialGradient
       r="57.578693"
       fy="-44.736084"
       fx="81.822357"
       cy="-44.736084"
       cx="81.822357"
       gradientUnits="userSpaceOnUse"
       id="radialGradient6556"
       xlink:href="#linearGradient4065-7"
       inkscape:collect="always" />
    <linearGradient
       id="linearGradient4065-7">
      <stop
         style="stop-color:#ffda75;stop-opacity:1;"
         offset="0"
         id="stop4067-3" />
      <stop
         style="stop-color:#ffb400;stop-opacity:1;"
         offset="1"
         id="stop4069-38" />
    </linearGradient>
    <linearGradient
       inkscape:collect="always"
       xlink:href="#linearGradient4065-7"
       id="linearGradient7676"
       x1="24.243664"
       y1="-44.736084"
       x2="139.40105"
       y2="-44.736084"
       gradientUnits="userSpaceOnUse" />
    <inkscape:perspective
       id="perspective2977"
       inkscape:persp3d-origin="0.5 : 0.33333333 : 1"
       inkscape:vp_z="1 : 0.5 : 1"
       inkscape:vp_y="0 : 1000 : 0"
       inkscape:vp_x="0 : 0.5 : 1"
       sodipodi:type="inkscape:persp3d" />
    <inkscape:perspective
       id="perspective2993"
       inkscape:persp3d-origin="0.5 : 0.33333333 : 1"
       inkscape:vp_z="1 : 0.5 : 1"
       inkscape:vp_y="0 : 1000 : 0"
       inkscape:vp_x="0 : 0.5 : 1"
       sodipodi:type="inkscape:persp3d" />
    <linearGradient
       y2="45.90625"
       x2="30.5"
       y1="2.1875"
       x1="30.625"
       gradientUnits="userSpaceOnUse"
       id="linearGradient2845"
       xlink:href="#linearGradient3293"
       inkscape:collect="always" />
    <linearGradient
       inkscape:collect="always"
       id="linearGradient3293">
      <stop
         style="stop-color:#4d4d4d;stop-opacity:1;"
         offset="0"
         id="stop3295" />
      <stop
         style="stop-color:#4d4d4d;stop-opacity:0;"
         offset="1"
         id="stop3297" />
    </linearGradient>
    <linearGradient
       y2="45.90625"
       x2="30.5"
       y1="2.1875"
       x1="30.625"
       gradientUnits="userSpaceOnUse"
       id="linearGradient3004"
       xlink:href="#linearGradient3293"
       inkscape:collect="always" />
  </defs>
  <sodipodi:namedview
     id="base"
     pagecolor="#ffffff"
     bordercolor="#666666"
     borderopacity="1.0"
     inkscape:pageopacity="0.0"
     inkscape:pageshadow="2"
     inkscape:zoom="2.8"
     inkscape:cx="35.748377"
     inkscape:cy="77.142857"
     inkscape:document-units="px"
     inkscape:current-layer="layer1"
     showgrid="false"
     inkscape:window-width="1680"
     inkscape:window-height="994"
     inkscape:window-x="-4"
     inkscape:window-y="-3"
     inkscape:window-maximized="1" />
  <metadata
     id="metadata7120">
    <rdf:RDF>
      <cc:Work
         rdf:about="">
        <dc:format>image/svg+xml</dc:format>
        <dc:type
           rdf:resource="http://purl.org/dc/dcmitype/StillImage" />
        <dc:title></dc:title>
      </cc:Work>
    </rdf:RDF>
  </metadata>
  <g
     inkscape:label="Layer 1"
     inkscape:groupmode="layer"
     id="layer1"
     transform="translate(0,-924.36218)">
    <path
       transform="matrix(1.0749636,0,0,1.0749636,-23.956056,1036.4518)"
       d="m 139.40105,-44.736084 c 0,31.799834 -25.77886,57.578693 -57.578693,57.578693 -31.799834,0 -57.578693,-25.778859 -57.578693,-57.578693 0,-31.799834 25.778859,-57.578696 57.578693,-57.578696 31.799833,0 57.578693,25.778862 57.578693,57.578696 z"
       sodipodi:ry="57.578693"
       sodipodi:rx="57.578693"
       sodipodi:cy="-44.736084"
       sodipodi:cx="81.822357"
       id="path3291"
       style="fill:url(#linearGradient7676);fill-opacity:1.0;stroke:none"
       sodipodi:type="arc" />
    <g
       transform="matrix(1.8100978,0,0,1.8100978,19.860215,944.60816)"
       style="display:inline"
       id="g2822">
      <path
         id="path3252"
         d="m 30.319166,2.1875 c -0.92495,0.089103 -1.655852,1.0061192 -1.655852,2.1289524 l 0,3.0455846 -12.832852,0 c -1.142613,0.045507 -2.069814,0.9758503 -2.069814,2.1289524 l 0,5.3815186 0,0.08871 0,1.892402 0,0.118275 0,1.862834 0,0.08871 0,0.946201 0,0.177413 0,0.413963 0,0.08871 0,23.448045 c -3e-6,1.153101 0.927204,2.111611 2.069814,2.158521 0.02916,0.0012 0.05927,0 0.08871,0 l 16.942912,0 c 0.02943,-10e-7 0.05954,0.0012 0.08871,0 1.14261,-0.04691 2.069818,-1.005419 2.069814,-2.158521 l 0,-23.448045 0,-0.08871 0,-0.413963 0,-0.177413 0,-0.946201 0,-0.08871 0,-1.862834 0,-0.118275 0,-1.892402 0,-0.08871 0,-5.3815186 c 0,-1.1531048 -0.927202,-2.083443 -2.069814,-2.1289524 l -0.08871,0 -0.4731,0 0,-3.0455846 c 0,-1.1228332 -0.760471,-2.0398496 -1.685421,-2.1289524 l -0.05914,0 -0.325257,0 z m -12.921558,9.462011 0.206981,0 7.717453,0 5.854619,0 0.206981,0 c 0.433708,-2e-6 0.798356,0.335079 0.798357,0.768788 l 0,2.454209 0,0.08871 0,1.892402 0,0.05914 0,0.05914 0,1.862834 0,0.08871 0,0.946201 0,0.177413 0,0.413963 0,0.08871 0,1.95154 c -3e-6,0.433709 -0.364649,0.798358 -0.798357,0.798357 l -0.206981,0 -5.854619,0 -7.717453,0 -0.206981,0 c -0.433709,0 -0.798354,-0.364647 -0.798357,-0.798357 l 0,-1.95154 0,-0.08871 0,-0.413963 0,-0.177413 0,-0.946201 0,-0.08871 0,-1.862834 0,-0.05914 0,-0.05914 0,-1.892402 0,-0.08871 0,-2.454209 c 0,-0.433712 0.364649,-0.768788 0.798357,-0.768788 z m -0.118275,14.636547 2.483777,0 0.05914,0 c 0.170991,0.01384 0.326645,0.09009 0.443532,0.206982 0.129322,0.129321 0.206981,0.310305 0.206981,0.502669 l 0,2.513346 c -1e-6,0.192363 -0.07766,0.373348 -0.206981,0.50267 -0.129321,0.129321 -0.310306,0.206981 -0.50267,0.206981 l -2.483777,0 c -0.192366,-2e-6 -0.34378,-0.07766 -0.473101,-0.206981 -0.121929,-0.129323 -0.206981,-0.310306 -0.206981,-0.50267 l 0,-2.513346 c 0,-0.192365 0.08505,-0.373347 0.206981,-0.502669 0.129322,-0.129323 0.280737,-0.206981 0.473101,-0.206982 z m 5.854619,0 2.483777,0 0.02957,0 c 0.181673,0.0074 0.349996,0.08388 0.473101,0.206982 0.129322,0.129321 0.206981,0.310305 0.206981,0.502669 l 0,2.513346 c 0,0.192363 -0.07766,0.373348 -0.206981,0.50267 -0.129322,0.129321 -0.310306,0.206981 -0.50267,0.206981 l -2.454208,0 c -0.01018,-1e-6 -0.01947,4.51e-4 -0.02957,0 -0.192367,-2e-6 -0.34378,-0.07766 -0.473101,-0.206981 -0.129322,-0.129323 -0.206981,-0.310306 -0.206981,-0.50267 l 0,-2.513346 c 0,-0.192365 0.07766,-0.373347 0.206981,-0.502669 0.06466,-0.06466 0.122418,-0.111371 0.206982,-0.147844 0.0075,-0.0035 0.02197,0.0033 0.02957,0 0.07706,-0.02951 0.150552,-0.05914 0.236551,-0.05914 z m 5.82505,0 2.542915,0 c 0.288546,-2e-6 0.549411,0.18984 0.650514,0.443532 0.0337,0.08456 0.02957,0.169937 0.02957,0.266119 l 0,2.513346 c 0,0.09618 0.0041,0.181556 -0.02957,0.266119 -0.101103,0.253691 -0.361968,0.443533 -0.650514,0.443532 l -2.483777,0 c -0.02037,-1e-6 -0.03914,0.0018 -0.05914,0 -0.07581,-1e-6 -0.139685,-0.03593 -0.206982,-0.05914 -0.08456,-0.03647 -0.171889,-0.08318 -0.23655,-0.147844 -0.129321,-0.129323 -0.20698,-0.310306 -0.206981,-0.50267 l 0,-2.513346 c 0,-0.192365 0.07766,-0.373347 0.206981,-0.502669 0.06466,-0.06466 0.151987,-0.111371 0.23655,-0.147844 0.0673,-0.02321 0.131168,-0.05914 0.206982,-0.05914 z m -11.679669,6.593839 2.483777,0 0.05914,0 c 0.170991,0.01262 0.326645,0.09678 0.443532,0.206981 0.129322,0.12193 0.206981,0.280737 0.206981,0.473101 l 0,2.513346 c -1e-6,0.192362 -0.07766,0.351171 -0.206981,0.473101 -0.129321,0.121928 -0.310306,0.206981 -0.50267,0.206981 l -2.483777,0 c -0.192366,-1e-6 -0.34378,-0.08505 -0.473101,-0.206981 -0.121929,-0.121931 -0.206981,-0.280738 -0.206981,-0.473101 l 0,-2.513346 c 0,-0.192365 0.08505,-0.351171 0.206981,-0.473101 0.129322,-0.12193 0.280737,-0.20698 0.473101,-0.206981 z m 5.854619,0 2.483777,0 0.02957,0 c 0.181673,0.0067 0.349996,0.09091 0.473101,0.206981 0.129322,0.12193 0.206981,0.280737 0.206981,0.473101 l 0,2.513346 c 0,0.192362 -0.07766,0.351171 -0.206981,0.473101 -0.129322,0.121928 -0.310306,0.206981 -0.50267,0.206981 l -2.454208,0 c -0.01018,-1e-6 -0.01947,4.1e-4 -0.02957,0 -0.192367,-1e-6 -0.34378,-0.08505 -0.473101,-0.206981 -0.129322,-0.121931 -0.206981,-0.280738 -0.206981,-0.473101 l 0,-2.513346 c 0,-0.192365 0.07766,-0.351171 0.206981,-0.473101 0.06466,-0.06096 0.122418,-0.114143 0.206982,-0.147844 0.0075,-0.0033 0.02197,0.003 0.02957,0 0.07706,-0.02721 0.150552,-0.05914 0.236551,-0.05914 z m 5.82505,0 2.542915,0 c 0.288546,-3e-6 0.549411,0.168587 0.650514,0.413963 0.0337,0.08179 0.02957,0.169937 0.02957,0.266119 l 0,2.513346 c 0,0.09618 0.0041,0.184328 -0.02957,0.266119 -0.101103,0.245375 -0.361968,0.413963 -0.650514,0.413963 l -2.483777,0 c -0.02037,-1e-6 -0.03914,0.0016 -0.05914,0 -0.07581,-1e-6 -0.139685,-0.03778 -0.206982,-0.05914 -0.08456,-0.0337 -0.171889,-0.08688 -0.23655,-0.147844 -0.129321,-0.121931 -0.20698,-0.280738 -0.206981,-0.473101 l 0,-2.513346 c 0,-0.192365 0.07766,-0.351171 0.206981,-0.473101 0.06466,-0.06096 0.151987,-0.114143 0.23655,-0.147844 0.0673,-0.02136 0.131168,-0.05914 0.206982,-0.05914 z m -11.679669,6.475563 2.483777,0 0.05914,0 c 0.170991,0.01384 0.326645,0.09009 0.443532,0.206982 0.129322,0.129321 0.206981,0.310305 0.206981,0.502669 l 0,2.513346 c -1e-6,0.192361 -0.07766,0.373348 -0.206981,0.50267 -0.129321,0.129321 -0.310306,0.206981 -0.50267,0.206981 l -2.483777,0 c -0.192366,-3e-6 -0.34378,-0.07766 -0.473101,-0.206981 -0.121929,-0.129323 -0.206981,-0.310308 -0.206981,-0.50267 l 0,-2.513346 c 0,-0.192365 0.08505,-0.373347 0.206981,-0.502669 0.129322,-0.129322 0.280737,-0.206982 0.473101,-0.206982 z m 5.854619,0 2.483777,0 0.02957,0 c 0.181673,0.0074 0.349996,0.08388 0.473101,0.206982 0.129322,0.129321 0.206981,0.310305 0.206981,0.502669 l 0,2.513346 c 0,0.192361 -0.07766,0.373348 -0.206981,0.50267 -0.129322,0.129321 -0.310306,0.206981 -0.50267,0.206981 l -2.454208,0 c -0.01018,-1e-6 -0.01947,4.51e-4 -0.02957,0 -0.192367,-3e-6 -0.34378,-0.07766 -0.473101,-0.206981 -0.129322,-0.129323 -0.206981,-0.310308 -0.206981,-0.50267 l 0,-2.513346 c 0,-0.192365 0.07766,-0.373347 0.206981,-0.502669 0.06466,-0.06466 0.122418,-0.111371 0.206982,-0.147844 0.0075,-0.0035 0.02197,0.0033 0.02957,0 0.07706,-0.02951 0.150552,-0.05914 0.236551,-0.05914 z m 5.82505,0 2.542915,0 c 0.288546,-4e-6 0.549411,0.189839 0.650514,0.443532 0.0337,0.08456 0.02957,0.169938 0.02957,0.266119 l 0,2.513346 c 0,0.09618 0.0041,0.181556 -0.02957,0.26612 -0.101103,0.25369 -0.361968,0.443532 -0.650514,0.443531 l -2.483777,0 c -0.02037,-1e-6 -0.03914,0.0018 -0.05914,0 -0.07581,-2e-6 -0.139685,-0.03593 -0.206982,-0.05914 -0.08456,-0.03647 -0.171889,-0.08318 -0.23655,-0.147844 -0.129321,-0.129323 -0.20698,-0.310308 -0.206981,-0.50267 l 0,-2.513346 c 0,-0.192365 0.07766,-0.373347 0.206981,-0.502669 0.06466,-0.06466 0.151987,-0.111371 0.23655,-0.147844 0.0673,-0.02321 0.131168,-0.05914 0.206982,-0.05914 z"
         style="fill:#000000;fill-opacity:1;fill-rule:evenodd;stroke:none" />
      <path
         id="path2517"
         d="m 30.3125,2.1875 c -0.924951,0.089103 -1.65625,1.0021668 -1.65625,2.125 l 0,3.0625 -12.8125,0 C 14.70114,7.4205066 13.75,8.3468979 13.75,9.5 l 0,5.375 0,0.09375 0,1.875 0,0.125 0,1.875 0,0.09375 0,0.9375 0,0.1875 0,0.40625 0,0.09375 0,18.8125 c 0.827477,-3.917032 1.739653,-7.589649 2.84375,-10.9375 l 0,-1.4375 c 1e-6,-0.192364 0.09682,-0.370678 0.21875,-0.5 0.129319,-0.129323 0.276386,-0.218749 0.46875,-0.21875 l 0.0625,0 c 0.374285,-1.019332 0.773512,-2.00752 1.1875,-2.96875 l -0.9375,0 -0.1875,0 c -0.433706,1e-6 -0.812497,-0.37879 -0.8125,-0.8125 l 0,-1.9375 0,-0.09375 0,-0.40625 0,-0.1875 0,-0.9375 0,-0.09375 0,-1.875 0,-0.0625 0,-0.0625 0,-1.875 0,-0.09375 0,-2.46875 c 1e-6,-0.433712 0.378792,-0.75 0.8125,-0.75 l 0.1875,0 7.71875,0 0.71875,0 C 27.885981,9.7432181 29.980398,8.0585787 32.375,6.625 l 0,-2.3125 c -3e-6,-1.1228333 -0.7313,-2.0358972 -1.65625,-2.125 l -0.0625,0 -0.34375,0 z"
         style="fill:url(#linearGradient3004);fill-opacity:1;fill-rule:evenodd;stroke:none" />
    </g>
  </g>
</svg>
