<?xml version="1.0" encoding="UTF-8" standalone="no"?>
<!-- Created with Inkscape (http://www.inkscape.org/) -->

<svg
   xmlns:dc="http://purl.org/dc/elements/1.1/"
   xmlns:cc="http://creativecommons.org/ns#"
   xmlns:rdf="http://www.w3.org/1999/02/22-rdf-syntax-ns#"
   xmlns:svg="http://www.w3.org/2000/svg"
   xmlns="http://www.w3.org/2000/svg"
   xmlns:xlink="http://www.w3.org/1999/xlink"
   xmlns:sodipodi="http://sodipodi.sourceforge.net/DTD/sodipodi-0.dtd"
   xmlns:inkscape="http://www.inkscape.org/namespaces/inkscape"
   width="128"
   height="128"
   id="svg7115"
   version="1.1"
   inkscape:version="0.47 r22583"
   sodipodi:docname="$Template_Root.svg">
  <defs
     id="defs7117">
    <inkscape:perspective
       sodipodi:type="inkscape:persp3d"
       inkscape:vp_x="0 : 526.18109 : 1"
       inkscape:vp_y="0 : 1000 : 0"
       inkscape:vp_z="744.09448 : 526.18109 : 1"
       inkscape:persp3d-origin="372.04724 : 350.78739 : 1"
       id="perspective7123" />
    <inkscape:perspective
       id="perspective7133"
       inkscape:persp3d-origin="0.5 : 0.33333333 : 1"
       inkscape:vp_z="1 : 0.5 : 1"
       inkscape:vp_y="0 : 1000 : 0"
       inkscape:vp_x="0 : 0.5 : 1"
       sodipodi:type="inkscape:persp3d" />
    <radialGradient
       r="57.578693"
       fy="-44.736084"
       fx="81.822357"
       cy="-44.736084"
       cx="81.822357"
       gradientUnits="userSpaceOnUse"
       id="radialGradient6556"
       xlink:href="#linearGradient4065-7"
       inkscape:collect="always" />
    <linearGradient
       id="linearGradient4065-7">
      <stop
         style="stop-color:#fe9081;stop-opacity:1;"
         offset="0"
         id="stop4067-3" />
      <stop
         style="stop-color:#dd2026;stop-opacity:1;"
         offset="1"
         id="stop4069-38" />
    </linearGradient>
    <linearGradient
       inkscape:collect="always"
       xlink:href="#linearGradient4065-7"
       id="linearGradient7676"
       x1="24.243664"
       y1="-44.736084"
       x2="139.40105"
       y2="-44.736084"
       gradientUnits="userSpaceOnUse" />
    <inkscape:perspective
       id="perspective4556"
       inkscape:persp3d-origin="0.5 : 0.33333333 : 1"
       inkscape:vp_z="1 : 0.5 : 1"
       inkscape:vp_y="0 : 1000 : 0"
       inkscape:vp_x="0 : 0.5 : 1"
       sodipodi:type="inkscape:persp3d" />
  </defs>
  <sodipodi:namedview
     id="base"
     pagecolor="#ffffff"
     bordercolor="#666666"
     borderopacity="1.0"
     inkscape:pageopacity="0.0"
     inkscape:pageshadow="2"
     inkscape:zoom="2.8"
     inkscape:cx="35.748377"
     inkscape:cy="77.142857"
     inkscape:document-units="px"
     inkscape:current-layer="layer1"
     showgrid="false"
     inkscape:window-width="1680"
     inkscape:window-height="994"
     inkscape:window-x="-4"
     inkscape:window-y="-3"
     inkscape:window-maximized="1" />
  <metadata
     id="metadata7120">
    <rdf:RDF>
      <cc:Work
         rdf:about="">
        <dc:format>image/svg+xml</dc:format>
        <dc:type
           rdf:resource="http://purl.org/dc/dcmitype/StillImage" />
        <dc:title></dc:title>
      </cc:Work>
    </rdf:RDF>
  </metadata>
  <g
     inkscape:label="Layer 1"
     inkscape:groupmode="layer"
     id="layer1"
     transform="translate(0,-924.36218)">
    <path
       transform="matrix(1.0749636,0,0,1.0749636,-23.956056,1036.4518)"
       d="m 139.40105,-44.736084 c 0,31.799834 -25.77886,57.578693 -57.578693,57.578693 -31.799834,0 -57.578693,-25.778859 -57.578693,-57.578693 0,-31.799834 25.778859,-57.578696 57.578693,-57.578696 31.799833,0 57.578693,25.778862 57.578693,57.578696 z"
       sodipodi:ry="57.578693"
       sodipodi:rx="57.578693"
       sodipodi:cy="-44.736084"
       sodipodi:cx="81.822357"
       id="path3291"
       style="fill:url(#linearGradient7676);fill-opacity:1;stroke:none"
       sodipodi:type="arc" />
    <g
       transform="matrix(3.2838559,0,0,3.2838559,-169.63469,661.79018)"
       id="g694"
       style="fill:#000000">
      <path
         style="fill:#000000"
         d="m 66.832,98.629 c 0,-1.531 0.814,-2.873 2.035,-3.616 L 63.86,85.796 c -4.483,2.521 -7.511,7.324 -7.511,12.833 h 10.483 z"
         id="path696" />
      <path
         style="fill:#000000"
         d="m 73.387,102.41 c -1.327,0.768 -2.896,0.732 -4.149,0.047 l -5.479,8.945 c 4.426,2.622 10.099,2.844 14.871,0.088 l -5.243,-9.08 z"
         id="path698" />
      <path
         style="fill:#000000"
         d="m 73.34,94.513 c 1.327,0.766 2.083,2.143 2.115,3.57 l 10.488,0.271 C 86,93.21 83.355,88.186 78.582,85.431 l -5.242,9.082 z"
         id="path700" />
      <circle
         d="m 74.134002,98.628998 c 0,1.625372 -1.317626,2.943002 -2.943,2.943002 -1.625374,0 -2.943,-1.31763 -2.943,-2.943002 0,-1.625374 1.317626,-2.943 2.943,-2.943 1.625374,0 2.943,1.317626 2.943,2.943 z"
         sodipodi:ry="2.9430001"
         sodipodi:rx="2.9430001"
         sodipodi:cy="98.628998"
         sodipodi:cx="71.191002"
         style="fill:#000000"
         cx="71.191002"
         cy="98.628998"
         r="2.9430001"
         id="circle702" />
    </g>
  </g>
</svg>
