#define ssh_width 9
#define ssh_height 9
static unsigned char ssh_bits[] = {
   0x0f, 0x00, 0xff, 0x00, 0x8f, 0x00, 0x8f, 0x00, 0x80, 0x00, 0xe0, 0x01,
   0xe0, 0x01, 0xe0, 0x01, 0xe0, 0x01 };
