<?xml version="1.0" encoding="UTF-8" standalone="no"?>
<svg
   xmlns:dc="http://purl.org/dc/elements/1.1/"
   xmlns:cc="http://creativecommons.org/ns#"
   xmlns:rdf="http://www.w3.org/1999/02/22-rdf-syntax-ns#"
   xmlns:svg="http://www.w3.org/2000/svg"
   xmlns="http://www.w3.org/2000/svg"
   xmlns:xlink="http://www.w3.org/1999/xlink"
   xmlns:sodipodi="http://sodipodi.sourceforge.net/DTD/sodipodi-0.dtd"
   xmlns:inkscape="http://www.inkscape.org/namespaces/inkscape"
   version="1.1"
   id="Layer_1"
   x="0px"
   y="0px"
   width="256"
   height="256"
   viewBox="0 0 256 256"
   enable-background="new 0 0 71 100"
   xml:space="preserve"
   inkscape:version="0.48.3.1 r9886"
   sodipodi:docname="gmb-mlib.svg"><metadata
   id="metadata21"><rdf:RDF><cc:Work
       rdf:about=""><dc:format>image/svg+xml</dc:format><dc:type
         rdf:resource="http://purl.org/dc/dcmitype/StillImage" /><dc:title /></cc:Work></rdf:RDF></metadata><defs
   id="defs19"><linearGradient
     gradientTransform="matrix(6.2473217,0,0,6.2402387,-58.606001,-28.613181)"
     y2="27.956825"
     x2="29.999992"
     y1="3.0410755"
     x1="29.999992"
     gradientUnits="userSpaceOnUse"
     id="linearGradient2896"
     xlink:href="#linearGradient3341"
     inkscape:collect="always" /><linearGradient
     id="linearGradient3341"><stop
       id="stop3343"
       style="stop-color:white;stop-opacity:1"
       offset="0" /><stop
       id="stop3345"
       style="stop-color:white;stop-opacity:0"
       offset="1" /></linearGradient><linearGradient
     gradientTransform="matrix(6.2192089,0,0,6.2192089,-57.762695,-28.293817)"
     x1="30"
     y1="5"
     x2="30"
     y2="44.678879"
     id="linearGradient2887"
     xlink:href="#linearGradient3785"
     gradientUnits="userSpaceOnUse" /><linearGradient
     id="linearGradient3785"><stop
       id="stop3787"
       style="stop-color:#bdbdbd;stop-opacity:1"
       offset="0" /><stop
       id="stop3789"
       style="stop-color:#8c8c8c;stop-opacity:1"
       offset="1" /></linearGradient><linearGradient
     gradientTransform="matrix(6.2192089,0,0,6.2192089,-32.108116,-273.95255)"
     x1="24.786562"
     y1="53.869164"
     x2="24.87495"
     y2="83.5"
     id="linearGradient2882"
     xlink:href="#linearGradient3341"
     gradientUnits="userSpaceOnUse" /><linearGradient
     id="linearGradient3043"><stop
       id="stop3045"
       style="stop-color:white;stop-opacity:1"
       offset="0" /><stop
       id="stop3047"
       style="stop-color:white;stop-opacity:0"
       offset="1" /></linearGradient><linearGradient
     x1="30"
     y1="25.084745"
     x2="30"
     y2="45"
     id="linearGradient2880"
     xlink:href="#linearGradient3785"
     gradientUnits="userSpaceOnUse" /><linearGradient
     id="linearGradient3050"><stop
       id="stop3052"
       style="stop-color:#bdbdbd;stop-opacity:1"
       offset="0" /><stop
       id="stop3054"
       style="stop-color:#8c8c8c;stop-opacity:1"
       offset="1" /></linearGradient><linearGradient
     gradientTransform="matrix(6.2192089,0,0,6.2192089,-57.762695,-28.293817)"
     y2="45"
     x2="30"
     y1="25.084745"
     x1="30"
     gradientUnits="userSpaceOnUse"
     id="linearGradient3063"
     xlink:href="#linearGradient3785"
     inkscape:collect="always" /><linearGradient
     inkscape:collect="always"
     xlink:href="#linearGradient3785"
     id="linearGradient3076"
     gradientUnits="userSpaceOnUse"
     gradientTransform="matrix(6.2192089,0,0,6.2192089,-57.762695,-28.293817)"
     x1="30"
     y1="25.084745"
     x2="30"
     y2="45" /><linearGradient
     inkscape:collect="always"
     xlink:href="#linearGradient3341"
     id="linearGradient3078"
     gradientUnits="userSpaceOnUse"
     gradientTransform="matrix(6.2192089,0,0,6.2192089,-32.108116,-273.95255)"
     x1="24.786562"
     y1="53.869164"
     x2="24.87495"
     y2="83.5" /><linearGradient
     inkscape:collect="always"
     xlink:href="#linearGradient3785"
     id="linearGradient3080"
     gradientUnits="userSpaceOnUse"
     gradientTransform="matrix(6.2192089,0,0,6.2192089,-57.762695,-28.293817)"
     x1="30"
     y1="5"
     x2="30"
     y2="44.678879" /><linearGradient
     inkscape:collect="always"
     xlink:href="#linearGradient3341"
     id="linearGradient3082"
     gradientUnits="userSpaceOnUse"
     gradientTransform="matrix(6.2473217,0,0,6.2402387,-58.606001,-28.613181)"
     x1="29.999992"
     y1="3.0410755"
     x2="29.999992"
     y2="27.956825" /></defs><sodipodi:namedview
   pagecolor="#ffffff"
   bordercolor="#666666"
   borderopacity="1"
   objecttolerance="10"
   gridtolerance="10"
   guidetolerance="10"
   inkscape:pageopacity="0"
   inkscape:pageshadow="2"
   inkscape:window-width="1280"
   inkscape:window-height="754"
   id="namedview17"
   showgrid="false"
   inkscape:zoom="1.18"
   inkscape:cx="48.596312"
   inkscape:cy="147.75324"
   inkscape:window-x="0"
   inkscape:window-y="25"
   inkscape:window-maximized="1"
   inkscape:current-layer="g3067" />







<g
   id="g3067"
   transform="translate(-0.81355,0.81355845)"><path
     inkscape:connector-curvature="0"
     style="fill:#1a1a1a;fill-opacity:1;fill-rule:nonzero;stroke:url(#linearGradient3076);stroke-width:6.21920872;stroke-miterlimit:4;stroke-opacity:1;stroke-dasharray:none"
     id="path3766"
     d="m 100.82714,99.199992 c 2.86217,13.537538 4.45972,23.777688 2.13781,37.315228 -18.102198,15.01862 -64.39931,21.76726 -64.329897,37.31528 l -6.219243,46.64407 c 0,15.45647 43.158753,27.98644 96.39777,27.98644 53.23896,0 96.39771,-12.52997 96.39771,-27.98644 l -6.21918,-46.64407 c -0.0737,-13.30701 -46.64411,-21.76727 -64.52429,-37.31528 -1.5273,-12.56487 -0.31131,-24.75036 2.33215,-37.315228 l -55.97283,0 z" /><path
     inkscape:connector-curvature="0"
     style="fill:#000000;fill-opacity:1;fill-rule:nonzero;stroke:url(#linearGradient3078);stroke-width:6.21920872000000013;stroke-miterlimit:4;stroke-opacity:1;stroke-dasharray:none"
     id="path3894"
     d="m 108.01837,105.41918 c 1.89463,10.51261 3.17653,20.34625 1.16611,32.06782 a 6.2362252,6.2362252 0 0 1 -2.33221,3.88696 c -10.7083,8.88428 -27.024866,14.02028 -40.619208,19.43506 -6.797172,2.70736 -12.847922,5.40921 -16.714125,7.96835 -3.866148,2.55912 -4.667908,4.26263 -4.664418,5.05313 a 6.2362252,6.2362252 0 0 1 0,0.77738 l -6.219185,45.86669 c 0,0.0168 -6.76e-4,0.17451 0,0.19422 0.03378,0.98477 0.933379,2.94177 4.858749,5.63613 4.004128,2.74845 10.537499,5.5545 18.852002,7.96839 16.628949,4.82774 40.337445,7.96834 66.467785,7.96834 26.13032,0 49.83882,-3.1406 66.46777,-7.96834 8.31451,-2.41389 14.84788,-5.21994 18.85201,-7.96839 3.92537,-2.69436 4.82451,-4.65136 4.85875,-5.63613 l 0,-0.19422 -6.21919,-45.86669 a 6.2362252,6.2362252 0 0 1 0,-0.77738 c 8.5e-4,0.15312 0.0979,0.0168 -0.58305,-0.77744 -0.6809,-0.79461 -2.07978,-1.85961 -4.08137,-3.1096 -4.00323,-2.49991 -10.23479,-5.3328 -17.10284,-8.16272 -13.73609,-5.65983 -30.07889,-11.43558 -40.61921,-20.6011 a 6.2362252,6.2362252 0 0 1 -2.13788,-3.88698 c -1.31777,-10.84133 -0.35747,-21.39853 1.36049,-31.87348 l -41.59098,0 z" /><path
     inkscape:connector-curvature="0"
     style="fill:#1a1a1a;fill-opacity:1;fill-rule:nonzero;stroke:url(#linearGradient3080);stroke-width:6.21920872;stroke-miterlimit:4;stroke-opacity:1;stroke-dasharray:none"
     id="path3764"
     d="m 128.81358,5.9118731 c -25.76081,0 -46.64406,19.4910109 -46.64406,43.5344689 0.202102,8.897949 0.961302,19.468437 6.219187,43.534412 3.109592,9.328826 30.845813,34.205686 31.096043,37.315286 6.03059,3.10958 15.54801,3.10958 21.76721,0 0,-3.1096 24.87685,-27.98646 27.98644,-37.315286 5.91682,-25.011739 5.90185,-34.205633 6.21924,-43.534412 0,-24.043458 -20.88325,-43.5344689 -46.64406,-43.5344689 z" /><path
     inkscape:connector-curvature="0"
     style="opacity:0.3;fill:#1a1a1a;fill-opacity:1;fill-rule:nonzero;stroke:none"
     id="path3848"
     d="m 72.840686,240.37602 c -14.691936,-12.32769 -7.686133,-39.69635 -6.219242,-57.21674 -6.219186,12.43843 -6.219186,49.75371 -18.657614,49.75371 8.474383,2.85181 17.100087,6.00644 24.876856,7.46303 z" /><path
     inkscape:connector-curvature="0"
     style="opacity:0.3;fill:#1a1a1a;fill-opacity:1;fill-rule:nonzero;stroke:none"
     id="path3850"
     d="m 184.78642,240.37602 c 14.61544,-10.84469 7.19394,-40.33728 6.21925,-57.21674 6.21918,12.43843 6.21918,49.75371 18.65761,49.75371 -8.47439,2.85181 -17.10009,6.00644 -24.87686,7.46303 z" /><path
     inkscape:connector-curvature="0"
     style="opacity:0.2;fill:#1a1a1a;fill-opacity:1;fill-rule:nonzero;stroke:none"
     id="path3833"
     d="m 99.661031,139.62481 c 4.268259,10.85101 15.665619,18.65767 29.152549,18.65767 13.48688,0 24.88423,-7.80666 29.1525,-18.65767 l -58.305049,0 z" /><path
     inkscape:connector-curvature="0"
     style="opacity:0.69999999999999996;fill:#000000;fill-opacity:1;fill-rule:nonzero;stroke:url(#linearGradient3082);stroke-width:6.24377870999999995;stroke-miterlimit:4;stroke-opacity:1;stroke-dasharray:none"
     id="path3906"
     d="m 128.81364,12.143331 c -22.57561,0 -40.297931,16.717671 -40.41238,37.051426 9.01e-4,0.03941 -9e-4,0.155938 0,0.194782 0.198723,8.573294 0.977233,18.604865 6.052101,41.926615 0.25333,0.603036 2.091321,3.63753 4.880705,7.020267 2.878054,3.490259 6.495874,7.450029 10.151874,11.310429 3.65605,3.86041 7.35495,7.69092 10.15194,10.72542 1.39848,1.51722 2.53222,2.85615 3.51412,4.09516 0.0889,0.11202 0.10921,0.27922 0.19535,0.39012 3.62283,1.42237 9.93266,1.43795 13.86124,0 0.8764,-1.27053 1.8748,-2.7627 3.12366,-4.29016 2.49767,-3.05493 5.68967,-6.66324 8.98048,-10.53041 3.29087,-3.86716 6.73993,-8.00127 9.371,-11.505436 2.50087,-3.330667 4.10828,-6.094605 4.4903,-7.02027 0.0225,-0.08669 -0.0225,-0.108651 0,-0.194783 5.7633,-24.395022 5.73651,-32.526059 6.05205,-41.926614 0,-0.06587 3.9e-4,-0.12948 0,-0.194782 C 169.11179,28.86134 151.38936,12.143669 128.81376,12.143669 z" /></g></svg>