<?xml version="1.0" encoding="UTF-8" standalone="no"?>
<!-- Generator: Adobe Illustrator 9.0, SVG Export Plug-In  -->

<svg
   xmlns:dc="http://purl.org/dc/elements/1.1/"
   xmlns:cc="http://creativecommons.org/ns#"
   xmlns:rdf="http://www.w3.org/1999/02/22-rdf-syntax-ns#"
   xmlns:svg="http://www.w3.org/2000/svg"
   xmlns="http://www.w3.org/2000/svg"
   xmlns:sodipodi="http://sodipodi.sourceforge.net/DTD/sodipodi-0.dtd"
   xmlns:inkscape="http://www.inkscape.org/namespaces/inkscape"
   height="48"
   id="svg3467"
   inkscape:version="0.47 r22583"
   sodipodi:docname="Preview.svg"
   sodipodi:version="0.32"
   space="preserve"
   viewBox="0 0 38.4 38.4"
   width="48"
   version="1.1">
  <metadata
     id="metadata3">
    <rdf:RDF>
      <cc:Work
         rdf:about="">
        <dc:title></dc:title>
        <dc:description>Stylized hand-glass originally intended as searching icon.</dc:description>
        <dc:subject>
          <rdf:Bag>
            <rdf:li>icon</rdf:li>
            <rdf:li>magnifier</rdf:li>
            <rdf:li>stylized</rdf:li>
            <rdf:li>tool</rdf:li>
            <rdf:li>hand-glass</rdf:li>
            <rdf:li>searching</rdf:li>
          </rdf:Bag>
        </dc:subject>
        <dc:publisher>
          <cc:Agent
             rdf:about="http://www.openclipart.org/">
            <dc:title>Martin Koz  k &lt;martin.kozak@openoffice.cz&gt;</dc:title>
          </cc:Agent>
        </dc:publisher>
        <dc:creator>
          <cc:Agent>
            <dc:title>Martin Koz  k &lt;martin.kozak *at* openoffice -dot- cz&gt;</dc:title>
          </cc:Agent>
        </dc:creator>
        <dc:rights>
          <cc:Agent>
            <dc:title>Martin Koz  k &lt;martin.kozak@openoffice.cz&gt;</dc:title>
          </cc:Agent>
        </dc:rights>
        <dc:date>2005-08-10</dc:date>
        <dc:format>image/svg+xml</dc:format>
        <dc:type
           rdf:resource="http://purl.org/dc/dcmitype/StillImage" />
        <cc:license
           rdf:resource="http://web.resource.org/cc/PublicDomain" />
        <dc:language>en</dc:language>
      </cc:Work>
      <cc:License
         rdf:about="http://web.resource.org/cc/PublicDomain">
        <cc:permits
           rdf:resource="http://web.resource.org/cc/Reproduction" />
        <cc:permits
           rdf:resource="http://web.resource.org/cc/Distribution" />
        <cc:permits
           rdf:resource="http://web.resource.org/cc/DerivativeWorks" />
      </cc:License>
    </rdf:RDF>
  </metadata>
  <defs
     id="defs3477">
    <inkscape:perspective
       sodipodi:type="inkscape:persp3d"
       inkscape:vp_x="0 : 283.11768 : 1"
       inkscape:vp_y="0 : 1000 : 0"
       inkscape:vp_z="614.04724 : 283.11768 : 1"
       inkscape:persp3d-origin="307.02362 : 188.74512 : 1"
       id="perspective11" />
    <inkscape:perspective
       id="perspective2832"
       inkscape:persp3d-origin="0.5 : 0.33333333 : 1"
       inkscape:vp_z="1 : 0.5 : 1"
       inkscape:vp_y="0 : 1000 : 0"
       inkscape:vp_x="0 : 0.5 : 1"
       sodipodi:type="inkscape:persp3d" />
    <filter
       inkscape:collect="always"
       id="filter3671">
      <feGaussianBlur
         inkscape:collect="always"
         stdDeviation="38.86125"
         id="feGaussianBlur3673" />
    </filter>
  </defs>
  <sodipodi:namedview
     bordercolor="#666666"
     borderopacity="1.0"
     id="base"
     inkscape:current-layer="Vrstva_x0020_1"
     inkscape:cx="43.324935"
     inkscape:cy="25.186254"
     inkscape:pageopacity="0.0"
     inkscape:pageshadow="2"
     inkscape:window-height="739"
     inkscape:window-width="1280"
     inkscape:window-x="-5"
     inkscape:window-y="0"
     inkscape:zoom="6.8533375"
     pagecolor="#ffffff"
     showgrid="false"
     inkscape:window-maximized="1" />
  <g
     id="Vrstva_x0020_1"
     style="fill:#000000;fill-opacity:1;fill-rule:nonzero;stroke:#000000;stroke-miterlimit:4"
     transform="translate(0,-414.58828)">
    <g
       style="fill:#660080;stroke-width:4.12424135000000014;stroke-miterlimit:4;stroke-dasharray:none;filter:url(#filter3671)"
       transform="matrix(0.02817941,0,0,-0.02817941,-67.169884,568.20786)"
       id="g3600">
      <path
         id="path3602"
         style="fill:#660080;fill-opacity:1;fill-rule:nonzero;stroke:none"
         d="m 3065,5417.82 c -357.14,0 -647.69,-290.55 -647.69,-647.69 0,-357.13 290.55,-647.68 647.69,-647.68 357.14,0 647.69,290.55 647.69,647.68 0,357.14 -290.55,647.69 -647.69,647.69 z m 0,-927.61 c -154.35,0 -279.93,125.58 -279.93,279.92 0,154.36 125.58,279.93 279.93,279.93 154.35,0 279.93,-125.57 279.93,-279.93 0,-154.34 -125.58,-279.92 -279.93,-279.92 z m 459.14,-25.53 -92.84,390.07 -0.1,-0.03 c -9.27,40.16 -24.93,77.89 -45.95,112.01 l 215.29,-64.23 c 10.49,-42.43 16.16,-86.74 16.16,-132.37 0,-112.89 -34.15,-217.93 -92.56,-305.45 z m 34.92,550.3 -384.22,114.64 -0.04,-0.1 c -39.41,12.05 -79.91,17.36 -119.97,16.21 l 163.27,154.32 c 41.99,-12.12 83.2,-29.37 122.7,-52.18 97.78,-56.45 171.67,-138.54 218.26,-232.89 z m -458.97,305.62 -291.39,-275.43 0.07,-0.08 c -30.14,-28.11 -54.99,-60.53 -74.03,-95.8 l -52.01,218.56 c 31.5,30.3 67.03,57.37 106.54,80.18 97.77,56.45 205.82,79.4 310.82,72.57 z m -494.23,-245.01 92.84,-390.07 0.1,0.03 c 9.27,-40.16 24.93,-77.89 45.95,-112.01 l -215.29,64.23 c -10.48,42.43 -16.16,86.74 -16.16,132.37 0,112.89 34.15,217.93 92.56,305.45 z m -35.05,-550.32 384.23,-114.65 0.03,0.11 c 39.41,-12.05 79.92,-17.36 119.98,-16.21 l -163.27,-154.33 c -41.99,12.13 -83.2,29.37 -122.71,52.19 -97.77,56.44 -171.67,138.53 -218.26,232.89 z m 459.25,-305.61 291.4,275.44 -0.08,0.07 c 30.14,28.12 54.99,60.54 74.03,95.8 l 52.02,-218.56 c -31.5,-30.3 -67.04,-57.36 -106.55,-80.18 -97.77,-56.44 -205.81,-79.4 -310.82,-72.57" />
      <path
         id="path3604"
         style="fill:#660080;fill-opacity:1;fill-rule:nonzero;stroke:none"
         d="m 2734.75,4949.29 0,0 c 0,0 0,0 0,0.01 0,0 0,0 -0.01,0 0,0 -0.01,0 -0.01,0 0,0 0,0 0,0 -0.01,0 -0.01,0 -0.01,0 l 0,0 -0.01,0 c 0,0 0,0 0,0 l 0,-0.01 c 0,0 0,0.01 0,0.01 l 0,-0.02 0.01,0 0,0 c 0,0 0,0 0.01,0 0,0 0,0 0,0 0,0 0.01,0 0.01,0 0.01,0 0.01,0 0.01,0.01 0,0 0,0 0,0 z m -0.02,-0.01 c 0,0 -0.01,0 -0.01,0.01 l 0,0 0,0.01 0,0 0.01,0 c 0,0 0,0 0,0 0,-0.01 0,-0.01 -0.01,-0.01 l 0,0 c 0.01,0 0.01,0 0.01,0 0,-0.01 0,-0.01 0,-0.01 z m 0.01,0.01 c -0.01,0 -0.01,0 -0.01,0 l 0,0 0,0 c 0,0 0,0 0,0 0,0 0,0 0.01,0 l 0,0 z m 0,-0.01 c 0,0 0,0 0,0.01 0,0 0,0 0,0 l 0.01,0 c 0,-0.01 -0.01,-0.01 -0.01,-0.01 z m 0,0.01 c 0,0 0,0 0,0.01 0,0 0,0 0,0 l 0.01,0 c 0,-0.01 -0.01,-0.01 -0.01,-0.01" />
    </g>
    <g
       id="g14"
       transform="matrix(0.02560471,0,0,-0.02560471,-59.278436,555.9262)"
       style="stroke-width:4.12424135;stroke-miterlimit:4;stroke-dasharray:none">
      <path
         d="m 3065,5417.82 c -357.14,0 -647.69,-290.55 -647.69,-647.69 0,-357.13 290.55,-647.68 647.69,-647.68 357.14,0 647.69,290.55 647.69,647.68 0,357.14 -290.55,647.69 -647.69,647.69 z m 0,-927.61 c -154.35,0 -279.93,125.58 -279.93,279.92 0,154.36 125.58,279.93 279.93,279.93 154.35,0 279.93,-125.57 279.93,-279.93 0,-154.34 -125.58,-279.92 -279.93,-279.92 z m 459.14,-25.53 -92.84,390.07 -0.1,-0.03 c -9.27,40.16 -24.93,77.89 -45.95,112.01 l 215.29,-64.23 c 10.49,-42.43 16.16,-86.74 16.16,-132.37 0,-112.89 -34.15,-217.93 -92.56,-305.45 z m 34.92,550.3 -384.22,114.64 -0.04,-0.1 c -39.41,12.05 -79.91,17.36 -119.97,16.21 l 163.27,154.32 c 41.99,-12.12 83.2,-29.37 122.7,-52.18 97.78,-56.45 171.67,-138.54 218.26,-232.89 z m -458.97,305.62 -291.39,-275.43 0.07,-0.08 c -30.14,-28.11 -54.99,-60.53 -74.03,-95.8 l -52.01,218.56 c 31.5,30.3 67.03,57.37 106.54,80.18 97.77,56.45 205.82,79.4 310.82,72.57 z m -494.23,-245.01 92.84,-390.07 0.1,0.03 c 9.27,-40.16 24.93,-77.89 45.95,-112.01 l -215.29,64.23 c -10.48,42.43 -16.16,86.74 -16.16,132.37 0,112.89 34.15,217.93 92.56,305.45 z m -35.05,-550.32 384.23,-114.65 0.03,0.11 c 39.41,-12.05 79.92,-17.36 119.98,-16.21 l -163.27,-154.33 c -41.99,12.13 -83.2,29.37 -122.71,52.19 -97.77,56.44 -171.67,138.53 -218.26,232.89 z m 459.25,-305.61 291.4,275.44 -0.08,0.07 c 30.14,28.12 54.99,60.54 74.03,95.8 l 52.02,-218.56 c -31.5,-30.3 -67.04,-57.36 -106.55,-80.18 -97.77,-56.44 -205.81,-79.4 -310.82,-72.57"
         style="fill:#000000;fill-opacity:1;fill-rule:nonzero;stroke:none"
         id="path16" />
      <path
         d="m 2734.75,4949.29 0,0 c 0,0 0,0 0,0.01 0,0 0,0 -0.01,0 0,0 -0.01,0 -0.01,0 0,0 0,0 0,0 -0.01,0 -0.01,0 -0.01,0 l 0,0 -0.01,0 c 0,0 0,0 0,0 l 0,-0.01 c 0,0 0,0.01 0,0.01 l 0,-0.02 0.01,0 0,0 c 0,0 0,0 0.01,0 0,0 0,0 0,0 0,0 0.01,0 0.01,0 0.01,0 0.01,0 0.01,0.01 0,0 0,0 0,0 z m -0.02,-0.01 c 0,0 -0.01,0 -0.01,0.01 l 0,0 0,0.01 0,0 0.01,0 c 0,0 0,0 0,0 0,-0.01 0,-0.01 -0.01,-0.01 l 0,0 c 0.01,0 0.01,0 0.01,0 0,-0.01 0,-0.01 0,-0.01 z m 0.01,0.01 c -0.01,0 -0.01,0 -0.01,0 l 0,0 0,0 c 0,0 0,0 0,0 0,0 0,0 0.01,0 l 0,0 z m 0,-0.01 c 0,0 0,0 0,0.01 0,0 0,0 0,0 l 0.01,0 c 0,-0.01 -0.01,-0.01 -0.01,-0.01 z m 0,0.01 c 0,0 0,0 0,0.01 0,0 0,0 0,0 l 0.01,0 c 0,-0.01 -0.01,-0.01 -0.01,-0.01"
         style="fill:#000000;fill-opacity:1;fill-rule:nonzero;stroke:none"
         id="path18" />
    </g>
  </g>
</svg>
