<?xml version="1.0" encoding="UTF-8" standalone="no"?>
<!-- Generator: Adobe Illustrator 15.1.0, SVG Export Plug-In . SVG Version: 6.00 Build 0)  -->

<svg
   xmlns:dc="http://purl.org/dc/elements/1.1/"
   xmlns:cc="http://creativecommons.org/ns#"
   xmlns:rdf="http://www.w3.org/1999/02/22-rdf-syntax-ns#"
   xmlns:svg="http://www.w3.org/2000/svg"
   xmlns="http://www.w3.org/2000/svg"
   xmlns:sodipodi="http://sodipodi.sourceforge.net/DTD/sodipodi-0.dtd"
   xmlns:inkscape="http://www.inkscape.org/namespaces/inkscape"
   version="1.1"
   id="Layer_1"
   x="0px"
   y="0px"
   width="82px"
   height="100px"
   viewBox="0 0 82 100"
   enable-background="new 0 0 82 100"
   xml:space="preserve"
   inkscape:version="0.48.3.1 r9886"
   sodipodi:docname="tag.svg"><metadata
   id="metadata9"><rdf:RDF><cc:Work
       rdf:about=""><dc:format>image/svg+xml</dc:format><dc:type
         rdf:resource="http://purl.org/dc/dcmitype/StillImage" /><dc:title /></cc:Work></rdf:RDF></metadata><defs
   id="defs7" /><sodipodi:namedview
   pagecolor="#ffffff"
   bordercolor="#666666"
   borderopacity="1"
   objecttolerance="10"
   gridtolerance="10"
   guidetolerance="10"
   inkscape:pageopacity="0"
   inkscape:pageshadow="2"
   inkscape:window-width="1280"
   inkscape:window-height="755"
   id="namedview5"
   showgrid="false"
   inkscape:zoom="4.72"
   inkscape:cx="69.198447"
   inkscape:cy="49.227459"
   inkscape:window-x="0"
   inkscape:window-y="24"
   inkscape:window-maximized="1"
   inkscape:current-layer="Layer_1" />

<g
   id="g2988"
   transform="matrix(1.0182698,0,0,1.0182698,-1.8354009,-6.7305963)"><path
     style="fill:#00ff66"
     inkscape:connector-curvature="0"
     d="m 66.315253,59.299323 -23.402289,40.31944 c -1.081669,1.920377 -3.497708,2.640277 -5.307639,1.559487 L 5.1636381,82.459738 C 3.2324853,81.380805 2.5098184,78.981732 3.5914876,77.060435 L 26.992845,36.740069 46.051671,24.858817 l 9.166214,5.160881 c 0.602377,-1.680093 0.480225,-1.800695 0.843888,-3.480788 0.84389,-3.719212 1.68871,-10.318978 9.165281,-15.959489 2.533532,-2.1606487 6.391175,-2.1606487 9.888883,-0.359953 1.930221,0.839582 3.619863,2.278469 4.827416,3.839813 1.203823,1.797914 1.806201,3.719212 1.926489,5.519908 -0.12122,2.278469 -1.203823,5.399303 -6.269019,7.798375 -3.983527,1.800696 -7.361877,2.281253 -10.495921,2.641206 -2.775973,0.359954 -4.943975,0.600232 -6.753906,1.800698 l 8.927501,5.159951 -0.963244,22.319904 z M 56.906595,47.419928 c 1.931152,-3.239582 1.325045,-7.199998 -0.96511,-9.840277 l -4.101019,-2.520603 c -3.619863,-1.199536 -7.719016,0.359953 -9.77139,3.840743 -2.290155,4.079164 -0.966043,9.239118 3.138705,11.639115 4.101019,2.280324 9.408659,0.960185 11.698814,-3.118978 z m 1.087263,-20.639812 c 0,0.600232 -0.121221,0.960185 -0.243375,1.440742 -0.121221,0.598376 0,0.958331 -0.242442,1.680093 2.173596,-1.440742 4.46375,-1.561346 7.360943,-1.800697 2.892534,-0.359953 6.269021,-0.839581 9.887951,-2.519674 3.37742,-1.440742 5.066129,-3.60139 5.186418,-6.000463 0,-2.76088 -2.051442,-5.640511 -5.065197,-7.320604 -0.122154,-0.117819 -0.364595,-0.238422 -0.602377,-0.359953 -2.896262,-1.438886 -5.793458,-1.438886 -7.962392,0.241206 -6.752041,5.158099 -7.718083,11.040742 -8.319529,14.63935 z"
     id="path2983" /><g
     id="g2985"><path
       inkscape:connector-curvature="0"
       d="m 66.176935,58.535755 -22.538471,39.03034 c -1.041743,1.858977 -3.368602,2.555865 -5.111725,1.50963 L 7.2825294,80.955683 C 5.4226587,79.911245 4.7266667,77.588876 5.7684097,75.729006 L 28.305983,36.697768 46.661315,25.196385 55.48919,30.192262 c 0.580142,-1.626377 0.462498,-1.743124 0.812738,-3.3695 0.81274,-3.6003 1.626377,-9.989059 8.826976,-15.44923 2.440014,-2.0915687 6.155265,-2.0915687 9.523867,-0.348445 1.858973,0.812739 3.486248,2.205621 4.649228,3.717046 1.159388,1.740431 1.739531,3.600301 1.855379,5.343425 -0.116746,2.205621 -1.159388,5.226676 -6.037619,7.549045 -3.836488,1.743123 -7.090138,2.208316 -10.108499,2.55676 -2.673507,0.348446 -4.761484,0.581042 -6.504608,1.743125 l 8.597972,4.994978 -0.927689,21.606289 z M 57.115566,47.03617 c 1.85987,-3.136006 1.276136,-6.9698 -0.929486,-9.525663 l -3.949643,-2.440014 c -3.486248,-1.161184 -7.434094,0.348445 -9.410712,3.717946 -2.205621,3.948744 -0.930384,8.943723 3.02285,11.266989 3.949644,2.207416 9.06137,0.929485 11.266991,-3.019258 z m 1.047131,-19.979914 c 0,0.581041 -0.116747,0.929486 -0.234392,1.394678 -0.116747,0.579245 0,0.927691 -0.233493,1.626377 2.093365,-1.394678 4.298985,-1.511426 7.089239,-1.743124 2.785765,-0.348445 6.03762,-0.812739 9.52297,-2.439115 3.252753,-1.394679 4.879129,-3.486247 4.994978,-5.808616 0,-2.672609 -1.97572,-5.460171 -4.878232,-7.086548 -0.117645,-0.114053 -0.351138,-0.2308 -0.580143,-0.348445 -2.789356,-1.392882 -5.579611,-1.392882 -7.668486,0.233494 -6.502812,4.993184 -7.433196,10.687746 -8.012441,14.171299 z"
       id="path3" /></g></g></svg>