<?xml version="1.0" encoding="UTF-8" standalone="no"?>
<!-- Created with Inkscape (http://www.inkscape.org/) -->

<svg
   xmlns:dc="http://purl.org/dc/elements/1.1/"
   xmlns:cc="http://creativecommons.org/ns#"
   xmlns:rdf="http://www.w3.org/1999/02/22-rdf-syntax-ns#"
   xmlns:svg="http://www.w3.org/2000/svg"
   xmlns="http://www.w3.org/2000/svg"
   xmlns:xlink="http://www.w3.org/1999/xlink"
   xmlns:sodipodi="http://sodipodi.sourceforge.net/DTD/sodipodi-0.dtd"
   xmlns:inkscape="http://www.inkscape.org/namespaces/inkscape"
   width="128"
   height="128"
   id="svg7115"
   version="1.1"
   inkscape:version="0.47 r22583"
   sodipodi:docname="$PostDoc_Root.svg">
  <defs
     id="defs7117">
    <inkscape:perspective
       sodipodi:type="inkscape:persp3d"
       inkscape:vp_x="0 : 526.18109 : 1"
       inkscape:vp_y="0 : 1000 : 0"
       inkscape:vp_z="744.09448 : 526.18109 : 1"
       inkscape:persp3d-origin="372.04724 : 350.78739 : 1"
       id="perspective7123" />
    <inkscape:perspective
       id="perspective7133"
       inkscape:persp3d-origin="0.5 : 0.33333333 : 1"
       inkscape:vp_z="1 : 0.5 : 1"
       inkscape:vp_y="0 : 1000 : 0"
       inkscape:vp_x="0 : 0.5 : 1"
       sodipodi:type="inkscape:persp3d" />
    <radialGradient
       r="57.578693"
       fy="-44.736084"
       fx="81.822357"
       cy="-44.736084"
       cx="81.822357"
       gradientUnits="userSpaceOnUse"
       id="radialGradient6556"
       xlink:href="#linearGradient4065-7"
       inkscape:collect="always" />
    <linearGradient
       id="linearGradient4065-7">
      <stop
         style="stop-color:#fe9081;stop-opacity:1;"
         offset="0"
         id="stop4067-3" />
      <stop
         style="stop-color:#dd2026;stop-opacity:1;"
         offset="1"
         id="stop4069-38" />
    </linearGradient>
    <filter
       id="filter2840"
       inkscape:label="Glow"
       inkscape:menu="Shadows and Glows"
       inkscape:menu-tooltip="Glow of object's own color at the edges"
       color-interpolation-filters="sRGB">
      <feGaussianBlur
         id="feGaussianBlur2842"
         stdDeviation="5"
         result="result91" />
      <feComposite
         id="feComposite2844"
         in2="result91"
         in="SourceGraphic"
         operator="over" />
    </filter>
    <inkscape:perspective
       id="perspective2964"
       inkscape:persp3d-origin="0.5 : 0.33333333 : 1"
       inkscape:vp_z="1 : 0.5 : 1"
       inkscape:vp_y="0 : 1000 : 0"
       inkscape:vp_x="0 : 0.5 : 1"
       sodipodi:type="inkscape:persp3d" />
    <clipPath
       clipPathUnits="userSpaceOnUse"
       id="clipPath12320">
      <path
         d="m 2503.58,4985.06 c -207.55,-11.54 -379.65,-24.2 -522.15,-36.87 117.17,-520.86 76.29,-1108.5 55.2,-1323.25 629.01,107.78 760.71,623.42 760.71,623.42 0,0 29.62,521.02 -293.76,736.7"
         id="path12322" />
    </clipPath>
    <clipPath
       clipPathUnits="userSpaceOnUse"
       id="clipPath12336">
      <path
         d="m 1981.43,4948.19 c -1.22,-0.08 -2.48,-0.24 -3.65,-0.32 -510.41,-45.66 -636.9,-92.25 -636.9,-92.25 0,0 -138.25,-102.88 -153.03,-640.41 0,-160 208.85,-542.88 824.78,-592.02 7.25,0.45 14.57,0.09 21.94,1.34 0.68,0.08 1.29,0.28 2.06,0.41 21.09,214.75 61.97,802.39 -55.2,1323.25"
         id="path12338" />
    </clipPath>
    <clipPath
       clipPathUnits="userSpaceOnUse"
       id="clipPath12352">
      <path
         d="m 2012.75,3638.86 c -332.05,26.75 -527.41,150.76 -632.81,250.13 -121.87,115.03 -176.46,246.73 -176.46,326.22 13.43,487.63 840.84,-344.8 818.82,-576.07 -1.01,-0.04 -2.06,-0.04 -3.12,-0.08 -2.14,-0.04 -4.28,-0.12 -6.43,-0.2 l 0,0"
         id="path12354" />
    </clipPath>
    <clipPath
       clipPathUnits="userSpaceOnUse"
       id="clipPath12368">
      <path
         d="m 649.23,5125.87 c -9.351,-22.06 -5.671,-62.45 0,-75.93 228.309,-213.62 687.69,-605.94 1254.04,-710.8 0,341.51 58.57,799.56 113.25,1152.77 C 1591.09,5413.72 893.125,5278.05 649.23,5125.87"
         id="path12370" />
    </clipPath>
    <clipPath
       clipPathUnits="userSpaceOnUse"
       id="clipPath12384">
      <path
         d="m 3316.21,5156.91 c -254.82,93.42 -1083.69,317.27 -1274.28,339.7 -8.34,-1.54 -16.83,-3.07 -25.41,-4.7 -54.68,-353.21 -113.25,-811.26 -113.25,-1152.77 0,0 514.5,177.19 713.67,287.4 418.99,236.94 699.27,454.48 699.27,454.48 0,0 16.19,35.94 0,75.89"
         id="path12386" />
    </clipPath>
    <clipPath
       clipPathUnits="userSpaceOnUse"
       id="clipPath12400">
      <path
         d="m 1397.3,5419.43 c -320.18,-90.95 -624.425,-200.23 -748.07,-293.56 123.805,-115.92 315.692,-284.21 555.66,-430.81 229.45,153.65 575.62,368.8 774.95,412.83 -290.03,207.97 -361.99,266.16 -582.54,311.54"
         id="path12402" />
    </clipPath>
    <clipPath
       clipPathUnits="userSpaceOnUse"
       id="clipPath12416">
      <path
         d="m 2695.18,5378.87 c -269.19,92.32 -546.96,181.17 -653.25,193.67 -184.15,-33.75 -418.38,-88.88 -644.63,-153.11 220.55,-45.38 292.51,-103.57 582.54,-311.54 242.04,162.91 393.61,251.43 715.34,270.98"
         id="path12418" />
    </clipPath>
    <clipPath
       clipPathUnits="userSpaceOnUse"
       id="clipPath12432">
      <path
         d="m 2695.18,5378.87 c -321.73,-19.55 -473.3,-108.07 -715.34,-270.98 217.31,-16.27 618.45,-182.53 844.57,-283.23 301.37,184.56 491.8,332.25 491.8,332.25 0,0 -304.6,113.45 -621.03,221.96"
         id="path12434" />
    </clipPath>
    <clipPath
       clipPathUnits="userSpaceOnUse"
       id="clipPath12464">
      <path
         d="m 1883.52,5041.04 c 0,0 -478.93,-271.63 -799.44,-267.86 -38.73,26.87 -38.73,26.87 -38.73,26.87 0,0 93.29,5.38 238.75,41.29 145.42,35.94 343.13,162.26 343.13,162.26 0,0 110.1,51.76 256.29,37.44"
         id="path12466" />
    </clipPath>
    <clipPath
       clipPathUnits="userSpaceOnUse"
       id="clipPath12480">
      <path
         d="m 1862.39,5090.29 -0.08,0 c -0.12,0 -161.17,-24.93 -354.02,-61.84 -193.23,-36.95 -417.29,-85.44 -547.294,-134.17 0,0 -10.844,-3.93 -15.582,-10.61 -3.156,-4.33 -5.547,-19.38 -5.547,-19.38 -21.168,-129.56 -28.695,-255.68 -28.695,-370.02 0.082,-290.76 21.695,-500.42 22.223,-502.84 l 18.902,4.08 19.871,4.26 c 0,0 15.219,12.38 14.004,18.37 -8.699,42.09 -15.379,232.24 -15.344,476.13 0,102.57 6.36,214.55 23.602,329.05 l 2.632,11.46 c 126.398,44.61 336.418,79.29 519.598,114.3 96.05,18.33 257.54,62.13 257.54,62.13 110.25,29.38 119.84,33.02 119.96,33.02 l -31.77,46.06"
         id="path12482" />
    </clipPath>
    <clipPath
       clipPathUnits="userSpaceOnUse"
       id="clipPath12496">
      <path
         d="m 935.137,4016.16 c -11.414,57.63 -15.34,245.75 -15.426,485.2 0,127.98 1.906,250.69 20.809,366.53 0.847,5.34 1.738,12.79 5.3,16.39 5.098,5.1 10.239,8.14 13.438,9.27 105.792,39.66 289.022,77.66 544.862,126.6 166.15,31.78 306.91,54.4 343.86,60.26 l 13.96,-20.19 c -16.43,-4.65 -590.02,-71.76 -877.182,-203.62 0,0 -4.699,-2.23 -5.871,-3.45 -1.578,-1.61 -4.168,-7.76 -4.168,-7.76 l -2.59,-11.5 c -15.984,-105.8 -24.004,-217.3 -24.004,-332.53 -0.039,-240.98 -10.805,-482.05 -10.805,-482.05 l -2.183,-3.15"
         id="path12498" />
    </clipPath>
    <clipPath
       clipPathUnits="userSpaceOnUse"
       id="clipPath12512">
      <path
         d="m 2133.24,5107.89 c 0,-47.46 -68.69,-85.92 -153.4,-85.92 -84.75,0 -153.43,38.46 -153.43,85.92 0,47.49 68.68,85.93 153.43,85.93 84.71,0 153.4,-38.44 153.4,-85.93"
         id="path12514" />
    </clipPath>
    <clipPath
       clipPathUnits="userSpaceOnUse"
       id="clipPath12528">
      <path
         d="m 2066.9,5163.34 c 0,-4.36 -39.21,3.53 -87.62,3.53 -48.37,0 -87.62,-7.89 -87.62,-3.53 0,4.34 39.25,19.31 87.62,19.31 48.41,0 87.62,-14.97 87.62,-19.31"
         id="path12530" />
    </clipPath>
    <clipPath
       clipPathUnits="userSpaceOnUse"
       id="clipPath12544">
      <path
         d="m 1091,4692.44 c 0,0 -12.18,49.53 -6.92,80.74 -38.73,26.87 -38.73,26.87 -38.73,26.87 0,0 -9.56,-32.3 -9.56,-69.25 37.2,-26.07 55.21,-38.36 55.21,-38.36"
         id="path12546" />
    </clipPath>
    <clipPath
       clipPathUnits="userSpaceOnUse"
       id="clipPath12560">
      <path
         d="m 1065.62,3775.41 c -8.54,-1.73 -18.29,-3.71 -29.34,-6.14 161.24,-287.73 131.98,-544.78 103.45,-665.03 17.24,-2.59 41.36,-7.08 74.19,-14.65 22.1,145.54 19.63,393.81 -148.3,685.82"
         id="path12562" />
    </clipPath>
    <clipPath
       clipPathUnits="userSpaceOnUse"
       id="clipPath12576">
      <path
         d="m 1119.21,3785.38 c 0,0 -14.37,-1.91 -53.59,-9.97 167.93,-292.01 170.4,-540.28 148.3,-685.82 26.63,-6.15 58.77,-14.37 97.62,-25.3 138.34,337.35 -192.33,721.09 -192.33,721.09"
         id="path12578" />
    </clipPath>
    <clipPath
       clipPathUnits="userSpaceOnUse"
       id="clipPath12592">
      <path
         d="M 1092.34,3652.78 C 940.559,3455.27 956.625,3228.73 980.387,3109.46 c 36.873,9.75 67.383,5.02 67.383,5.02 0,0 -13.07,69.54 -13.07,188 0,118.47 32.99,47.32 35.86,36.11 26.06,-101.76 32.58,-230.55 32.58,-230.55 0,0 10.32,0.21 36.59,-3.8 24.61,103.69 49.7,309.34 -47.39,548.54"
         id="path12594" />
    </clipPath>
    <clipPath
       clipPathUnits="userSpaceOnUse"
       id="clipPath12608">
      <path
         d="m 1092.34,3652.78 c -15.46,38.09 -33.84,76.94 -56.06,116.49 -22.14,-4.78 -49.382,-10.85 -82.928,-18.66 -66.422,-52.54 -102.848,-586.31 -30.965,-669.6 18.941,14.93 39.258,23.56 58,28.45 -23.762,119.27 -39.828,345.81 111.953,543.32"
         id="path12610" />
    </clipPath>
    <clipPath
       clipPathUnits="userSpaceOnUse"
       id="clipPath12624">
      <path
         d="m 833.547,3940.96 27.922,-91.6 c 13.437,-44.03 69.539,-71.15 125.23,-60.55 l 19.591,3.77 c -96.489,51.77 -143.767,137.04 -166.47,201.07 -9.066,-15.98 -11.859,-34.36 -6.273,-52.69"
         id="path12626" />
    </clipPath>
    <clipPath
       clipPathUnits="userSpaceOnUse"
       id="clipPath12640">
      <path
         d="m 1073.07,3809.82 c -111.629,57.76 -158.824,160.12 -178.246,226.13 -25.097,-8.18 -44.441,-23.56 -55.004,-42.3 22.703,-64.03 69.981,-149.3 166.47,-201.07 l 35.74,6.84 c 11.37,2.14 21.69,5.75 31.04,10.4"
         id="path12642" />
    </clipPath>
    <clipPath
       clipPathUnits="userSpaceOnUse"
       id="clipPath12656">
      <path
         d="m 986.172,4052.78 c -6.84,-0.2 -13.723,-0.97 -20.723,-2.26 l -55.328,-10.56 c -5.301,-1.02 -10.398,-2.44 -15.297,-4.01 10.602,-36.11 29.625,-83.02 62.856,-127.54 25.215,19.91 50.27,61 28.492,144.37"
         id="path12658" />
    </clipPath>
    <clipPath
       clipPathUnits="userSpaceOnUse"
       id="clipPath12672">
      <path
         d="m 1062.43,4029.23 c -19.96,15.5 -47.44,24.32 -76.258,23.55 21.778,-83.37 -3.277,-124.46 -28.492,-144.37 14.449,-19.42 31.605,-38.32 51.97,-55.81 33.19,17.93 79.41,63.95 52.78,176.63"
         id="path12674" />
    </clipPath>
    <clipPath
       clipPathUnits="userSpaceOnUse"
       id="clipPath12688">
      <path
         d="m 1062.43,4029.23 c 26.63,-112.68 -19.59,-158.7 -52.78,-176.63 18.49,-15.74 39.34,-30.31 63.42,-42.78 36.59,18.25 56.18,53.47 45.54,88.56 l -27.93,91.63 c -4.78,15.46 -14.86,28.86 -28.25,39.22"
         id="path12690" />
    </clipPath>
    <clipPath
       clipPathUnits="userSpaceOnUse"
       id="clipPath12704">
      <path
         d="m 1122.65,3816.09 c 2.31,-6.71 -2.71,-13.63 -11.21,-15.41 l -175.131,-37.53 c -8.539,-1.78 -17.325,2.15 -19.629,8.9 l 0,0 c -2.266,6.72 2.75,13.65 11.25,15.47 l 175.21,37.48 c 8.46,1.82 17.2,-2.19 19.51,-8.91 l 0,0"
         id="path12706" />
    </clipPath>
    <clipPath
       clipPathUnits="userSpaceOnUse"
       id="clipPath12720">
      <path
         d="m 1130.42,3792.58 c 2.27,-6.72 -2.71,-13.64 -11.21,-15.46 l -175.171,-37.48 c -8.504,-1.82 -17.281,2.14 -19.59,8.86 l 0,0 c -2.304,6.72 2.754,13.64 11.254,15.5 l 175.207,37.44 c 8.46,1.82 17.2,-2.18 19.51,-8.86 l 0,0"
         id="path12722" />
    </clipPath>
  </defs>
  <sodipodi:namedview
     id="base"
     pagecolor="#ffffff"
     bordercolor="#666666"
     borderopacity="1.0"
     inkscape:pageopacity="0.0"
     inkscape:pageshadow="2"
     inkscape:zoom="2.8"
     inkscape:cx="-10.501623"
     inkscape:cy="77.142857"
     inkscape:document-units="px"
     inkscape:current-layer="layer1"
     showgrid="false"
     inkscape:window-width="1280"
     inkscape:window-height="739"
     inkscape:window-x="-5"
     inkscape:window-y="0"
     inkscape:window-maximized="1" />
  <metadata
     id="metadata7120">
    <rdf:RDF>
      <cc:Work
         rdf:about="">
        <dc:format>image/svg+xml</dc:format>
        <dc:type
           rdf:resource="http://purl.org/dc/dcmitype/StillImage" />
        <dc:title></dc:title>
      </cc:Work>
    </rdf:RDF>
  </metadata>
  <g
     inkscape:label="Layer 1"
     inkscape:groupmode="layer"
     id="layer1"
     transform="translate(0,-924.36218)">
    <path
       transform="matrix(1.0749636,0,0,1.0749636,-23.956056,1036.4518)"
       d="m 139.40105,-44.736084 c 0,31.799834 -25.77886,57.578693 -57.578693,57.578693 -31.799834,0 -57.578693,-25.778859 -57.578693,-57.578693 0,-31.799834 25.778859,-57.578696 57.578693,-57.578696 31.799833,0 57.578693,25.778862 57.578693,57.578696 z"
       sodipodi:ry="57.578693"
       sodipodi:rx="57.578693"
       sodipodi:cy="-44.736084"
       sodipodi:cx="81.822357"
       id="path3291"
       style="fill:#782121;fill-opacity:1;stroke:none;filter:url(#filter2840)"
       sodipodi:type="arc" />
    <g
       transform="matrix(1.9246976,0,0,1.9246976,-90.74271,507.69247)"
       id="g2989">
      <g
         transform="matrix(0.01785512,0,0,-0.01785512,44.983535,326.84358)"
         id="g12316"
         style="fill:#1a1a1a">
        <g
           clip-path="url(#clipPath12320)"
           id="g12318"
           style="fill:#1a1a1a">
          <path
             id="path12330"
             style="fill:#1a1a1a;fill-opacity:1;fill-rule:nonzero;stroke:none"
             d="m 2503.58,4985.06 c -207.55,-11.54 -379.65,-24.2 -522.15,-36.87 117.17,-520.86 76.29,-1108.5 55.2,-1323.25 629.01,107.78 760.71,623.42 760.71,623.42 0,0 29.62,521.02 -293.76,736.7" />
        </g>
      </g>
      <g
         transform="matrix(0.01785512,0,0,-0.01785512,44.983535,326.84358)"
         id="g12332"
         style="fill:#1a1a1a">
        <g
           clip-path="url(#clipPath12336)"
           id="g12334"
           style="fill:#1a1a1a">
          <path
             id="path12346"
             style="fill:#1a1a1a;fill-opacity:1;fill-rule:nonzero;stroke:none"
             d="m 1981.43,4948.19 c -1.22,-0.08 -2.48,-0.24 -3.65,-0.32 -510.41,-45.66 -636.9,-92.25 -636.9,-92.25 0,0 -138.25,-102.88 -153.03,-640.41 0,-160 208.85,-542.88 824.78,-592.02 7.25,0.45 14.57,0.09 21.94,1.34 0.68,0.08 1.29,0.28 2.06,0.41 21.09,214.75 61.97,802.39 -55.2,1323.25" />
        </g>
      </g>
      <g
         transform="matrix(0.01785512,0,0,-0.01785512,44.983535,326.84358)"
         id="g12348"
         style="fill:#1a1a1a">
        <g
           clip-path="url(#clipPath12352)"
           id="g12350"
           style="fill:#1a1a1a">
          <path
             id="path12362"
             style="fill:#1a1a1a;fill-opacity:1;fill-rule:nonzero;stroke:none"
             d="m 2012.75,3638.86 c -332.05,26.75 -527.41,150.76 -632.81,250.13 -121.87,115.03 -176.46,246.73 -176.46,326.22 13.43,487.63 840.84,-344.8 818.82,-576.07 -1.01,-0.04 -2.06,-0.04 -3.12,-0.08 -2.14,-0.04 -4.28,-0.12 -6.43,-0.2 l 0,0" />
        </g>
      </g>
      <g
         transform="matrix(0.01785512,0,0,-0.01785512,44.983535,326.84358)"
         id="g12364"
         style="fill:#1a1a1a">
        <g
           clip-path="url(#clipPath12368)"
           id="g12366"
           style="fill:#1a1a1a">
          <path
             id="path12378"
             style="fill:#1a1a1a;fill-opacity:1;fill-rule:nonzero;stroke:none"
             d="m 649.23,5125.87 c -9.351,-22.06 -5.671,-62.45 0,-75.93 228.309,-213.62 687.69,-605.94 1254.04,-710.8 0,341.51 58.57,799.56 113.25,1152.77 C 1591.09,5413.72 893.125,5278.05 649.23,5125.87" />
        </g>
      </g>
      <g
         transform="matrix(0.01785512,0,0,-0.01785512,44.983535,326.84358)"
         id="g12380"
         style="fill:#1a1a1a">
        <g
           clip-path="url(#clipPath12384)"
           id="g12382"
           style="fill:#1a1a1a">
          <path
             id="path12394"
             style="fill:#1a1a1a;fill-opacity:1;fill-rule:nonzero;stroke:none"
             d="m 3316.21,5156.91 c -254.82,93.42 -1083.69,317.27 -1274.28,339.7 -8.34,-1.54 -16.83,-3.07 -25.41,-4.7 -54.68,-353.21 -113.25,-811.26 -113.25,-1152.77 0,0 514.5,177.19 713.67,287.4 418.99,236.94 699.27,454.48 699.27,454.48 0,0 16.19,35.94 0,75.89" />
        </g>
      </g>
      <g
         transform="matrix(0.01785512,0,0,-0.01785512,44.983535,326.84358)"
         id="g12396"
         style="fill:#1a1a1a">
        <g
           clip-path="url(#clipPath12400)"
           id="g12398"
           style="fill:#1a1a1a">
          <path
             id="path12410"
             style="fill:#1a1a1a;fill-opacity:1;fill-rule:nonzero;stroke:none"
             d="m 1397.3,5419.43 c -320.18,-90.95 -624.425,-200.23 -748.07,-293.56 123.805,-115.92 315.692,-284.21 555.66,-430.81 229.45,153.65 575.62,368.8 774.95,412.83 -290.03,207.97 -361.99,266.16 -582.54,311.54" />
        </g>
      </g>
      <g
         transform="matrix(0.01785512,0,0,-0.01785512,44.983535,326.84358)"
         id="g12412"
         style="fill:#1a1a1a">
        <g
           clip-path="url(#clipPath12416)"
           id="g12414"
           style="fill:#1a1a1a">
          <path
             id="path12426"
             style="fill:#1a1a1a;fill-opacity:1;fill-rule:nonzero;stroke:none"
             d="m 2695.18,5378.87 c -269.19,92.32 -546.96,181.17 -653.25,193.67 -184.15,-33.75 -418.38,-88.88 -644.63,-153.11 220.55,-45.38 292.51,-103.57 582.54,-311.54 242.04,162.91 393.61,251.43 715.34,270.98" />
        </g>
      </g>
      <g
         transform="matrix(0.01785512,0,0,-0.01785512,44.983535,326.84358)"
         id="g12428"
         style="fill:#1a1a1a">
        <g
           clip-path="url(#clipPath12432)"
           id="g12430"
           style="fill:#1a1a1a">
          <path
             id="path12442"
             style="fill:#1a1a1a;fill-opacity:1;fill-rule:nonzero;stroke:none"
             d="m 2695.18,5378.87 c -321.73,-19.55 -473.3,-108.07 -715.34,-270.98 217.31,-16.27 618.45,-182.53 844.57,-283.23 301.37,184.56 491.8,332.25 491.8,332.25 0,0 -304.6,113.45 -621.03,221.96" />
        </g>
      </g>
      <g
         transform="matrix(0.01785512,0,0,-0.01785512,44.983535,326.84358)"
         id="g12460"
         style="fill:#1a1a1a">
        <g
           clip-path="url(#clipPath12464)"
           id="g12462"
           style="fill:#1a1a1a">
          <path
             id="path12474"
             style="fill:#1a1a1a;fill-opacity:1;fill-rule:nonzero;stroke:none"
             d="m 1883.52,5041.04 c 0,0 -478.93,-271.63 -799.44,-267.86 -38.73,26.87 -38.73,26.87 -38.73,26.87 0,0 93.29,5.38 238.75,41.29 145.42,35.94 343.13,162.26 343.13,162.26 0,0 110.1,51.76 256.29,37.44" />
        </g>
      </g>
      <g
         transform="matrix(0.01785512,0,0,-0.01785512,44.983535,326.84358)"
         id="g12476"
         style="fill:#1a1a1a">
        <g
           clip-path="url(#clipPath12480)"
           id="g12478"
           style="fill:#1a1a1a">
          <path
             id="path12490"
             style="fill:#1a1a1a;fill-opacity:1;fill-rule:nonzero;stroke:none"
             d="m 1862.39,5090.29 -0.08,0 c -0.12,0 -161.17,-24.93 -354.02,-61.84 -193.23,-36.95 -417.29,-85.44 -547.294,-134.17 0,0 -10.844,-3.93 -15.582,-10.61 -3.156,-4.33 -5.547,-19.38 -5.547,-19.38 -21.168,-129.56 -28.695,-255.68 -28.695,-370.02 0.082,-290.76 21.695,-500.42 22.223,-502.84 l 18.902,4.08 19.871,4.26 c 0,0 15.219,12.38 14.004,18.37 -8.699,42.09 -15.379,232.24 -15.344,476.13 0,102.57 6.36,214.55 23.602,329.05 l 2.632,11.46 c 126.398,44.61 336.418,79.29 519.598,114.3 96.05,18.33 257.54,62.13 257.54,62.13 110.25,29.38 119.84,33.02 119.96,33.02 l -31.77,46.06" />
        </g>
      </g>
      <g
         transform="matrix(0.01785512,0,0,-0.01785512,44.983535,326.84358)"
         id="g12492"
         style="fill:#1a1a1a">
        <g
           clip-path="url(#clipPath12496)"
           id="g12494"
           style="fill:#1a1a1a">
          <path
             id="path12506"
             style="fill:#1a1a1a;fill-opacity:1;fill-rule:nonzero;stroke:none"
             d="m 935.137,4016.16 c -11.414,57.63 -15.34,245.75 -15.426,485.2 0,127.98 1.906,250.69 20.809,366.53 0.847,5.34 1.738,12.79 5.3,16.39 5.098,5.1 10.239,8.14 13.438,9.27 105.792,39.66 289.022,77.66 544.862,126.6 166.15,31.78 306.91,54.4 343.86,60.26 l 13.96,-20.19 c -16.43,-4.65 -590.02,-71.76 -877.182,-203.62 0,0 -4.699,-2.23 -5.871,-3.45 -1.578,-1.61 -4.168,-7.76 -4.168,-7.76 l -2.59,-11.5 c -15.984,-105.8 -24.004,-217.3 -24.004,-332.53 -0.039,-240.98 -10.805,-482.05 -10.805,-482.05 l -2.183,-3.15" />
        </g>
      </g>
      <g
         transform="matrix(0.01785512,0,0,-0.01785512,44.983535,326.84358)"
         id="g12508"
         style="fill:#1a1a1a">
        <g
           clip-path="url(#clipPath12512)"
           id="g12510"
           style="fill:#1a1a1a">
          <path
             id="path12522"
             style="fill:#1a1a1a;fill-opacity:1;fill-rule:nonzero;stroke:none"
             d="m 2133.24,5107.89 c 0,-47.46 -68.69,-85.92 -153.4,-85.92 -84.75,0 -153.43,38.46 -153.43,85.92 0,47.49 68.68,85.93 153.43,85.93 84.71,0 153.4,-38.44 153.4,-85.93" />
        </g>
      </g>
      <g
         transform="matrix(0.01785512,0,0,-0.01785512,44.983535,326.84358)"
         id="g12524"
         style="fill:#1a1a1a">
        <g
           clip-path="url(#clipPath12528)"
           id="g12526"
           style="fill:#1a1a1a">
          <path
             id="path12538"
             style="fill:#1a1a1a;fill-opacity:1;fill-rule:nonzero;stroke:none"
             d="m 2066.9,5163.34 c 0,-4.36 -39.21,3.53 -87.62,3.53 -48.37,0 -87.62,-7.89 -87.62,-3.53 0,4.34 39.25,19.31 87.62,19.31 48.41,0 87.62,-14.97 87.62,-19.31" />
        </g>
      </g>
      <g
         transform="matrix(0.01785512,0,0,-0.01785512,44.983535,326.84358)"
         id="g12540"
         style="fill:#1a1a1a">
        <g
           clip-path="url(#clipPath12544)"
           id="g12542"
           style="fill:#1a1a1a">
          <path
             id="path12554"
             style="fill:#1a1a1a;fill-opacity:1;fill-rule:nonzero;stroke:none"
             d="m 1091,4692.44 c 0,0 -12.18,49.53 -6.92,80.74 -38.73,26.87 -38.73,26.87 -38.73,26.87 0,0 -9.56,-32.3 -9.56,-69.25 37.2,-26.07 55.21,-38.36 55.21,-38.36" />
        </g>
      </g>
      <g
         transform="matrix(0.01785512,0,0,-0.01785512,44.983535,326.84358)"
         id="g12556"
         style="fill:#1a1a1a">
        <g
           clip-path="url(#clipPath12560)"
           id="g12558"
           style="fill:#1a1a1a">
          <path
             id="path12570"
             style="fill:#1a1a1a;fill-opacity:1;fill-rule:nonzero;stroke:none"
             d="m 1065.62,3775.41 c -8.54,-1.73 -18.29,-3.71 -29.34,-6.14 161.24,-287.73 131.98,-544.78 103.45,-665.03 17.24,-2.59 41.36,-7.08 74.19,-14.65 22.1,145.54 19.63,393.81 -148.3,685.82" />
        </g>
      </g>
      <g
         transform="matrix(0.01785512,0,0,-0.01785512,44.983535,326.84358)"
         id="g12572"
         style="fill:#1a1a1a">
        <g
           clip-path="url(#clipPath12576)"
           id="g12574"
           style="fill:#1a1a1a">
          <path
             id="path12586"
             style="fill:#1a1a1a;fill-opacity:1;fill-rule:nonzero;stroke:none"
             d="m 1119.21,3785.38 c 0,0 -14.37,-1.91 -53.59,-9.97 167.93,-292.01 170.4,-540.28 148.3,-685.82 26.63,-6.15 58.77,-14.37 97.62,-25.3 138.34,337.35 -192.33,721.09 -192.33,721.09" />
        </g>
      </g>
      <g
         transform="matrix(0.01785512,0,0,-0.01785512,44.983535,326.84358)"
         id="g12588"
         style="fill:#1a1a1a">
        <g
           clip-path="url(#clipPath12592)"
           id="g12590"
           style="fill:#1a1a1a">
          <path
             id="path12602"
             style="fill:#1a1a1a;fill-opacity:1;fill-rule:nonzero;stroke:none"
             d="M 1092.34,3652.78 C 940.559,3455.27 956.625,3228.73 980.387,3109.46 c 36.873,9.75 67.383,5.02 67.383,5.02 0,0 -13.07,69.54 -13.07,188 0,118.47 32.99,47.32 35.86,36.11 26.06,-101.76 32.58,-230.55 32.58,-230.55 0,0 10.32,0.21 36.59,-3.8 24.61,103.69 49.7,309.34 -47.39,548.54" />
        </g>
      </g>
      <g
         transform="matrix(0.01785512,0,0,-0.01785512,44.983535,326.84358)"
         id="g12604"
         style="fill:#1a1a1a">
        <g
           clip-path="url(#clipPath12608)"
           id="g12606"
           style="fill:#1a1a1a">
          <path
             id="path12618"
             style="fill:#1a1a1a;fill-opacity:1;fill-rule:nonzero;stroke:none"
             d="m 1092.34,3652.78 c -15.46,38.09 -33.84,76.94 -56.06,116.49 -22.14,-4.78 -49.382,-10.85 -82.928,-18.66 -66.422,-52.54 -102.848,-586.31 -30.965,-669.6 18.941,14.93 39.258,23.56 58,28.45 -23.762,119.27 -39.828,345.81 111.953,543.32" />
        </g>
      </g>
      <g
         transform="matrix(0.01785512,0,0,-0.01785512,44.983535,326.84358)"
         id="g12620"
         style="fill:#1a1a1a">
        <g
           clip-path="url(#clipPath12624)"
           id="g12622"
           style="fill:#1a1a1a">
          <path
             id="path12634"
             style="fill:#1a1a1a;fill-opacity:1;fill-rule:nonzero;stroke:none"
             d="m 833.547,3940.96 27.922,-91.6 c 13.437,-44.03 69.539,-71.15 125.23,-60.55 l 19.591,3.77 c -96.489,51.77 -143.767,137.04 -166.47,201.07 -9.066,-15.98 -11.859,-34.36 -6.273,-52.69" />
        </g>
      </g>
      <g
         transform="matrix(0.01785512,0,0,-0.01785512,44.983535,326.84358)"
         id="g12636"
         style="fill:#1a1a1a">
        <g
           clip-path="url(#clipPath12640)"
           id="g12638"
           style="fill:#1a1a1a">
          <path
             id="path12650"
             style="fill:#1a1a1a;fill-opacity:1;fill-rule:nonzero;stroke:none"
             d="m 1073.07,3809.82 c -111.629,57.76 -158.824,160.12 -178.246,226.13 -25.097,-8.18 -44.441,-23.56 -55.004,-42.3 22.703,-64.03 69.981,-149.3 166.47,-201.07 l 35.74,6.84 c 11.37,2.14 21.69,5.75 31.04,10.4" />
        </g>
      </g>
      <g
         transform="matrix(0.01785512,0,0,-0.01785512,44.983535,326.84358)"
         id="g12652"
         style="fill:#1a1a1a">
        <g
           clip-path="url(#clipPath12656)"
           id="g12654"
           style="fill:#1a1a1a">
          <path
             id="path12666"
             style="fill:#1a1a1a;fill-opacity:1;fill-rule:nonzero;stroke:none"
             d="m 986.172,4052.78 c -6.84,-0.2 -13.723,-0.97 -20.723,-2.26 l -55.328,-10.56 c -5.301,-1.02 -10.398,-2.44 -15.297,-4.01 10.602,-36.11 29.625,-83.02 62.856,-127.54 25.215,19.91 50.27,61 28.492,144.37" />
        </g>
      </g>
      <g
         transform="matrix(0.01785512,0,0,-0.01785512,44.983535,326.84358)"
         id="g12668"
         style="fill:#1a1a1a">
        <g
           clip-path="url(#clipPath12672)"
           id="g12670"
           style="fill:#1a1a1a">
          <path
             id="path12682"
             style="fill:#1a1a1a;fill-opacity:1;fill-rule:nonzero;stroke:none"
             d="m 1062.43,4029.23 c -19.96,15.5 -47.44,24.32 -76.258,23.55 21.778,-83.37 -3.277,-124.46 -28.492,-144.37 14.449,-19.42 31.605,-38.32 51.97,-55.81 33.19,17.93 79.41,63.95 52.78,176.63" />
        </g>
      </g>
      <g
         transform="matrix(0.01785512,0,0,-0.01785512,44.983535,326.84358)"
         id="g12684"
         style="fill:#1a1a1a">
        <g
           clip-path="url(#clipPath12688)"
           id="g12686"
           style="fill:#1a1a1a">
          <path
             id="path12698"
             style="fill:#1a1a1a;fill-opacity:1;fill-rule:nonzero;stroke:none"
             d="m 1062.43,4029.23 c 26.63,-112.68 -19.59,-158.7 -52.78,-176.63 18.49,-15.74 39.34,-30.31 63.42,-42.78 36.59,18.25 56.18,53.47 45.54,88.56 l -27.93,91.63 c -4.78,15.46 -14.86,28.86 -28.25,39.22" />
        </g>
      </g>
      <g
         transform="matrix(0.01785512,0,0,-0.01785512,44.983535,326.84358)"
         id="g12700"
         style="fill:#1a1a1a">
        <g
           clip-path="url(#clipPath12704)"
           id="g12702"
           style="fill:#1a1a1a">
          <path
             id="path12714"
             style="fill:#1a1a1a;fill-opacity:1;fill-rule:nonzero;stroke:none"
             d="m 1122.65,3816.09 c 2.31,-6.71 -2.71,-13.63 -11.21,-15.41 l -175.131,-37.53 c -8.539,-1.78 -17.325,2.15 -19.629,8.9 l 0,0 c -2.266,6.72 2.75,13.65 11.25,15.47 l 175.21,37.48 c 8.46,1.82 17.2,-2.19 19.51,-8.91 l 0,0" />
        </g>
      </g>
      <g
         transform="matrix(0.01785512,0,0,-0.01785512,44.983535,326.84358)"
         id="g12716"
         style="fill:#1a1a1a">
        <g
           clip-path="url(#clipPath12720)"
           id="g12718"
           style="fill:#1a1a1a">
          <path
             id="path12730"
             style="fill:#1a1a1a;fill-opacity:1;fill-rule:nonzero;stroke:none"
             d="m 1130.42,3792.58 c 2.27,-6.72 -2.71,-13.64 -11.21,-15.46 l -175.171,-37.48 c -8.504,-1.82 -17.281,2.14 -19.59,8.86 l 0,0 c -2.304,6.72 2.754,13.64 11.254,15.5 l 175.207,37.44 c 8.46,1.82 17.2,-2.18 19.51,-8.86 l 0,0" />
        </g>
      </g>
      <path
         id="path12732"
         style="fill:#1a1a1a;fill-opacity:1;fill-rule:nonzero;stroke:none"
         d="m 93.383766,249.73624 c 0,0 -0.830977,-0.31567 -0.511549,-0.86847 0.319428,-0.55226 2.890565,-1.05595 2.890565,-1.05595 l -2.379016,1.92442" />
      <path
         id="path12878"
         style="fill:#1a1a1a;fill-opacity:1;fill-rule:nonzero;stroke:none"
         d="m 81.65938,248.40943 c 0,0 7.96874,-2.81611 12.008461,-5.30511 0.186407,0.50512 0.413346,1.20611 0.413346,1.20611 0,0 -11.913115,4.4886 -12.322176,6.65443 -0.04267,-1.34271 -0.09963,-2.55543 -0.09963,-2.55543" />
    </g>
  </g>
</svg>
