<?xml version="1.0" encoding="UTF-8" standalone="no"?>
<!-- Created with Inkscape (http://www.inkscape.org/) -->

<svg
   xmlns:dc="http://purl.org/dc/elements/1.1/"
   xmlns:cc="http://creativecommons.org/ns#"
   xmlns:rdf="http://www.w3.org/1999/02/22-rdf-syntax-ns#"
   xmlns:svg="http://www.w3.org/2000/svg"
   xmlns="http://www.w3.org/2000/svg"
   xmlns:xlink="http://www.w3.org/1999/xlink"
   xmlns:sodipodi="http://sodipodi.sourceforge.net/DTD/sodipodi-0.dtd"
   xmlns:inkscape="http://www.inkscape.org/namespaces/inkscape"
   width="128"
   height="128"
   id="svg7115"
   version="1.1"
   inkscape:version="0.47 r22583"
   sodipodi:docname="Root.svg">
  <defs
     id="defs7117">
    <inkscape:perspective
       sodipodi:type="inkscape:persp3d"
       inkscape:vp_x="0 : 526.18109 : 1"
       inkscape:vp_y="0 : 1000 : 0"
       inkscape:vp_z="744.09448 : 526.18109 : 1"
       inkscape:persp3d-origin="372.04724 : 350.78739 : 1"
       id="perspective7123" />
    <inkscape:perspective
       id="perspective7133"
       inkscape:persp3d-origin="0.5 : 0.33333333 : 1"
       inkscape:vp_z="1 : 0.5 : 1"
       inkscape:vp_y="0 : 1000 : 0"
       inkscape:vp_x="0 : 0.5 : 1"
       sodipodi:type="inkscape:persp3d" />
    <radialGradient
       r="57.578693"
       fy="-44.736084"
       fx="81.822357"
       cy="-44.736084"
       cx="81.822357"
       gradientUnits="userSpaceOnUse"
       id="radialGradient6556"
       xlink:href="#linearGradient4065-7"
       inkscape:collect="always" />
    <linearGradient
       id="linearGradient4065-7">
      <stop
         style="stop-color:#fe9081;stop-opacity:1;"
         offset="0"
         id="stop4067-3" />
      <stop
         style="stop-color:#dd2026;stop-opacity:1;"
         offset="1"
         id="stop4069-38" />
    </linearGradient>
    <linearGradient
       inkscape:collect="always"
       xlink:href="#linearGradient4065-7"
       id="linearGradient7676"
       x1="24.243664"
       y1="-44.736084"
       x2="139.40105"
       y2="-44.736084"
       gradientUnits="userSpaceOnUse" />
    <inkscape:perspective
       id="perspective4556"
       inkscape:persp3d-origin="0.5 : 0.33333333 : 1"
       inkscape:vp_z="1 : 0.5 : 1"
       inkscape:vp_y="0 : 1000 : 0"
       inkscape:vp_x="0 : 0.5 : 1"
       sodipodi:type="inkscape:persp3d" />
    <inkscape:perspective
       id="perspective4573"
       inkscape:persp3d-origin="0.5 : 0.33333333 : 1"
       inkscape:vp_z="1 : 0.5 : 1"
       inkscape:vp_y="0 : 1000 : 0"
       inkscape:vp_x="0 : 0.5 : 1"
       sodipodi:type="inkscape:persp3d" />
    <linearGradient
       y2="40.703045"
       x2="25.007229"
       y1="9.031085"
       x1="25.007"
       gradientTransform="matrix(2.0579341,0,0,2.0579341,184.4519,116.67228)"
       gradientUnits="userSpaceOnUse"
       id="linearGradient2962"
       xlink:href="#linearGradient3296"
       inkscape:collect="always" />
    <linearGradient
       inkscape:collect="always"
       id="linearGradient3296">
      <stop
         style="stop-color:#666666;stop-opacity:1;"
         offset="0"
         id="stop3298" />
      <stop
         style="stop-color:#666666;stop-opacity:0;"
         offset="1"
         id="stop3300" />
    </linearGradient>
    <linearGradient
       y2="40.703045"
       x2="25.007229"
       y1="9.031085"
       x1="25.007"
       gradientTransform="matrix(2.0579341,0,0,2.0579341,184.4519,116.67228)"
       gradientUnits="userSpaceOnUse"
       id="linearGradient4584"
       xlink:href="#linearGradient3296"
       inkscape:collect="always" />
  </defs>
  <sodipodi:namedview
     id="base"
     pagecolor="#ffffff"
     bordercolor="#666666"
     borderopacity="1.0"
     inkscape:pageopacity="0.0"
     inkscape:pageshadow="2"
     inkscape:zoom="2.8"
     inkscape:cx="35.748377"
     inkscape:cy="77.142857"
     inkscape:document-units="px"
     inkscape:current-layer="layer1"
     showgrid="false"
     inkscape:window-width="1680"
     inkscape:window-height="994"
     inkscape:window-x="-4"
     inkscape:window-y="-3"
     inkscape:window-maximized="1" />
  <metadata
     id="metadata7120">
    <rdf:RDF>
      <cc:Work
         rdf:about="">
        <dc:format>image/svg+xml</dc:format>
        <dc:type
           rdf:resource="http://purl.org/dc/dcmitype/StillImage" />
        <dc:title></dc:title>
      </cc:Work>
    </rdf:RDF>
  </metadata>
  <g
     inkscape:label="Layer 1"
     inkscape:groupmode="layer"
     id="layer1"
     transform="translate(0,-924.36218)">
    <path
       transform="matrix(1.0749636,0,0,1.0749636,-23.956056,1036.4518)"
       d="m 139.40105,-44.736084 c 0,31.799834 -25.77886,57.578693 -57.578693,57.578693 -31.799834,0 -57.578693,-25.778859 -57.578693,-57.578693 0,-31.799834 25.778859,-57.578696 57.578693,-57.578696 31.799833,0 57.578693,25.778862 57.578693,57.578696 z"
       sodipodi:ry="57.578693"
       sodipodi:rx="57.578693"
       sodipodi:cy="-44.736084"
       sodipodi:cx="81.822357"
       id="path3291"
       style="fill:url(#linearGradient7676);fill-opacity:1;stroke:none"
       sodipodi:type="arc" />
    <g
       id="g2970"
       transform="matrix(1.3343016,0,0,1.3343016,-250.76339,764.37752)">
      <path
         id="path2779"
         d="m 236.08221,135.25979 c -1.60827,-2.9e-4 -3.19417,0.13273 -4.74217,0.35359 l -0.67474,8.77211 c -2.7499,0.61125 -5.30251,1.65365 -7.61943,3.09995 l -6.67588,-5.76074 c -3.23107,2.03744 -4.66994,3.4549 -6.74471,6.64443 l 5.77658,6.64666 c -1.47294,2.28721 -2.53955,4.81023 -3.17211,7.53115 l -8.85779,0.6187 c -0.23174,1.53238 -0.37497,3.10281 -0.38381,4.69616 -0.009,1.59336 0.11695,3.16383 0.33169,4.69629 l 8.85091,0.62183 c 0.60236,2.72114 1.64097,5.24454 3.08853,7.53226 l -5.85033,6.6446 c 2.03937,3.19025 3.46251,4.60825 6.67096,6.6468 l 6.7398,-5.75835 c 2.30086,1.44712 4.8419,2.49041 7.58501,3.10262 l 0.57739,8.77234 c 1.54555,0.22143 3.12997,0.35499 4.73824,0.35528 1.60827,2.7e-4 3.19418,-0.13274 4.74217,-0.35359 l 0.67473,-8.77211 c 2.74992,-0.61125 5.30252,-1.65366 7.61944,-3.09995 l 6.67588,5.76071 c 3.23108,-2.03741 4.66995,-3.4549 6.74471,-6.64443 l -5.77658,-6.64663 c 1.47295,-2.28723 2.53956,-4.81024 3.17212,-7.53116 l 8.85779,-0.61869 c 0.23174,-1.53238 0.37495,-3.10281 0.3838,-4.69617 0.008,-1.59335 -0.11689,-3.16385 -0.3317,-4.69631 l -8.8509,-0.62182 c -0.60236,-2.72113 -1.64098,-5.24452 -3.08853,-7.53225 l 5.85033,-6.64459 c -1.84141,-3.14113 -3.46251,-4.60825 -6.67095,-6.6468 l -6.73982,5.75835 c -2.30085,-1.44712 -4.84189,-2.49041 -7.58501,-3.10265 l -0.57737,-8.77231 c -1.54556,-0.22144 -3.12998,-0.355 -4.73825,-0.35528 z m -0.14161,25.51918 c 3.94958,7e-4 7.13741,3.17698 7.1157,7.08991 -0.0216,3.91296 -3.24477,7.0881 -7.19436,7.08741 -3.94958,-7e-4 -7.13741,-3.17698 -7.1157,-7.08994 0.0217,-3.91293 3.24478,-7.08808 7.19436,-7.08738 z"
         style="fill:#000000;fill-opacity:1;stroke:none" />
      <path
         id="path3290"
         d="m 235.85082,135.25799 c -1.51908,0.0123 -3.03734,0.17699 -4.50173,0.38587 l -0.6431,8.74622 c -2.74989,0.61125 -5.33603,1.6406 -7.65295,3.0869 l -6.68828,-5.72363 c -3.23107,2.03742 -4.67783,3.43445 -6.7526,6.62398 l 5.78794,6.62397 c -1.47294,2.28721 -2.51865,4.8034 -3.15121,7.52432 l -8.87484,0.64311 c -0.23175,1.53238 -0.37703,3.1013 -0.38587,4.69466 -0.009,1.59335 0.10683,3.16218 0.32156,4.69466 l 8.87484,0.64311 c 0.0627,0.28337 0.12076,0.55695 0.19293,0.83603 10.17346,-14.098 25.11169,-24.25329 47.71834,-28.74677 -1.16197,-1.27252 -2.47333,-2.33001 -4.37311,-3.53707 l -6.7526,5.72363 c -2.30085,-1.44712 -4.84551,-2.47469 -7.58863,-3.0869 l -0.51448,-8.74622 c -1.46224,-0.2095 -2.98261,-0.37214 -4.50173,-0.38587 l -0.25724,0 c -0.0869,-2e-5 -0.1705,-7.6e-4 -0.25724,0 z"
         style="fill:url(#linearGradient4584);fill-opacity:1;stroke:none" />
    </g>
  </g>
</svg>
