<?xml version="1.0" encoding="UTF-8" standalone="no"?>
<!-- Created with Inkscape (http://www.inkscape.org/) -->

<svg
   xmlns:dc="http://purl.org/dc/elements/1.1/"
   xmlns:cc="http://creativecommons.org/ns#"
   xmlns:rdf="http://www.w3.org/1999/02/22-rdf-syntax-ns#"
   xmlns:svg="http://www.w3.org/2000/svg"
   xmlns="http://www.w3.org/2000/svg"
   xmlns:xlink="http://www.w3.org/1999/xlink"
   xmlns:sodipodi="http://sodipodi.sourceforge.net/DTD/sodipodi-0.dtd"
   xmlns:inkscape="http://www.inkscape.org/namespaces/inkscape"
   width="128"
   height="128"
   id="svg7115"
   version="1.1"
   inkscape:version="0.47 r22583"
   sodipodi:docname="$Template_Thd_Zrepo_Symbian.svg">
  <sodipodi:namedview
     id="base"
     pagecolor="#ffffff"
     bordercolor="#666666"
     borderopacity="1.0"
     inkscape:pageopacity="0.0"
     inkscape:pageshadow="2"
     inkscape:zoom="2.8"
     inkscape:cx="56.641234"
     inkscape:cy="77.142857"
     inkscape:document-units="px"
     inkscape:current-layer="svg7115"
     showgrid="false"
     inkscape:window-width="1680"
     inkscape:window-height="994"
     inkscape:window-x="-4"
     inkscape:window-y="-3"
     inkscape:window-maximized="1" />
  <defs
     id="defs7117">
    <inkscape:perspective
       sodipodi:type="inkscape:persp3d"
       inkscape:vp_x="0 : 526.18109 : 1"
       inkscape:vp_y="0 : 1000 : 0"
       inkscape:vp_z="744.09448 : 526.18109 : 1"
       inkscape:persp3d-origin="372.04724 : 350.78739 : 1"
       id="perspective7123" />
    <inkscape:perspective
       id="perspective7133"
       inkscape:persp3d-origin="0.5 : 0.33333333 : 1"
       inkscape:vp_z="1 : 0.5 : 1"
       inkscape:vp_y="0 : 1000 : 0"
       inkscape:vp_x="0 : 0.5 : 1"
       sodipodi:type="inkscape:persp3d" />
    <radialGradient
       r="57.578693"
       fy="-44.736084"
       fx="81.822357"
       cy="-44.736084"
       cx="81.822357"
       gradientUnits="userSpaceOnUse"
       id="radialGradient6556"
       xlink:href="#linearGradient4065-7"
       inkscape:collect="always" />
    <linearGradient
       id="linearGradient4065-7">
      <stop
         style="stop-color:#66a765;stop-opacity:1;"
         offset="0"
         id="stop4067-3" />
      <stop
         style="stop-color:#1e712c;stop-opacity:1;"
         offset="1"
         id="stop4069-38" />
    </linearGradient>
    <linearGradient
       inkscape:collect="always"
       xlink:href="#linearGradient4065-7"
       id="linearGradient7676"
       x1="24.243664"
       y1="-44.736084"
       x2="139.40105"
       y2="-44.736084"
       gradientUnits="userSpaceOnUse" />
    <linearGradient
       inkscape:collect="always"
       xlink:href="#linearGradient4065-7-520"
       id="linearGradient7676-466"
       x1="24.243664"
       y1="-44.736084"
       x2="139.40105"
       y2="-44.736084"
       gradientUnits="userSpaceOnUse" />
    <linearGradient
       id="linearGradient4065-7-520">
      <stop
         style="stop-color:#5c965b;stop-opacity:1;"
         offset="0"
         id="stop2830" />
      <stop
         style="stop-color:#1b6628;stop-opacity:1;"
         offset="1"
         id="stop2832" />
    </linearGradient>
    <linearGradient
       inkscape:collect="always"
       xlink:href="#linearGradient4065-7-520-767"
       id="linearGradient7676-466-64"
       x1="24.243664"
       y1="-44.736084"
       x2="139.40105"
       y2="-44.736084"
       gradientUnits="userSpaceOnUse" />
    <linearGradient
       id="linearGradient4065-7-520-767">
      <stop
         style="stop-color:#538752;stop-opacity:1;"
         offset="0"
         id="stop2869" />
      <stop
         style="stop-color:#185c24;stop-opacity:1;"
         offset="1"
         id="stop2871" />
    </linearGradient>
    <inkscape:perspective
       id="perspective3886"
       inkscape:persp3d-origin="0.5 : 0.33333333 : 1"
       inkscape:vp_z="1 : 0.5 : 1"
       inkscape:vp_y="0 : 1000 : 0"
       inkscape:vp_x="0 : 0.5 : 1"
       sodipodi:type="inkscape:persp3d" />
    <inkscape:perspective
       id="perspective3873"
       inkscape:persp3d-origin="0.5 : 0.33333333 : 1"
       inkscape:vp_z="1 : 0.5 : 1"
       inkscape:vp_y="0 : 1000 : 0"
       inkscape:vp_x="0 : 0.5 : 1"
       sodipodi:type="inkscape:persp3d" />
    <inkscape:perspective
       id="perspective3865"
       inkscape:persp3d-origin="0.5 : 0.33333333 : 1"
       inkscape:vp_z="1 : 0.5 : 1"
       inkscape:vp_y="0 : 1000 : 0"
       inkscape:vp_x="0 : 0.5 : 1"
       sodipodi:type="inkscape:persp3d" />
    <inkscape:perspective
       id="perspective3835"
       inkscape:persp3d-origin="0.5 : 0.33333333 : 1"
       inkscape:vp_z="1 : 0.5 : 1"
       inkscape:vp_y="0 : 1000 : 0"
       inkscape:vp_x="0 : 0.5 : 1"
       sodipodi:type="inkscape:persp3d" />
  </defs>
  <metadata
     id="metadata7120">
    <rdf:RDF>
      <cc:Work
         rdf:about="">
        <dc:format>image/svg+xml</dc:format>
        <dc:type
           rdf:resource="http://purl.org/dc/dcmitype/StillImage" />
        <dc:title></dc:title>
      </cc:Work>
    </rdf:RDF>
  </metadata>
  <g
     inkscape:label="Layer 1"
     inkscape:groupmode="layer"
     id="layer1"
     transform="translate(0,-924.36218)">
    <path
       transform="matrix(1.0749636,0,0,1.0749636,-23.956056,1036.4518)"
       d="m 139.40105,-44.736084 c 0,31.799834 -25.77886,57.578693 -57.578693,57.578693 -31.799834,0 -57.578693,-25.778859 -57.578693,-57.578693 0,-31.799834 25.778859,-57.578696 57.578693,-57.578696 31.799833,0 57.578693,25.778862 57.578693,57.578696 z"
       sodipodi:ry="57.578693"
       sodipodi:rx="57.578693"
       sodipodi:cy="-44.736084"
       sodipodi:cx="81.822357"
       id="path3291"
       style="fill:url(#linearGradient7676-466-64);fill-opacity:1;stroke:none"
       sodipodi:type="arc" />
  </g>
  <path
     id="path2816"
     d="m 55.893456,101.98631 c -17.4409,-0.97666 -27.717405,-4.469625 -27.865405,-9.471485 -0.04,-1.35737 1.2176,-8.60231 1.95,-11.23238 0.1737,-0.62349 0.9381,-0.35516 2.600305,0.91264 2.9712,2.26623 10.6018,4.63735 19.4522,6.0444 3.7755,0.60026 6.9994,1.22622 7.1643,1.39104 0.1649,0.1649 0.2284,2.26365 0.1414,4.66403 -0.1546,4.26398 -0.1144,4.37656 1.7443,4.89507 2.9906,0.834255 17.7831,0.54553 21.1452,-0.41275 1.6711,-0.47625 4.0258,-1.329 5.2326,-1.89493 2.1632,-1.01432 2.1944,-1.09522 2.1944,-5.66991 0,-4.62665 0.011,-4.6458 2.532,-6.24974 1.3925,-0.88487 3.1107,-2.25594 3.8181,-3.04682 1.7876,-1.99841 2.426,-1.80005 2.4353,0.75639 0.011,1.20692 0.441,3.82051 0.9699,5.80806 1.127704,4.23676 0.637504,6.09954 -2.1126,8.02768 -5.869,4.115065 -23.6752,6.471305 -41.402,5.478705 z m 0.3375,-16.557765 c -10.7974,-0.89338 -21.5059,-3.61773 -22.8986,-5.82577 -0.4927,-0.78103 -0.4789,-1.71349 0.046,-3.10385 0.6878,-1.8223 0.5604,-2.1712 -1.533505,-4.20071 -2.2542,-2.18481 -2.2837,-2.29007 -2.2837,-8.15761 0,-3.32852 0.2841,-5.94419 0.6453,-5.94419 0.355,0 1.7638,0.75915 3.131105,1.68702 3.1851,2.16141 9.6712,4.08267 18.8998,5.59825 l 7.3135,1.2011 0.027,4.70304 0.027,4.70297 4.0511,0.61693 c 5.1594,0.78573 17.6768,-0.39597 22.2812,-2.10343 l 3.3759,-1.25192 0.1968,-4.79926 0.1967,-4.79926 3.6853,-2.44703 c 2.0271,-1.34589 3.6856,-2.74775 3.6856,-3.11533 0,-0.36756 0.3037,-0.66826 0.6751,-0.66826 0.4023,0 0.6752,2.56636 0.6752,6.34877 l 0,6.34877 -2.4517,1.96688 c -2.4203,1.94162 -2.4404,1.99844 -1.5612,4.42973 0.7975,2.20537 0.7589,2.60835 -0.369,3.85472 -3.4633,3.82696 -22.0457,6.2634 -37.8172,4.95844 z m -1.5377,-22.55118 c -8.0817,-0.70926 -14.0475,-1.99388 -18.549,-3.99421 -2.7044,-1.20172 -3.2072,-1.71655 -3.2072,-3.28405 0,-1.02242 0.3639,-2.22287 0.8087,-2.66769 0.6283,-0.62818 0.2514,-1.31927 -1.687805,-3.09564 l -2.4968,-2.28688 0,-6.15439 c 0,-3.38494 0.1318,-6.15443 0.2927,-6.15443 0.161,0 1.7561,0.89825 3.544705,1.99616 3.4996,2.14809 10.7147,4.36191 17.7684,5.45187 8.7246,1.34817 8.017,0.84209 8.2413,5.89342 l 0.1988,4.46983 2.3632,0.62439 c 4.0698,1.07531 17.9739,0.12204 23.1252,-1.5856 l 4.5574,-1.51078 0,-4.59977 c 0,-4.18248 0.1583,-4.70988 1.7438,-5.81289 0.9591,-0.66721 2.7462,-2.04862 3.9714,-3.06986 1.2252,-1.02125 2.4155,-1.85677 2.645,-1.85677 0.2296,0 0.4172,2.71239 0.4172,6.02752 l 0,6.02754 -2.4152,1.99091 c -2.4105,1.98683 -2.4136,1.99684 -1.5604,4.84501 0.8136,2.71525 0.7752,2.91447 -0.79,4.09502 -5.14,3.87715 -23.2135,6.03424 -38.9712,4.65129 z m 31.1957,-27.12183 c 3.4812,-3.02052 2.9852,-4.08916 -2.5428,-5.47775 -15.7192,-3.94853 -43.456,-2.19678 -48.3474,3.05348 -0.8625,0.92588 -1.3911,1.09734 -1.7235,0.55926 -0.854605,-1.38271 2.5185,-4.04581 6.7989,-5.36787 6.171,-1.90604 13.4226,-2.73517 23.9216,-2.73517 15.2703,0 26.8674,2.28101 29.6624,5.83427 0.7577,0.96331 1.1907,2.05402 0.9621,2.4238 -0.603,0.97571 -5.5445,2.98945 -8.681,3.53766 l -2.7008,0.47202 2.6505,-2.2997 z"
     style="opacity:0.95999995;fill:#000000;stroke:#0c4d17;stroke-width:1.41789019;stroke-miterlimit:4;stroke-opacity:1;stroke-dasharray:none" />
</svg>
